<svg width="200" height="82" viewBox="0 0 200 82" fill="none" xmlns="http://www.w3.org/2000/svg">
<g opacity="0.1">
<path fill-rule="evenodd" clip-rule="evenodd" d="M93.7387 73.3219C93.809 73.6206 93.7741 73.9324 93.6436 74.2103C93.4089 74.7126 93.1887 75.2239 92.8743 75.6748C92.4528 76.2802 92.2881 76.4008 91.7785 76.9464C90.7566 78.0408 88.5992 78.5589 87.5033 77.7234C86.1122 76.6622 86.9547 74.2316 87.9419 72.9887C88.5303 72.2477 88.269 72.4513 88.9029 71.7514C89.832 70.7239 90.7566 70.4969 91.7423 70.9058C92.7777 71.3357 93.4841 72.2387 93.7387 73.3219Z" fill="#2D2E83"/>
<path fill-rule="evenodd" clip-rule="evenodd" d="M96.8859 77.5157C96.8941 77.7303 96.8611 77.946 96.8044 78.151C96.6626 78.6676 96.4728 79.4075 96.1862 80.1005C95.7536 81.143 94.881 81.6986 93.8852 81.6499C92.8177 81.5959 90.6102 80.628 91.7653 78.3311C92.3157 77.2361 92.6636 77.0802 93.3511 76.0813C93.8496 75.3574 94.3664 74.7524 95.3156 75.1243C96.3155 75.5154 96.8348 76.1728 96.8859 77.5157Z" fill="#2D2E83"/>
<path fill-rule="evenodd" clip-rule="evenodd" d="M199.284 5.24933C200.029 3.53435 200.288 1.75759 199.597 0C195.94 2.95235 192.369 5.91903 188.707 8.76936C185.391 11.3499 181.778 13.4274 178.003 15.0937C177.516 16.5136 177.057 17.6821 176.687 18.3374C172.602 25.5566 168.481 28.3744 166.797 29.2899C167.027 29.5334 167.25 29.8669 167.364 30.3073C167.634 31.3574 167.197 32.6112 166.064 34.0339C164.897 35.4966 161.751 36.9101 159.785 37.6902C160.692 37.9645 161.624 38.4362 161.803 39.2291C161.993 40.0676 161.335 40.9354 159.792 41.8815C158.733 42.5298 153.599 43.981 151.238 44.6287C151.806 45.0413 152.376 45.592 152.409 46.1597C152.42 46.3643 152.373 46.7518 151.928 47.0524C150.167 48.2414 148.328 48.6055 146.738 48.6055C144.314 48.6055 142.465 47.7599 142.34 47.7014C142.092 47.5847 141.985 47.289 142.1 47.0396C142.215 46.7902 142.51 46.6827 142.759 46.7981C142.805 46.8195 147.402 48.9076 151.373 46.2259C151.395 45.9652 150.593 45.3212 149.769 44.8917C149.586 44.7969 149.482 44.5988 149.504 44.3942C149.527 44.1905 149.672 44.021 149.87 43.9683C152.147 43.3591 158.273 41.6443 159.274 41.0315C160.878 40.0484 160.856 39.5412 160.833 39.4493C160.722 38.9562 159.206 38.4647 157.915 38.3321C157.682 38.3072 157.498 38.1248 157.472 37.8911C157.446 37.659 157.585 37.4394 157.807 37.3639C157.866 37.3447 163.757 35.3306 165.287 33.4113C166.203 32.2636 166.588 31.2768 166.403 30.5565C166.237 29.9161 165.657 29.6617 165.651 29.6588C165.462 29.5812 165.341 29.3967 165.344 29.1915C165.346 28.9871 165.473 28.8045 165.663 28.7321C165.715 28.7127 170.825 26.6788 175.824 17.8458C176.131 17.303 176.508 16.3619 176.915 15.2021C177.45 13.3013 177.976 11.4297 178.5 9.56102C178.342 9.48465 178.182 9.40856 178.023 9.33162C177.536 9.7583 177.02 10.158 176.564 10.616C172.644 14.5581 168.158 17.6314 162.985 19.6996C159.476 21.1031 155.954 22.491 152.521 24.069C149.382 25.5126 147.568 28.0616 147.034 31.5404C146.83 32.8648 146.484 34.2021 145.973 35.4375C144.531 38.9185 139.01 41.6093 135.647 36.9273C134.58 35.4403 133.439 34.0062 132.331 32.5491C130.992 30.7867 130.128 30.5601 128.531 32.1802C125.534 35.2188 122.669 38.3977 119.87 41.6236C119.593 41.9435 119.325 42.2691 119.066 42.6011L130.778 58.3283C131.345 57.8957 131.906 57.4548 132.478 57.0287C132.764 58.2348 132.959 59.4396 133.337 60.5822C134.566 64.3028 138.762 65.2603 141.435 62.4212C141.986 61.8362 142.365 61.7835 143.093 62.0678C145.233 62.9043 147.228 62.3877 148.41 60.593C149.138 59.4887 149.834 59.208 151.171 59.4311C155.628 60.1749 157.409 58.7392 157.841 54.5665C159.76 54.1612 161.683 53.9859 163.427 53.329C165.612 52.5062 165.566 50.4009 165.484 48.4046C168.035 48.1887 170.385 47.4834 172.502 46.0999C174.296 44.9266 174.351 44.2583 172.66 42.8861C171.892 42.2626 170.995 41.7995 169.971 41.1456C170.716 41.0309 171.229 40.9596 171.739 40.8728C175.015 40.3134 178.251 39.6409 180.934 37.465C182.05 36.5595 182.127 36.1393 181.05 35.1881C180.332 34.5541 179.452 34.1017 178.614 33.548C182.373 32.1546 186.094 30.6591 188.667 26.8562C186.952 26.2741 185.333 25.724 183.638 25.1484C184.268 24.8201 184.85 24.5365 185.413 24.2229C189.264 22.0814 193.016 19.8357 195.541 16.0164C196.104 15.1649 196.026 14.6756 195.229 14.2366C194.486 13.8262 193.697 13.4987 192.858 13.101C193.115 12.8645 193.334 12.663 193.555 12.4626C195.856 10.3702 198.019 8.15802 199.284 5.24933Z" fill="#2D2E83"/>
<path fill-rule="evenodd" clip-rule="evenodd" d="M81.7428 44.5379C83.8275 46.5017 86.1253 47.6127 89.0184 46.7794C89.1425 46.9233 89.1486 46.9305 89.2719 47.0749C88.6907 48.2235 88.1385 49.3886 87.5389 50.5272C87.0477 51.4599 86.4608 52.3402 85.8329 53.1861C84.587 54.8645 84.3655 55.1479 85.4982 56.2074C87.2091 57.8095 89.143 58.4582 91.4798 57.6715C93.9475 56.8404 96.0733 55.6499 97.2647 53.1676C97.3836 52.9197 97.906 52.6996 98.2098 52.736C100.891 53.0565 103.216 54.0682 105.417 55.7631C109.243 58.7089 113.339 61.2981 117.265 64.1165C118.691 65.1397 120.004 66.3388 121.279 67.5515C122.33 68.5519 122.996 69.999 122.251 71.2807C121.746 72.1467 120.998 72.3303 120.229 72.4306C119.111 72.5765 117.977 72.3382 116.987 71.7948C114.898 70.6491 112.943 69.3674 110.883 68.1953C110.167 67.7837 110.024 68.5434 110.465 68.8411C112.06 69.8237 113.715 70.9126 115.317 71.9151C117.169 73.189 117.004 75.3902 115.27 76.3252C113.709 77.1652 112.558 76.9759 110.529 75.9049C109.084 75.1423 107.625 74.1276 106.034 73.4619C105.761 73.3479 105.526 73.1157 105.243 73.0047C104.732 72.7376 104.246 73.5707 104.63 73.6833C106.316 74.7542 108.144 75.7733 109.878 76.8257C110.535 77.2237 110.73 78.1416 110.233 78.7289C109.158 79.9966 107.431 80.2329 105.802 79.3008C103.914 78.2227 102.019 77.1567 100.103 76.1271C99.6433 75.8209 98.9891 76.2524 99.6615 76.8193C101.329 77.8667 103.019 78.8751 104.701 79.8969C105.549 80.4253 105.216 80.8788 104.975 81.027C103.913 81.6792 102.8 81.8302 101.58 81.44C101.024 81.2626 100.484 81.0276 99.9519 80.7856C98.752 80.2408 97.7312 79.7893 98.1723 77.95C98.5864 76.2203 97.4105 74.938 95.6451 74.4752C95.381 74.4053 95.1099 74.3605 94.763 74.287C94.7686 72.7411 94.2497 71.4275 92.9034 70.597C91.5436 69.7584 90.1638 69.7539 88.8691 70.6889C88.4082 69.8914 88.0388 69.0725 87.507 68.3783C86.7809 67.4304 85.7749 66.9462 84.541 66.9405C84.2495 66.9391 83.8233 66.7213 83.688 66.4763C82.1767 63.7398 80.5683 63.9241 77.6844 65.3114C75.7221 63.0953 73.1446 61.0716 70.8171 58.7866C74.0444 54.4507 78.3781 49.0589 81.7428 44.5379Z" fill="#2D2E83"/>
<path fill-rule="evenodd" clip-rule="evenodd" d="M114.046 60.4566C114.435 59.8027 114.744 59.2825 115.054 58.761C114.999 58.7196 114.945 58.679 114.89 58.6379C114.685 58.8643 114.517 59.1579 114.265 59.3003C113.932 59.4919 113.466 59.7542 113.177 59.648C112.666 59.462 112.183 59.1457 112.466 58.3172C112.714 57.5954 112.674 56.7726 112.761 55.994C112.675 55.9734 112.589 55.9526 112.503 55.9313C112.248 56.7591 111.994 57.5869 111.702 58.5358C108.956 56.6901 106.296 54.9024 103.56 53.0637C104.406 51.7072 105.182 50.464 105.957 49.2209C105.892 49.1619 105.826 49.1027 105.76 49.0435C104.772 50.1244 103.784 51.205 102.837 52.241C101.648 51.931 100.444 51.6182 99.376 51.3405C99.4955 49.9995 99.6079 48.7385 99.7202 47.4762C99.6563 47.4655 99.591 47.4534 99.5263 47.4421C99.0761 48.6774 98.626 49.9127 98.1749 51.148C98.0591 51.1745 97.9432 51.2007 97.828 51.2272C97.1213 50.1413 96.4155 49.0556 95.7102 47.97C95.6569 47.9928 95.6035 48.0154 95.5508 48.0382C95.7222 48.6915 95.8122 49.3826 96.0859 49.9882C96.4428 50.7769 96.2701 51.391 95.8781 52.1048C94.307 54.9624 91.88 56.3894 88.7242 56.5618C88.203 56.5903 87.5813 56.3102 87.1423 55.9841C86.1942 55.2773 86.1717 54.8435 86.855 53.8703C88.3266 51.7734 89.6604 49.6213 90.3278 47.085C90.714 45.6197 91.9728 44.925 93.3066 44.7249C95.2634 44.4298 97.2605 44.4014 99.2392 44.2517C99.716 44.2161 100.241 44.2638 100.657 44.075C102.117 43.4104 103.46 43.9233 104.821 44.3714C107.257 45.1736 109.696 45.965 112.124 46.793C112.869 47.0472 113.422 46.8314 113.992 46.3469C114.745 45.708 115.556 45.1387 116.421 44.4805C116.848 45.0989 117.198 45.646 117.589 46.1617C120.254 49.6825 122.936 53.1899 125.591 56.7177C126.441 57.847 127.277 58.9925 128.024 60.1922C128.684 61.2503 128.497 61.9427 127.377 62.4684C125.696 63.2586 124.332 64.4249 123.061 65.7563C122.186 66.674 121.625 66.5891 120.686 65.7828C119.208 64.5111 117.662 63.3212 116.14 62.1022C115.446 61.5451 114.74 61.0023 114.046 60.4566Z" fill="#2D2E83"/>
<path fill-rule="evenodd" clip-rule="evenodd" d="M87.5486 71.1675C87.5391 72.9411 86.2413 74.2592 84.5345 74.2294C83.1013 74.2047 81.7222 72.7506 81.7121 71.2549C81.7033 69.8152 83.4335 67.9542 84.7588 67.9792C86.3049 68.0082 87.558 69.4387 87.5486 71.1675Z" fill="#2D2E83"/>
<path fill-rule="evenodd" clip-rule="evenodd" d="M81.067 65.2442C82.0774 65.2377 83.2273 66.5696 83.2681 67.7912C83.2998 68.7549 81.4652 70.3304 80.3189 70.323C79.3564 70.3172 78.5143 69.4336 78.6061 68.3502C78.7392 66.7726 79.4606 65.2588 81.067 65.2442Z" fill="#2D2E83"/>
<path fill-rule="evenodd" clip-rule="evenodd" d="M0.716506 5.24933C-0.0291674 3.53435 -0.287692 1.75759 0.402086 0C4.05972 2.95235 7.63148 5.91903 11.2934 8.76936C14.6094 11.3499 18.2224 13.4274 21.9973 15.0937C22.4845 16.5136 22.9427 17.6821 23.3134 18.3374C27.3978 25.5566 31.5194 28.3744 33.2033 29.2899C32.9726 29.5334 32.7503 29.8669 32.6359 30.3073C32.366 31.3574 32.8034 32.6112 33.9371 34.0339C35.1032 35.4966 38.2489 36.9101 40.2148 37.6902C39.3093 37.9645 38.3768 38.4362 38.197 39.2291C38.0073 40.0676 38.665 40.9354 40.2084 41.8815C41.2666 42.5298 46.4016 43.981 48.7624 44.6287C48.1942 45.0413 47.6239 45.592 47.592 46.1597C47.58 46.3643 47.6269 46.7518 48.072 47.0524C49.8334 48.2414 51.6715 48.6055 53.2618 48.6055C55.6858 48.6055 57.5354 47.7599 57.6601 47.7014C57.9082 47.5847 58.0153 47.289 57.9004 47.0396C57.7846 46.7902 57.4913 46.6827 57.2406 46.7981C57.1951 46.8195 52.5976 48.9076 48.6268 46.2259C48.6055 45.9652 49.4066 45.3212 50.2313 44.8917C50.4139 44.7969 50.5181 44.5988 50.4962 44.3942C50.474 44.1905 50.3285 44.021 50.1303 43.9683C47.8534 43.3591 41.7268 41.6443 40.7262 41.0315C39.1224 40.0484 39.1444 39.5412 39.1665 39.4493C39.2781 38.9562 40.7942 38.4647 42.0847 38.3321C42.3177 38.3072 42.5025 38.1248 42.5281 37.8911C42.5543 37.659 42.4151 37.4394 42.1935 37.3639C42.1339 37.3447 36.2431 35.3306 34.7126 33.4113C33.7972 32.2636 33.4122 31.2768 33.5975 30.5565C33.7629 29.9161 34.3434 29.6617 34.349 29.6588C34.5387 29.5812 34.6593 29.3967 34.6565 29.1915C34.6544 28.9871 34.5266 28.8045 34.337 28.7321C34.2858 28.7127 29.175 26.6788 24.1771 17.8458C23.8702 17.303 23.4923 16.3619 23.0847 15.2021C22.5505 13.3013 22.0243 11.4297 21.5002 9.56102C21.6584 9.48465 21.8183 9.40856 21.9773 9.33162C22.4646 9.7583 22.9803 10.158 23.4362 10.616C27.356 14.5581 31.8433 17.6314 37.0144 19.6996C40.5245 21.1031 44.0465 22.491 47.4791 24.069C50.619 25.5126 52.4315 28.0616 52.9662 31.5404C53.1702 32.8648 53.5161 34.2021 54.0275 35.4375C55.4692 38.9185 60.9905 41.6093 64.3535 36.9273C65.4202 35.4403 66.561 34.0062 67.6689 32.5491C69.0083 30.7867 69.872 30.5601 71.4693 32.1802C74.4665 35.2188 77.3309 38.3977 80.1299 41.6236C80.4069 41.9435 80.6748 42.2691 80.9339 42.6011L69.2229 58.3283C68.6553 57.8957 68.0937 57.4548 67.5219 57.0287C67.2356 58.2348 67.0409 59.4396 66.6633 60.5822C65.4337 64.3028 61.2377 65.2603 58.5651 62.4212C58.0147 61.8362 57.6354 61.7835 56.9074 62.0678C54.7675 62.9043 52.7723 62.3877 51.59 60.593C50.862 59.4887 50.1658 59.208 48.8292 59.4311C44.3718 60.1749 42.5913 58.7392 42.1587 54.5665C40.2404 54.1612 38.317 53.9859 36.5735 53.329C34.3881 52.5062 34.4336 50.4009 34.5159 48.4046C31.9647 48.1887 29.6153 47.4834 27.4987 46.0999C25.7041 44.9266 25.6493 44.2583 27.3404 42.8861C28.1081 42.2626 29.0052 41.7995 30.0286 41.1456C29.2836 41.0309 28.7715 40.9596 28.2615 40.8728C24.9845 40.3134 21.7494 39.6409 19.0662 37.465C17.9496 36.5595 17.8729 36.1393 18.9496 35.1881C19.6686 34.5541 20.5477 34.1017 21.3859 33.548C17.6273 32.1546 13.9064 30.6591 11.3339 26.8562C13.0477 26.2741 14.6662 25.724 16.3624 25.1484C15.7316 24.8201 15.1514 24.5365 14.5875 24.2229C10.7359 22.0814 6.9836 19.8357 4.45958 16.0164C3.89629 15.1649 3.97442 14.6756 4.77066 14.2366C5.51413 13.8262 6.30334 13.4987 7.14206 13.101C6.88495 12.8645 6.66549 12.663 6.44525 12.4626C4.14487 10.3702 1.98086 8.15802 0.716506 5.24933Z" fill="#2D2E83"/>
</g>
</svg>
