<svg width="120" height="114" viewBox="0 0 120 114" fill="none" xmlns="http://www.w3.org/2000/svg">
<g clip-path="url(#clip0_15_4612)">
<path fill-rule="evenodd" clip-rule="evenodd" d="M6.63659 90.857H8.97516L7.80606 87.5385L6.63659 90.857ZM2.21875 95.6208V93.6831H3.25787L6.20326 86.6208H5.15648V84.6831H8.59979L12.3749 93.6904V93.6831H13.4149V95.6208H9.11223V93.6831H10.1519L9.7833 92.7943H5.89994L5.51781 93.6831H6.55697V95.6208H2.21875Z" fill="#053182"/>
<path fill-rule="evenodd" clip-rule="evenodd" d="M21.4843 87.8208C21.1141 87.3392 20.7023 86.9881 20.2501 86.7689C19.7976 86.5497 19.2537 86.4404 18.6186 86.4404C17.4779 86.4404 16.5703 86.8401 15.8971 87.6403C15.618 87.963 15.3977 88.3465 15.2368 88.7894C15.075 89.2332 14.995 89.6788 14.995 90.1267C14.995 90.7964 15.1582 91.4184 15.4854 91.9923C15.8131 92.5652 16.258 93.0198 16.8212 93.3547C17.3843 93.6895 17.9975 93.8565 18.6617 93.8565C19.1863 93.8565 19.6568 93.7581 20.073 93.5604C20.4893 93.3628 20.9212 93.0329 21.3689 92.5702H23.751C23.3227 93.5681 22.6548 94.3579 21.7478 94.9413C20.8403 95.5242 19.8267 95.8163 18.7049 95.8163C18.1804 95.8163 17.6694 95.7483 17.1708 95.6133C16.6733 95.4787 16.2144 95.2883 15.796 95.0426C15.377 94.7964 14.9914 94.4993 14.6377 94.1496C14.2835 93.8003 13.9841 93.4173 13.7387 93.0004C13.4933 92.5838 13.3019 92.1283 13.1647 91.6345C13.0277 91.1402 12.959 90.633 12.959 90.1127C12.959 89.3511 13.1082 88.6233 13.4066 87.9293C13.7046 87.2352 14.1041 86.6375 14.6048 86.1366C15.1055 85.6356 15.7024 85.2354 16.395 84.9366C17.0881 84.6377 17.815 84.4883 18.575 84.4883C19.2636 84.4883 19.9274 84.6017 20.5675 84.8286C21.0151 84.992 21.4313 85.2522 21.8161 85.609V84.6833H23.751V87.8208H21.4843Z" fill="#053182"/>
<path fill-rule="evenodd" clip-rule="evenodd" d="M33.3379 87.8208C32.9676 87.3392 32.5559 86.9881 32.1037 86.7689C31.6512 86.5497 31.1073 86.4404 30.4722 86.4404C29.3315 86.4404 28.424 86.8401 27.7507 87.6403C27.4716 87.963 27.2513 88.3465 27.0904 88.7894C26.9286 89.2332 26.8486 89.6788 26.8486 90.1267C26.8486 90.7964 27.0118 91.4184 27.339 91.9923C27.6667 92.5652 28.1116 93.0198 28.6748 93.3547C29.2379 93.6895 29.851 93.8565 30.5154 93.8565C31.0399 93.8565 31.5104 93.7581 31.9266 93.5604C32.3428 93.3628 32.7748 93.0329 33.2225 92.5702H35.6046C35.1763 93.5681 34.5084 94.3579 33.6014 94.9413C32.6939 95.5242 31.6804 95.8163 30.5585 95.8163C30.034 95.8163 29.523 95.7483 29.0244 95.6133C28.5269 95.4787 28.068 95.2883 27.6496 95.0426C27.2307 94.7964 26.845 94.4993 26.4913 94.1496C26.1371 93.8003 25.8377 93.4173 25.5923 93.0004C25.347 92.5838 25.1555 92.1283 25.0184 91.6345C24.8813 91.1402 24.8125 90.633 24.8125 90.1127C24.8125 89.3511 24.9618 88.6233 25.2602 87.9293C25.5582 87.2352 25.9577 86.6375 26.4584 86.1366C26.9592 85.6356 27.5561 85.2354 28.2486 84.9366C28.9417 84.6377 29.6686 84.4883 30.4286 84.4883C31.1172 84.4883 31.781 84.6017 32.4211 84.8286C32.8687 84.992 33.2849 85.2522 33.6697 85.609V84.6833H35.6046V87.8208H33.3379Z" fill="#053182"/>
<path fill-rule="evenodd" clip-rule="evenodd" d="M42.3113 86.4404C41.3148 86.4404 40.4645 86.8004 39.7592 87.521C39.0545 88.2416 38.7021 89.1148 38.7021 90.1419C38.7021 90.6568 38.7983 91.1438 38.9907 91.602C39.1831 92.0592 39.4428 92.4536 39.7705 92.7835C40.0972 93.1139 40.4896 93.3749 40.9471 93.568C41.4039 93.7611 41.8879 93.8569 42.3975 93.8569C43.4322 93.8569 44.2926 93.5077 44.979 92.8087C45.6643 92.1102 46.0072 91.2311 46.0072 90.1702C46.0072 89.0954 45.6571 88.2051 44.9569 87.4993C44.2566 86.7931 43.3747 86.4404 42.3113 86.4404ZM42.4412 84.4883C43.2012 84.4883 43.9285 84.6377 44.6216 84.9365C45.3146 85.2354 45.911 85.637 46.4114 86.1401C46.912 86.6437 47.3103 87.245 47.606 87.9441C47.9018 88.6432 48.0505 89.3754 48.0505 90.1419C48.0505 91.1924 47.8024 92.1511 47.3067 93.0184C46.8109 93.8857 46.1322 94.569 45.2711 95.0682C44.4095 95.5665 43.4565 95.8163 42.4124 95.8163C41.6232 95.8163 40.8735 95.6691 40.1637 95.3752C39.454 95.0812 38.8437 94.6824 38.3335 94.1783C37.8239 93.6751 37.418 93.0724 37.1173 92.3717C36.8166 91.6703 36.666 90.9318 36.666 90.1558C36.666 89.3704 36.8152 88.6269 37.1141 87.9256C37.4121 87.2249 37.8162 86.6235 38.3268 86.1226C38.8369 85.6212 39.4491 85.2232 40.1637 84.9298C40.8785 84.6354 41.6375 84.4883 42.4412 84.4883Z" fill="#053182"/>
<path fill-rule="evenodd" clip-rule="evenodd" d="M50.3307 86.6208H49.291V84.6831H53.3986V86.6208H52.3595V93.6831H55.9107V86.6208H54.8716V84.6831H58.9715V86.6208H57.9319V93.6831H59.5564V97.7678H58.1414L57.7224 95.6208H49.291V93.6831H50.3307V86.6208Z" fill="#053182"/>
<path fill-rule="evenodd" clip-rule="evenodd" d="M61.8951 86.6208H60.8555V84.6831H64.9487V86.6208H63.9087V92.259L68.6514 84.6831H71.7487V86.6208H70.709V93.6831H71.7487V95.6208H67.6555V93.6831H68.695V88.0376L63.9522 95.6208H60.8555V93.6831H61.8951V86.6208Z" fill="#053182"/>
<path fill-rule="evenodd" clip-rule="evenodd" d="M76.7302 90.857H79.0689L77.8998 87.5385L76.7302 90.857ZM72.3125 95.6208V93.6831H73.3516L76.297 86.6208H75.2502V84.6831H78.6935L82.469 93.6904V93.6831H83.5086V95.6208H79.2064V93.6831H80.2455L79.8774 92.7943H75.9935L75.6115 93.6831H76.6507V95.6208H72.3125Z" fill="#053182"/>
<path fill-rule="evenodd" clip-rule="evenodd" d="M85.0748 86.6208H84.0352V84.6831H88.1429V86.6208H87.1037V93.6831H90.6549V86.6208H89.6157V84.6831H93.7158V86.6208H92.6762V93.6831H94.3005V97.7678H92.8856L92.4667 95.6208H84.0352V93.6831H85.0748V86.6208Z" fill="#053182"/>
<path fill-rule="evenodd" clip-rule="evenodd" d="M96.6392 86.6208H95.5996V84.6831H99.6929V86.6208H98.6529V92.259L103.396 84.6831H106.493V86.6208H105.453V93.6831H106.493V95.6208H102.4V93.6831H103.439V88.0376L98.6965 95.6208H95.5996V93.6831H96.6392V86.6208Z" fill="#053182"/>
<path fill-rule="evenodd" clip-rule="evenodd" d="M113.293 86.6208H112.391C111.52 86.6208 110.933 86.739 110.629 86.9749C110.259 87.2595 110.074 87.6834 110.074 88.247C110.074 88.8253 110.249 89.2461 110.601 89.5085C110.952 89.7714 111.52 89.9024 112.304 89.9024H113.293V86.6208ZM115.321 93.6831H116.361V95.6208H112.253V93.6831H113.293V91.4277L110.427 95.6208H107.93V93.6831H109.345L110.882 91.5799C110.473 91.4736 110.149 91.3665 109.911 91.258C109.673 91.1501 109.441 91.0037 109.215 90.821C108.425 90.1846 108.031 89.3073 108.031 88.1893C108.031 87.0762 108.389 86.1972 109.106 85.5508C109.467 85.2282 109.874 85.0026 110.326 84.8748C110.778 84.7474 111.392 84.6831 112.167 84.6831H116.361V86.6208H115.321V93.6831Z" fill="#053182"/>
<path fill-rule="evenodd" clip-rule="evenodd" d="M119.57 34.2684C120.017 33.2432 120.171 32.181 119.758 31.1304C117.568 32.8953 115.429 34.6687 113.237 36.3726C111.251 37.9152 109.087 39.1571 106.827 40.1533C106.535 41.0021 106.261 41.7006 106.039 42.0923C103.593 46.4079 101.125 48.0924 100.117 48.6396C100.255 48.7852 100.388 48.9845 100.456 49.2478C100.618 49.8756 100.357 50.6251 99.6778 51.4756C98.9794 52.35 97.0954 53.195 95.9181 53.6613C96.4609 53.8252 97.0193 54.1073 97.1264 54.5812C97.24 55.0825 96.8462 55.6012 95.922 56.1668C95.2883 56.5543 92.2138 57.4219 90.8001 57.8091C91.14 58.0557 91.4815 58.3849 91.5011 58.7243C91.5078 58.8466 91.4797 59.0783 91.2131 59.2579C90.1588 59.9687 89.0577 60.1864 88.1055 60.1864C86.654 60.1864 85.5464 59.6809 85.4716 59.6459C85.3231 59.5761 85.259 59.3994 85.3279 59.2503C85.3972 59.1012 85.5733 59.0369 85.7229 59.1059C85.7502 59.1187 88.5031 60.367 90.8809 58.7639C90.8937 58.608 90.414 58.223 89.9202 57.9663C89.8109 57.9096 89.7484 57.7912 89.7616 57.6689C89.7752 57.5471 89.862 57.4458 89.9811 57.4143C91.3441 57.0501 95.0127 56.025 95.6119 55.6587C96.5722 55.071 96.5591 54.7678 96.5458 54.7128C96.4791 54.4181 95.5711 54.1243 94.7984 54.045C94.6589 54.0301 94.5487 53.9211 94.5329 53.7814C94.5173 53.6426 94.6006 53.5113 94.7333 53.4662C94.769 53.4547 98.2964 52.2508 99.2129 51.1034C99.7611 50.4173 99.9916 49.8274 99.8807 49.3968C99.7816 49.014 99.434 48.8619 99.4306 48.8602C99.3176 48.8138 99.2449 48.7035 99.2465 48.5808C99.2478 48.4587 99.3243 48.3495 99.4379 48.3062C99.469 48.2946 102.529 47.0788 105.522 41.7985C105.706 41.474 105.932 40.9114 106.176 40.2181C106.496 39.0818 106.811 37.9629 107.125 36.8459C107.03 36.8002 106.934 36.7547 106.839 36.7087C106.547 36.9638 106.238 37.2027 105.965 37.4765C103.618 39.8331 100.932 41.6703 97.8345 42.9066C95.7327 43.7457 93.6237 44.5753 91.5682 45.5186C89.6884 46.3816 88.6026 47.9054 88.2825 49.985C88.1603 50.7767 87.9532 51.5761 87.647 52.3146C86.7837 54.3955 83.4774 56.0041 81.4641 53.2052C80.8248 52.3163 80.1418 51.459 79.4783 50.588C78.6767 49.5344 78.1591 49.399 77.2026 50.3675C75.4079 52.1839 73.6926 54.0842 72.0165 56.0127C71.8506 56.2039 71.6903 56.3985 71.5352 56.597L78.5483 65.9986C78.8876 65.74 79.224 65.4764 79.5663 65.2217C79.7378 65.9427 79.8544 66.6629 80.0805 67.346C80.8168 69.5701 83.3294 70.1424 84.9298 68.4453C85.2599 68.0956 85.4865 68.0641 85.9224 68.234C87.2038 68.7341 88.3989 68.4253 89.1066 67.3524C89.5425 66.6923 89.9594 66.5245 90.7598 66.6579C93.4289 67.1025 94.4951 66.2442 94.7541 63.7498C95.9028 63.5075 97.0546 63.4027 98.0986 63.01C99.4073 62.5182 99.38 61.2596 99.3307 60.0662C100.858 59.9372 102.266 59.5156 103.533 58.6885C104.607 57.9871 104.64 57.5876 103.628 56.7673C103.168 56.3946 102.631 56.1178 102.018 55.7269C102.464 55.6584 102.771 55.6157 103.076 55.5638C105.038 55.2294 106.975 54.8274 108.582 53.5267C109.251 52.9854 109.297 52.7341 108.652 52.1655C108.221 51.7866 107.695 51.5161 107.193 51.1851C109.444 50.3521 111.672 49.4581 113.213 47.1848C112.186 46.8368 111.216 46.508 110.201 46.1639C110.579 45.9676 110.927 45.7981 111.264 45.6106C113.57 44.3304 115.817 42.988 117.329 40.7048C117.666 40.1959 117.619 39.9034 117.142 39.6409C116.697 39.3956 116.225 39.1998 115.722 38.962C115.876 38.8207 116.007 38.7002 116.14 38.5804C117.518 37.3296 118.813 36.0072 119.57 34.2684Z" fill="#053182"/>
<path fill-rule="evenodd" clip-rule="evenodd" d="M59.3361 48.2902C46.0193 48.2902 35.2246 37.4803 35.2246 24.1451C35.2246 15.9501 39.3024 8.71 45.536 4.34504C45.5485 4.34529 45.5601 4.34333 45.5703 4.33852C45.9603 4.15343 46.3477 3.96255 46.7349 3.77169C47.2391 3.52324 47.7431 3.27483 48.2531 3.03929C48.5467 2.90328 48.8556 2.80032 49.1644 2.69742C49.3043 2.65078 49.4443 2.60415 49.5827 2.55446L49.5163 2.62514C49.2543 2.90412 49.0192 3.1546 48.7321 3.30475C48.3581 3.50098 47.9709 3.67208 47.5836 3.84324C47.3013 3.96798 47.0189 4.09276 46.7416 4.22732C45.8533 4.65773 44.97 5.10257 44.2493 6.00729C44.3235 5.99007 44.3788 5.97823 44.4222 5.96894C44.492 5.95401 44.5309 5.94567 44.568 5.93221C44.8222 5.84101 45.0762 5.74906 45.3302 5.65711C45.8976 5.45169 46.4652 5.24622 47.0356 5.04899C47.212 4.98864 47.4201 4.93864 47.5959 4.97306C48.0747 5.06795 48.4917 5.01168 48.8762 4.68498C48.9889 4.58887 49.1398 4.53425 49.2877 4.48074C49.3252 4.46717 49.3625 4.45367 49.399 4.43958C49.9218 4.23591 50.4458 4.0352 50.9664 3.83578C51.1867 3.75138 51.4064 3.66722 51.6252 3.58316C51.7969 3.04703 51.4439 2.98462 51.1328 2.92964C51.022 2.91006 50.9166 2.89141 50.842 2.85262C50.8145 2.74919 50.7957 2.6421 50.7786 2.54433C50.7455 2.35544 50.7185 2.2013 50.6456 2.17537C50.3575 2.07179 50.0273 1.98185 49.7248 1.99633C52.6694 0.712773 55.9195 0 59.3361 0C72.5102 0 83.2151 10.5813 83.442 23.7198C83.3259 22.4864 83.0773 21.2677 82.6042 20.0666C82.1607 18.9402 81.7295 17.8691 80.6618 17.1142L80.6804 17.3517C80.7182 17.8338 80.7559 18.314 80.7925 18.7943C80.8127 19.0611 80.835 19.3278 80.8572 19.5945C80.9068 20.1893 80.9564 20.784 80.9836 21.3794C81.0801 23.5254 80.7817 25.6387 80.4077 27.7418C80.3894 27.8441 80.274 27.9284 80.1585 28.0129C80.1047 28.0522 80.0509 28.0916 80.0069 28.1328L79.9598 28.1089C79.921 28.0891 79.8822 28.0694 79.843 28.0498C79.8604 28.1077 79.8733 28.169 79.8862 28.2304C79.9149 28.3664 79.9435 28.5023 80.0204 28.6C80.1694 28.7883 80.4268 29.3763 80.3457 29.6112C79.8678 30.9901 79.3812 32.3653 78.8945 33.7404C78.8883 33.7582 78.867 33.7705 78.8402 33.7859C78.8258 33.7942 78.81 33.8033 78.7939 33.8147L78.6799 33.742L78.4724 33.6101C78.4172 33.6683 78.3625 33.7224 78.3096 33.7748C78.2002 33.883 78.0984 33.9837 78.0154 34.0982C77.1012 35.3589 76.0036 36.4157 74.6547 37.2042C74.5206 37.2822 74.3999 37.4005 74.3061 37.5251C74.1683 37.7054 74.0285 37.8957 73.946 38.1046C73.7815 38.5225 73.6259 38.9437 73.4703 39.365C73.3451 39.7041 73.2199 40.0432 73.09 40.3806C73.0482 40.4893 72.9885 40.5909 72.9287 40.6926C72.8816 40.7727 72.8345 40.8529 72.796 40.9367C72.7486 41.0391 72.7145 41.1474 72.6805 41.2557C72.6655 41.3036 72.6505 41.3515 72.6343 41.3989C72.688 41.4027 72.7422 41.4096 72.7965 41.4165C72.9217 41.4324 73.0469 41.4483 73.1653 41.4266C73.2413 41.4129 73.3086 41.3585 73.3769 41.3032C73.4212 41.2674 73.4659 41.2312 73.5137 41.2055C73.9469 40.9721 74.3822 40.742 74.8205 40.5103L74.8232 40.5088L75.2827 40.2658C75.2061 40.6409 75.1347 40.9922 75.0648 41.3358L74.9658 41.8225C75.0495 41.859 75.1332 41.8951 75.2166 41.9315L75.2799 41.8014L75.3223 41.7138L75.3229 41.7126C75.7284 40.8739 76.1354 40.032 77.0707 39.5724L76.8537 40.1298L76.9212 40.1804L76.9431 40.1968C77.0175 40.2526 77.0896 40.3066 77.1586 40.358L77.1015 40.4681C72.6942 45.2759 66.3669 48.2902 59.3361 48.2902ZM73.4905 32.0905C73.4867 32.0177 73.4799 31.9443 73.473 31.8709C73.4557 31.6846 73.4384 31.4981 73.4708 31.321C73.4945 31.1917 73.6802 31.0753 73.8172 30.9894L73.8209 30.9871C73.8765 30.9524 73.9472 30.9432 74.0189 30.9338C74.0667 30.9276 74.1149 30.9213 74.1593 30.9074C74.1707 30.9035 74.1446 30.7355 74.1405 30.7355C74.0164 30.7406 73.8925 30.7553 73.8001 30.7662L73.7683 30.7699L73.6949 30.7026C73.5963 30.6121 73.4991 30.523 73.4017 30.4339L73.3023 30.5834L73.2375 30.6809L72.6995 29.6728C72.5383 29.5703 72.3739 29.4716 72.2094 29.3729C71.8116 29.1341 71.4135 28.8952 71.0607 28.602C70.7248 28.3227 70.3148 28.1343 69.8465 28.3391C69.9148 28.4005 69.9825 28.4605 70.0495 28.52C70.21 28.6625 70.3667 28.8015 70.5174 28.9468C70.5824 29.0092 70.6609 29.072 70.74 29.1354C70.9375 29.2934 71.1391 29.4548 71.146 29.6216C71.1615 29.9922 71.3425 30.2622 71.522 30.53C71.6215 30.6783 71.7205 30.8259 71.7906 30.9896C72.0969 31.7004 72.9365 32.1902 73.4905 32.0905ZM76.2578 26.7356C76.0661 27.0483 75.8867 27.3408 75.694 27.6244C75.4972 27.914 75.2868 28.1947 75.0608 28.4965C74.9588 28.6327 74.8536 28.7731 74.745 28.9206C74.7281 28.9263 74.6981 28.9313 74.6613 28.9373C74.547 28.9562 74.3677 28.9857 74.3174 29.0825C74.2186 29.2725 74.2135 29.5673 74.286 29.7775C74.3622 29.9998 74.485 30.2057 74.6266 30.4432C74.6912 30.5515 74.7598 30.6664 74.8296 30.7925C75.096 30.7483 75.4883 30.6834 75.9038 30.615C75.9143 30.652 75.928 30.7013 75.9432 30.7562L75.9858 30.9095C76.0479 30.9306 76.1096 30.9512 76.1716 30.9718L76.1778 30.9739C76.2077 30.8949 76.2384 30.8161 76.269 30.7374C76.3373 30.5622 76.4055 30.3871 76.4659 30.2095C76.6051 29.8 76.7402 29.3892 76.888 28.9398C76.9486 28.7555 77.0113 28.5647 77.0774 28.3649C76.4952 27.9702 76.8382 27.4294 77.2155 26.89C76.9541 26.6589 76.7284 26.4593 76.5346 26.2872C76.438 26.4417 76.3466 26.5908 76.2578 26.7356ZM75.7724 32.4636C75.7862 32.5128 75.8003 32.5629 75.8172 32.6053C74.9846 32.747 73.7319 32.6711 73.2073 32.4534C73.3061 32.3327 73.4002 32.2182 73.4945 32.1035C73.5701 32.1155 73.6455 32.1299 73.721 32.1442C73.8974 32.1778 74.0737 32.2114 74.2509 32.2143C74.3377 32.2158 74.4251 32.186 74.5123 32.1563C74.602 32.1257 74.6915 32.0952 74.7802 32.0986C75.0759 32.1094 75.3771 32.1552 75.6601 32.2395C75.7141 32.2555 75.7428 32.3578 75.7724 32.4636ZM77.1177 32.0346L75.8618 32.4465C76.34 32.6923 76.784 32.5706 77.1177 32.0346ZM78.3574 31.8965C77.9199 32.0353 77.5778 32.144 77.236 32.2526L77.1895 32.1168L77.5325 31.9899L77.5409 31.9868L77.5579 31.9805C78.0255 31.8075 78.4928 31.6346 78.9602 31.4613C78.9899 31.4964 79.02 31.5313 79.0497 31.5664C78.7406 31.9187 78.4317 32.2711 78.1226 32.6237C78.0844 32.5953 78.0467 32.5671 78.0086 32.5395L78.1123 32.3482L78.3574 31.8965ZM77.2529 29.3167C77.2268 29.4406 77.2008 29.5644 77.197 29.6889C77.1871 30.0127 77.1891 30.3368 77.1911 30.6611C77.1919 30.7935 77.1927 30.9259 77.1927 31.0583L77.4243 31.0692C77.4729 30.6989 77.5211 30.3285 77.5693 29.9578L77.5734 29.9583C77.6088 29.9627 77.6447 29.9672 77.6804 29.9712C77.7127 30.1108 77.7451 30.2501 77.7805 30.4019L77.8402 30.6586L78.2226 30.3575L78.0769 30.3385C78.0417 29.9216 78.007 29.5053 77.9748 29.1144C77.9089 29.1542 77.7749 29.2352 77.611 29.3349C77.3842 28.8711 77.5098 28.6609 77.9655 28.6081C78.3679 28.5621 78.7314 28.4454 78.7402 27.9737C78.6819 28.0063 78.6249 28.0456 78.5683 28.0845C78.4463 28.1685 78.3261 28.2513 78.1988 28.2647L78.151 28.2696C77.4184 28.3449 77.4146 28.3453 77.2908 29.1202C77.2804 29.1858 77.2666 29.2513 77.2529 29.3167ZM79.2149 27.9318L79.3104 27.2568C79.6287 28.0476 79.5623 28.3965 79.1198 28.6043L79.2149 27.9318ZM77.5721 26.0215L77.9982 25.754C78.1199 25.9322 78.2269 26.0893 78.3434 26.2604L78.4412 26.404C78.6933 25.7221 78.91 25.1348 78.3486 24.6298C78.4075 24.9864 78.1933 25.2022 77.9726 25.4245C77.8016 25.5967 77.6268 25.7729 77.5721 26.0215ZM77.8691 24.2459C77.8425 24.1187 77.8159 23.9916 77.789 23.8647C78.031 23.7147 78.173 23.8116 78.2338 24.072C78.2621 24.1928 78.2812 24.316 78.3002 24.4393L78.3116 24.5123L78.323 24.5828L78.0056 24.4944V25.2954L77.9502 25.304L77.8981 25.3121L77.844 25.3206L77.7906 25.3289C77.6236 25.0195 77.4569 24.7099 77.2823 24.3854H77.8983L77.8691 24.2459ZM76.912 22.6418C77.0289 22.1373 76.6808 21.8035 76.2156 21.9498C76.2118 22.7852 76.522 23.5028 77.067 24.2707V23.7364C77.3082 23.7767 77.5407 23.8153 77.7736 23.8535C77.833 23.5046 77.6065 23.2831 77.3321 23.2968C76.7516 23.3255 76.8176 23.0441 76.9021 22.684L76.912 22.6418ZM76.3333 25.9192L76.7751 24.7985C76.8148 24.8124 76.8544 24.8264 76.8938 24.8403L76.9435 24.8579L77.0049 24.8795L76.9957 24.899C76.8255 25.26 76.6556 25.6205 76.4852 25.9808C76.4517 25.9675 76.4181 25.9538 76.3845 25.9401L76.3333 25.9192ZM73.1212 22.9061L73.1868 22.8142C73.327 22.6181 73.4382 22.4626 73.5488 22.307L73.3976 22.2027C72.8787 22.307 72.8749 22.3139 73.1212 22.9061ZM75.7234 20.1146L75.9009 20.6808C75.2317 20.436 75.1068 20.0916 75.4638 19.2864C75.5597 19.5928 75.6429 19.858 75.7234 20.1146ZM64.4408 27.3264L64.5625 28.0775L64.6704 28.7432C65.3199 28.4538 65.4084 28.3216 65.2809 27.9596C65.1458 27.5746 64.7511 27.2551 64.4408 27.3264ZM76.3654 14.1219C76.8173 14.6867 76.7516 15.1821 76.4271 15.781C76.3458 15.7215 76.2626 15.6611 76.1685 15.5929L75.9822 15.4576C75.912 15.5581 75.8432 15.6562 75.791 15.7307L75.7389 15.8049C75.927 16.1148 76.0861 16.3773 76.2448 16.6398L76.1653 16.7033L76.0535 16.7925C75.984 16.7172 75.904 16.645 75.824 16.5729C75.6443 16.4108 75.4645 16.2487 75.4051 16.0506C75.29 15.6681 75.1363 15.1446 75.6502 15.0239C75.9381 14.3401 75.6208 13.8851 75.3051 13.4324C75.2021 13.2847 75.0993 13.1373 75.0178 12.9823C75.6024 13.1521 75.9174 13.5528 76.2463 13.9712C76.2856 14.0213 76.3252 14.0716 76.3654 14.1219ZM73.9092 11.8736L74.831 13.1847C75.2273 12.0699 74.9107 11.7034 73.9092 11.8736ZM73.1254 29.7529L72.6932 29.661C72.6112 29.574 72.5281 29.488 72.4449 29.4019C72.2347 29.1844 72.0246 28.967 71.8334 28.7337C71.7525 28.6355 71.7046 28.5104 71.6565 28.3849C71.6296 28.3148 71.6027 28.2447 71.57 28.1789C71.5442 28.1272 71.521 28.071 71.4977 28.0145C71.4374 27.8683 71.3762 27.7201 71.2668 27.6433C70.7869 27.307 70.6675 26.8608 70.6961 26.3109C70.7351 25.5513 70.3867 24.9299 70.0485 24.3267C69.9871 24.2172 69.926 24.1083 69.8677 23.9992C69.5824 24.1847 69.3283 24.3495 68.9618 24.5873C68.9584 23.811 68.5444 23.3538 68.1581 22.927C67.9205 22.6646 67.6934 22.4138 67.5785 22.1074C67.4681 22.1414 67.3608 22.174 67.2558 22.2058C66.9854 22.2878 66.7306 22.3651 66.479 22.4509C66.3853 22.4837 66.2818 22.549 66.2295 22.6296C65.9242 23.0984 65.6254 23.571 65.3265 24.0437C65.2187 24.2142 65.111 24.3847 65.0028 24.5551C64.9989 24.561 64.9949 24.5677 64.9907 24.5746C64.9746 24.6015 64.9564 24.6317 64.937 24.6334C64.2504 24.6996 64.3469 25.1658 64.4271 25.5535C64.4379 25.6058 64.4484 25.6567 64.4567 25.705C64.5869 26.4665 64.3357 27.1083 63.991 27.7395C63.9478 27.8174 63.7669 27.9017 63.7037 27.8711C63.5466 27.7949 63.3669 27.6815 63.2915 27.5347L63.2737 27.4999C62.8667 26.7046 62.4585 25.9069 62.111 25.0852C61.9263 24.6498 61.7917 24.193 61.6572 23.7365C61.6083 23.5707 61.5595 23.4049 61.5083 23.2402C61.4671 23.1076 61.4371 22.9715 61.4065 22.8325C61.392 22.7667 61.3774 22.7003 61.3613 22.6334L61.1927 22.8893C61.1114 23.0126 61.0304 23.1356 60.943 23.2687L60.1368 22.5315C60.1995 22.5075 60.2553 22.4863 60.3066 22.4669L60.4367 22.4174C60.3886 22.3888 60.3359 22.3638 60.2834 22.3389C60.1686 22.2844 60.0546 22.2303 59.9909 22.1402C59.5014 21.446 58.8235 21.3723 58.0431 21.387C57.562 21.3958 57.0763 21.283 56.5959 21.1714C56.4896 21.1467 56.3836 21.1221 56.278 21.0988C56.1737 21.0761 56.0837 20.9879 55.9895 20.8957C55.9448 20.852 55.8992 20.8073 55.8507 20.7683C55.0835 21.038 54.2975 20.6941 53.9062 19.9178C53.8389 19.7846 53.7407 19.6667 53.6277 19.5309C53.5706 19.4623 53.5098 19.3892 53.4472 19.3073C53.1625 19.9996 53.1959 20.1326 53.804 21.0971L53.8643 21.0545C53.9471 20.9959 54.0362 20.933 54.1609 20.8451C54.1666 20.9071 54.1703 20.9614 54.1736 21.0105C54.1802 21.1076 54.1854 21.1841 54.2023 21.2582C54.2119 21.3004 54.2206 21.3496 54.2297 21.4004C54.2579 21.5592 54.2887 21.7327 54.3547 21.7493C54.5717 21.8038 54.8514 21.7949 55.0466 21.6956C55.2246 21.6052 55.37 21.4508 55.4801 21.3338C55.5192 21.2923 55.5539 21.2555 55.5839 21.228C55.6964 21.3113 55.8031 21.3933 55.9068 21.4729C56.1296 21.6441 56.3386 21.8046 56.5606 21.9443C57.0502 22.2525 57.0824 22.4211 56.8613 22.966C56.6016 23.6075 56.1292 23.946 55.5526 24.31C54.2626 25.1245 52.8663 25.5959 51.4198 25.9806C50.6458 23.6592 49.7387 21.4092 48.4216 19.3411C48.5054 19.6417 48.5513 19.9517 48.5972 20.2613C48.6925 20.9043 48.7874 21.5452 49.2211 22.0953C49.3144 22.2136 49.3148 22.3999 49.3151 22.5914C49.3154 22.7171 49.3156 22.845 49.3421 22.9575C49.3824 23.1267 49.4626 23.2868 49.5425 23.4462C49.5707 23.5026 49.5989 23.5589 49.6253 23.6155C49.6754 23.7227 49.7319 23.827 49.7885 23.9313C49.8056 23.9629 49.8227 23.9945 49.8397 24.0262C49.9099 24.1575 49.9777 24.2904 50.0455 24.4233C50.2047 24.7353 50.3639 25.0474 50.5542 25.3388C50.6932 25.552 50.8544 25.7505 51.0156 25.9489C51.1759 26.1462 51.3363 26.3436 51.4748 26.5555C51.6283 26.7908 51.7712 26.8511 52.0326 26.7962C52.4864 26.7009 52.9428 26.6185 53.4155 26.5331C53.6044 26.499 53.7959 26.4644 53.9909 26.4283C53.9909 26.5042 53.997 26.5778 54.0028 26.6481C54.0146 26.7915 54.0253 26.9212 53.9811 27.0281C53.9318 27.1474 53.884 27.2677 53.8361 27.3881C53.56 28.0831 53.2828 28.7808 52.7031 29.3063C52.5296 29.4637 52.3539 29.6191 52.1782 29.7745C51.7323 30.169 51.2863 30.5635 50.875 30.9913L50.7843 31.0853C50.3849 31.4988 49.9529 31.946 49.7894 32.4571C49.6555 32.8769 49.6793 33.3474 49.7031 33.8178C49.7134 34.0227 49.7238 34.2277 49.7211 34.4283C50.2055 34.7235 50.1822 35.1562 50.159 35.5889C50.1473 35.8054 50.1357 36.0219 50.1877 36.2211C50.222 36.3532 50.0595 36.5696 49.938 36.7005C49.7723 36.8796 49.5674 37.028 49.3626 37.1647C48.6653 37.6307 48.082 38.1377 48.6138 39.081L48.5196 39.1332C48.288 39.2614 48.1104 39.3598 48.0079 39.4168C47.9811 39.5404 47.9672 39.6675 47.9541 39.7876C47.9278 40.0282 47.9046 40.2407 47.7867 40.3399C47.638 40.4647 47.5041 40.614 47.3696 40.7639C47.0042 41.1713 46.6352 41.5827 45.9561 41.5167C45.8283 41.5044 45.6974 41.5046 45.5668 41.5048C45.1529 41.5054 44.7429 41.506 44.4484 41.1062C44.3806 41.0144 44.3372 40.9027 44.2941 40.7917C44.2434 40.6612 44.1931 40.5318 44.1042 40.4373C43.3966 39.6862 42.9326 38.7875 42.4686 37.8888C42.1724 37.3151 41.8763 36.7416 41.5168 36.2064C41.0934 35.5766 40.9937 34.8871 41.317 34.1439C41.4256 33.8952 41.4234 33.5384 41.3371 33.2749C41.1151 32.5978 40.8746 31.9265 40.6341 31.2552C40.4495 30.74 40.2649 30.2247 40.0887 29.7068C40.0163 29.4937 40.0246 29.2408 40.0464 29.0114C40.0608 28.8563 40.0909 28.7006 40.1209 28.5455C40.1717 28.2823 40.2223 28.0206 40.1959 27.7658C40.1759 27.5749 40.006 27.3948 39.8422 27.2211C39.7902 27.166 39.7387 27.1115 39.6929 27.0575C39.6344 26.9883 39.5607 26.9282 39.4876 26.8685C39.378 26.7792 39.2699 26.6909 39.2164 26.5752C38.9511 26.0018 38.6657 25.8396 38.1065 26.1075C37.7811 26.2636 37.5599 26.2686 37.2819 26.0018C37.1817 25.9062 37.0229 25.8718 36.8203 25.828C36.7147 25.8052 36.5973 25.7798 36.4702 25.7418C36.0569 25.1843 35.9612 24.4376 35.8619 23.6621C35.8316 23.4256 35.801 23.1865 35.7609 22.9492C35.6436 22.2597 35.6946 21.6239 35.904 20.9759C35.9826 20.7324 36.0518 20.4846 36.121 20.2369C36.2613 19.7347 36.4016 19.2328 36.6197 18.7674C36.987 17.9848 37.5198 17.2966 38.3097 16.8424C38.5021 16.7319 38.6568 16.5551 38.8114 16.3784C38.8798 16.3002 38.9482 16.222 39.0199 16.1496C39.1216 16.0469 39.2223 15.9433 39.3231 15.8397C39.5302 15.6266 39.7373 15.4136 39.9525 15.2094C40.0898 15.0794 40.2395 14.9629 40.3899 14.8457C40.4575 14.7931 40.5252 14.7404 40.592 14.6862C40.5975 14.6257 40.6231 14.5622 40.6487 14.4985C40.7157 14.3318 40.7832 14.1638 40.4933 14.0447C40.4769 14.038 40.5025 13.8459 40.5544 13.773L40.71 13.5543C41.0452 13.0827 41.3806 12.6107 41.7509 12.1679C41.8415 12.0601 42.1173 12.076 42.3042 12.0891C42.3994 12.096 42.5184 12.1326 42.6287 12.1665C42.7784 12.2125 42.9118 12.2535 42.947 12.2085C43.2058 11.878 43.4824 11.4944 43.5463 11.0972C43.5528 11.0565 43.5579 11.0187 43.5626 10.9837C43.5951 10.7421 43.6092 10.6366 43.9534 10.6471C44.2603 10.6565 44.5715 10.512 44.8848 10.3432C44.616 10.2789 44.3475 10.2147 44.0844 10.1516L44.3331 9.86542C44.4388 9.7437 44.5522 9.61304 44.6793 9.46707L44.1023 9.60285L43.744 9.68713C43.7261 9.649 43.7083 9.61072 43.6906 9.57242L43.649 9.48287L44.0007 9.27106C44.3485 9.06148 44.6962 8.85189 45.046 8.6454C45.0983 8.61429 45.1596 8.59014 45.2205 8.56621C45.3293 8.52336 45.4363 8.48125 45.4858 8.40132C45.6847 8.08224 45.9205 7.91069 46.2963 7.99915L45.2308 10.1104C45.3528 10.0777 45.4763 10.0459 45.6005 10.0141C45.9437 9.92595 46.2926 9.83637 46.632 9.71864C46.6992 9.69513 46.741 9.60911 46.7847 9.51918C46.8159 9.45485 46.8482 9.38852 46.8913 9.34164C47.0292 9.19177 47.1775 9.05149 47.3257 8.91122C47.3878 8.8525 47.4498 8.79378 47.5111 8.73436C47.5358 8.75676 47.5604 8.7793 47.5849 8.8018L47.6271 8.8405C47.589 8.95664 47.5509 9.0724 47.5123 9.18807L47.5361 9.20079C47.5722 9.22004 47.6079 9.23913 47.6439 9.2577C47.7738 9.02751 47.904 8.79642 48.0865 8.4718L48.083 8.4725C47.8029 8.52787 47.6382 8.56044 47.4747 8.59301C47.3579 8.18748 47.742 7.52228 48.2873 7.39447C48.9535 7.23845 49.4839 6.89188 50.0302 6.53494C50.1328 6.46784 50.2361 6.40037 50.3409 6.33374C50.8029 6.03979 51.5694 6.00044 52.1205 6.14626C52.413 6.22377 52.6471 6.5223 52.8815 6.82121C52.9874 6.95622 53.0933 7.0913 53.2047 7.20614L53.2212 7.22332C53.2701 7.2745 53.3292 7.33633 53.3803 7.3348C53.4384 7.33241 53.503 7.25273 53.5473 7.19391C53.6023 7.12156 53.6506 7.04469 53.6989 6.96775C53.7198 6.93454 53.7407 6.90132 53.7621 6.86845C53.7953 6.88404 53.8281 6.89986 53.8611 6.91577L53.8849 6.92722C53.8681 7.04506 53.8509 7.16291 53.8438 7.21108C53.9749 7.19124 54.1056 7.17333 54.2357 7.15551C54.5448 7.11314 54.8507 7.07123 55.1513 7.00486C55.2675 6.97937 55.3742 6.90937 55.512 6.81891C55.5849 6.77106 55.6665 6.71749 55.7628 6.66176C55.8802 6.71907 56.0504 6.80179 56.2432 6.89543L56.647 7.09166C56.3739 6.5624 56.5405 6.23646 57.0623 6.25661L57.1587 6.59876L57.3849 7.40158C57.4137 7.39482 57.4424 7.38843 57.471 7.38205L57.5297 7.36887C57.5181 7.32424 57.5059 7.27968 57.4936 7.23512C57.4679 7.14151 57.4421 7.04783 57.4225 6.9532C57.3867 6.78093 57.3556 6.6078 57.3348 6.49173C57.3266 6.44617 57.32 6.4094 57.3153 6.38493C57.4562 6.34288 57.5832 6.30737 57.7004 6.27461C57.9348 6.20912 58.1297 6.15463 58.317 6.08084C58.6044 5.96745 58.8833 5.83198 59.1621 5.69658C59.2246 5.66619 59.2872 5.63581 59.3499 5.60568C59.3966 5.58323 59.4373 5.54836 59.493 5.50063C59.5245 5.47366 59.5608 5.44257 59.6057 5.4073C59.1391 5.26641 58.7342 5.14435 58.3296 5.02267L58.3238 4.89231C58.3637 4.88218 58.4064 4.86593 58.4491 4.84966C58.5424 4.81409 58.636 4.77842 58.7023 4.80632C58.8709 4.87819 59.0325 4.96636 59.1941 5.05449C59.3702 5.15054 59.5461 5.24654 59.7309 5.32135C59.9138 5.3956 60.1137 5.42861 60.3133 5.46156C60.3912 5.47442 60.4691 5.48727 60.5459 5.50257L60.5505 5.50349C60.8066 5.55435 61.0574 5.60416 60.8717 6.03894C61.0448 6.02093 61.2151 6.00142 61.3833 5.98213C61.806 5.93368 62.216 5.88668 62.6273 5.86871C62.8401 5.85942 63.0725 5.95589 63.2719 6.05282C63.6723 6.24745 63.9751 6.18272 64.3357 5.90218C64.5019 5.77219 64.8095 5.79716 65.0777 5.81894C65.1182 5.82222 65.1578 5.82544 65.1958 5.82803C66.1574 5.89311 67.0842 5.85061 68.0363 5.57633C68.5971 5.41472 69.2166 5.44029 69.8266 5.46547C69.9826 5.47191 70.1379 5.47832 70.2915 5.48157C70.5281 5.48626 70.7608 5.66939 70.9779 5.88127L70.7005 5.90858C70.5917 5.91924 70.4829 5.92989 70.374 5.94081L70.3422 6.0771C70.6604 6.18187 70.9782 6.28642 71.2609 6.37901C71.3276 6.61892 71.3887 6.83995 71.4637 7.11172C71.4262 7.17113 71.3735 7.25526 71.3022 7.36882L71.1874 7.552C72.2304 7.94012 73.1825 8.48279 73.7088 9.59927C73.5938 9.53861 73.4801 9.47519 73.3663 9.41179C73.1141 9.27126 72.8621 9.13077 72.5974 9.02039C71.8067 8.68982 71.2052 8.13714 70.7236 7.45396C70.5647 7.22818 70.3883 7.29449 70.2087 7.36202C70.0694 7.41442 69.9281 7.46755 69.7915 7.38565L70.1495 7.76191L70.4196 8.04574C69.9108 8.12159 69.4925 8.18445 68.9818 8.26124C69.0572 8.41931 69.1188 8.58269 69.1781 8.74002C69.3072 9.08246 69.4255 9.39625 69.652 9.56434C69.8682 9.72495 70.1977 9.73197 70.547 9.73941C70.7058 9.74279 70.8687 9.74626 71.0268 9.7643L70.9825 9.68044C70.946 9.61156 70.9153 9.55348 70.8732 9.47299C72.0144 9.95697 72.9546 10.6556 73.6976 11.6667C73.6384 11.6279 73.5786 11.5899 73.5188 11.5519C73.3854 11.467 73.2519 11.3822 73.1246 11.2889C72.9768 11.1809 72.8338 11.0662 72.6603 10.9272C72.5765 10.8599 72.4855 10.787 72.3834 10.7063C72.7888 11.4986 73.1276 12.1608 73.4914 12.8728C73.0281 13.0181 73.0782 13.214 73.1674 13.5633C73.1792 13.6094 73.1917 13.6583 73.2038 13.7101C73.3391 14.2907 73.7092 14.5238 74.092 14.7649C74.1924 14.8281 74.2937 14.8919 74.3919 14.9627C74.9109 15.3365 74.9317 15.6547 74.4552 16.0477C74.3933 15.9651 74.3318 15.8822 74.2704 15.7994C74.0986 15.568 73.9269 15.3366 73.7474 15.1112C73.7008 15.0541 73.597 15.0126 73.5207 15.0143C73.2403 15.0205 73.0824 14.9385 72.8989 14.6703C72.6741 14.3407 72.5697 14.4983 72.4464 14.6843C72.3798 14.7849 72.3076 14.8938 72.2079 14.9385C72.1517 14.8212 72.0957 14.7046 72.036 14.5805L72.0348 14.578C71.9726 14.4485 71.9064 14.3109 71.8322 14.1561C71.3912 14.9942 71.4029 15.029 72.0584 15.406L72.5023 15.2986C72.6485 15.2632 72.7824 15.2308 72.9236 15.1968C72.9068 15.3138 72.8832 15.4212 72.8615 15.5197C72.8171 15.7214 72.7808 15.8863 72.8278 16.0221C72.8737 16.1555 73.0009 16.2591 73.1298 16.3639C73.1986 16.4198 73.2677 16.4761 73.3253 16.5375C73.4302 16.6495 73.5583 16.7417 73.6863 16.8339C73.9683 17.0368 74.2503 17.2398 74.286 17.6548C75.1715 18.2868 74.9293 19.0837 74.6983 19.8434C74.66 19.9694 74.6221 20.0943 74.5896 20.2173C74.5256 20.4594 74.3072 20.6601 74.0885 20.8613C73.9867 20.9548 73.8849 21.0484 73.7985 21.1463C73.6553 21.309 73.5137 21.473 73.3921 21.6137C73.3374 21.6771 73.2868 21.7357 73.2419 21.7874C73.1841 21.77 73.1193 21.7416 73.0522 21.7122C72.8949 21.6433 72.7249 21.5688 72.6037 21.6167C72.3369 21.7228 72.2351 22.5893 72.388 22.7788C72.5011 22.9187 72.6156 23.0577 72.73 23.1967C73.0699 23.6095 73.41 24.0224 73.7151 24.4598C74.0159 24.8914 73.9673 25.3514 73.6138 25.7741C73.4491 25.9706 73.3003 26.1798 73.1263 26.4244C73.0428 26.5419 72.9534 26.6675 72.8537 26.8038C72.7514 26.0779 72.3042 25.8144 71.8472 25.5452C71.6001 25.3996 71.3501 25.2523 71.1504 25.0294C71.1347 25.1981 71.1081 25.3576 71.083 25.5081C71.0305 25.8228 70.9845 26.0979 71.0591 26.3358C71.1856 26.7404 71.4783 27.1607 71.8175 27.4148C71.8666 27.4516 71.9157 27.4873 71.9643 27.5225C72.3471 27.8003 72.6941 28.0522 72.6716 28.6193C72.668 28.7058 72.7202 28.7933 72.7732 28.8819C72.8029 28.9316 72.8328 28.9816 72.8532 29.032C72.9113 29.1747 72.9648 29.3195 73.0287 29.4924C73.0582 29.5724 73.09 29.6583 73.1254 29.7529ZM54.7425 16.5418C54.7324 16.6443 54.7222 16.7469 54.7237 16.836C54.6479 16.8356 54.5679 16.8433 54.4879 16.851C54.3131 16.8679 54.1381 16.8847 54.0071 16.8172C53.2626 16.4313 53.2666 16.3763 53.6982 15.6563L53.5373 15.2779C53.3846 14.9185 53.2407 14.5798 53.0953 14.2416C53.0893 14.227 53.0765 14.2146 53.0638 14.2024C53.0496 14.1887 53.0357 14.1753 53.0317 14.159C52.9807 13.9389 53.6022 13.4393 54.0696 13.3522C54.3418 13.3009 54.6194 13.3026 54.5985 13.7011L53.7056 14.0521C53.9824 14.3651 54.2296 14.6442 54.4699 14.9155L54.931 15.4361C54.9004 15.4435 54.8698 15.4506 54.8398 15.4576C54.496 15.5375 54.2175 15.6022 54.6889 16.0111C54.7867 16.0958 54.7647 16.3187 54.7425 16.5418ZM50.9122 15.1187C50.6429 15.0896 50.3045 15.0226 50.1399 14.8417C49.8358 14.5095 49.5229 14.5523 49.1778 14.5995C49.1279 14.6063 49.0773 14.6132 49.026 14.6191C48.8591 14.6379 48.6846 14.5889 48.5102 14.5399C48.4317 14.5178 48.3532 14.4958 48.2754 14.4799C48.3032 14.4144 48.3278 14.3463 48.3524 14.2782C48.4077 14.1249 48.4631 13.9716 48.5556 13.8461C48.7215 13.6219 48.9109 13.4151 49.1003 13.2083C49.1797 13.1217 49.2591 13.035 49.3367 12.9471C49.3998 12.9449 49.4631 12.9427 49.5271 12.9402C49.5318 12.9807 49.5346 13.0218 49.5374 13.0629C49.5438 13.1571 49.5502 13.2514 49.5799 13.3379C49.6173 13.4481 49.6729 13.5519 49.7324 13.6628C49.7588 13.7122 49.7861 13.763 49.8127 13.8164C49.9178 13.7726 50.0234 13.7284 50.1443 13.6778L50.1461 13.6771L50.5449 13.5103L50.3614 13.4394L50.3591 13.4385C50.2761 13.4064 50.2028 13.3781 50.1294 13.3496C50.145 13.3086 50.1604 13.2672 50.1757 13.226L50.1964 13.1702L50.9838 12.9558L50.8935 13.1604L50.8928 13.1622C50.8158 13.3367 50.7646 13.4529 50.7162 13.5623C50.7819 13.6516 50.8502 13.7396 50.9184 13.8275C51.0705 14.0236 51.2227 14.2197 51.3473 14.4317C51.5855 14.8368 51.3791 15.1698 50.9122 15.1187ZM48.3364 18.4326L48.3111 18.428C48.2535 18.4176 48.1927 18.3797 48.1349 18.3438C48.0626 18.2988 47.9951 18.2567 47.9446 18.2749C47.1609 18.5549 46.676 18.1213 46.193 17.6894C46.0996 17.6058 46.0063 17.5224 45.9108 17.4441C45.6897 17.2625 45.1282 17.3607 44.9928 17.6211C44.9312 17.7393 44.8612 17.8532 44.7911 17.9673C44.7607 18.0167 44.7303 18.0662 44.7006 18.116C44.627 18.0592 44.5346 18.003 44.4423 17.9469C44.2411 17.8246 44.0402 17.7025 44.0358 17.5736C44.0228 17.1943 43.8058 17.0401 43.5842 16.8826C43.5153 16.8337 43.4459 16.7843 43.382 16.7278C43.3079 16.662 43.2464 16.5815 43.195 16.5143C43.1744 16.4874 43.1555 16.4627 43.138 16.4418C43.1896 16.3465 43.2419 16.2536 43.2935 16.1621C43.4286 15.9226 43.5586 15.6918 43.6564 15.4481C43.6921 15.3603 43.5501 15.0918 43.4692 15.0821C43.2779 15.0599 43.0873 15.0246 42.8967 14.9894C42.3529 14.8888 41.8079 14.788 41.2395 14.9885C41.1335 15.0257 40.9779 14.9211 40.8211 14.8158C40.7524 14.7697 40.6835 14.7234 40.6185 14.6888C40.678 14.6739 40.7383 14.6609 40.7986 14.6478C40.9574 14.6135 41.1161 14.5791 41.2588 14.5113C41.5486 14.3725 41.8217 14.1938 42.0863 14.0097C42.359 13.8192 42.6226 13.6157 42.8859 13.4124C42.9497 13.3632 43.0134 13.314 43.0773 13.265C43.1319 13.2229 43.1835 13.1768 43.2351 13.1308C43.2854 13.0858 43.3358 13.0409 43.3891 12.9995C43.4814 12.9281 43.6569 12.7994 43.6702 12.8137C43.9389 13.1005 44.1938 12.972 44.4003 12.8679C44.4623 12.8367 44.5199 12.8077 44.5723 12.7927C44.6293 12.9756 44.686 13.155 44.742 13.3322C44.8683 13.732 44.991 14.1205 45.1051 14.5113C45.1918 14.8086 45.0774 14.9928 44.7503 15.0029C44.6385 15.0061 44.5266 15.0055 44.3787 15.0047C44.2999 15.0042 44.2109 15.0038 44.1062 15.0038C44.2237 15.2 44.3118 15.3469 44.3967 15.4884L44.3978 15.4901L44.5205 15.6945L45.0138 15.2126L45.6306 14.61L45.6386 14.6129L45.9343 14.7199C45.8629 14.5741 45.7897 14.4416 45.7209 14.3169C45.5758 14.0541 45.4501 13.8265 45.402 13.5838C45.3566 13.3547 45.3957 13.109 45.4373 12.8471C45.4564 12.7268 45.4761 12.6032 45.4884 12.4761C45.5611 12.6269 45.6311 12.7662 45.6974 12.8982C45.8491 13.2001 45.9815 13.4636 46.0829 13.7381C46.1251 13.8522 46.11 13.9865 46.0949 14.1218C46.0868 14.1935 46.0787 14.2654 46.0791 14.3348L46.0806 14.5655C46.0832 15.0125 46.0858 15.4597 46.1101 15.9056C46.1134 15.9696 46.1902 16.0293 46.2478 16.0741C46.2695 16.091 46.2884 16.1057 46.2997 16.1177L46.4617 15.9751C46.6107 15.8438 46.7558 15.716 46.9301 15.5629C46.9301 15.514 46.9262 15.4562 46.9219 15.3926C46.909 15.2024 46.8926 14.9608 46.9673 14.7518C46.9877 14.694 47.21 14.7083 47.4493 14.7236C47.5644 14.731 47.6833 14.7386 47.7857 14.7386C47.3427 15.2056 47.3342 15.4455 47.5289 16.3274C47.5898 16.3504 47.6447 16.3749 47.6955 16.3977C47.7992 16.444 47.8864 16.483 47.9755 16.4872C48.0758 16.4915 48.1776 16.4642 48.2983 16.4318C48.3565 16.4162 48.4191 16.3994 48.488 16.3844C48.6797 16.8302 49.0915 16.7248 49.5254 16.6138C49.5654 16.6036 49.6057 16.5933 49.646 16.5833C49.6442 17.2544 49.3203 17.7263 49.0051 18.1855C48.9474 18.2696 48.89 18.3532 48.8349 18.4375C48.7855 18.5136 48.514 18.4646 48.3364 18.4326ZM47.0407 30.8459C47.0635 30.7255 47.0868 30.6032 47.0484 30.5022L47.1253 30.4104L47.1903 30.3328L47.8478 30.716C47.7902 30.7854 47.7287 30.8753 47.6672 30.9653C47.532 31.163 47.3964 31.3612 47.3008 31.3436C46.9581 31.2803 46.9988 31.0665 47.0407 30.8459ZM47.2577 9.38555C47.8127 9.74956 48.1737 9.41247 48.5435 9.06554C48.6035 9.00945 48.6643 8.95541 48.7249 8.90163C48.9912 8.66506 49.2517 8.43364 49.4054 8.05613C49.5014 7.81931 49.8651 7.69117 50.188 7.57744C50.2341 7.56119 50.2794 7.54524 50.3229 7.5293L50.1849 7.75338L50.1836 7.75558C50.0349 7.99689 49.878 8.25168 49.6869 8.56269C49.9514 8.57701 50.1535 8.58779 50.332 8.59731L50.6417 8.61388C50.6455 8.64876 50.6492 8.68304 50.6525 8.71797C50.2479 8.76614 49.8437 8.81392 49.4438 8.8609C49.4757 8.95536 49.5013 9.03055 49.5235 9.0959C49.5465 9.16343 49.5659 9.22045 49.585 9.27738C49.5518 9.27382 49.5172 9.26657 49.4825 9.25932C49.4055 9.24322 49.3284 9.22708 49.2672 9.25131C49.1173 9.31047 48.9325 9.39352 48.8626 9.52103C48.6817 9.85276 48.5284 10.0499 48.0924 9.8482C47.8923 9.75525 47.6571 9.73868 47.4219 9.72211C47.3164 9.71467 47.211 9.70724 47.1087 9.69292L46.9311 9.48577C46.9666 9.47411 47.0065 9.45555 47.0464 9.43701C47.1313 9.39753 47.2161 9.35811 47.2577 9.38555ZM52.9788 35.9184C52.6208 36.5197 52.5112 36.7038 51.5087 36.6418C51.5087 36.7599 51.5108 36.8754 51.5128 36.9891C51.5174 37.2511 51.5218 37.503 51.5007 37.7529C51.4815 37.9818 51.4542 38.2761 51.3094 38.4142C51.0513 38.659 51.0523 38.8314 51.2583 39.0823C51.2973 39.1301 51.3183 39.1955 51.339 39.26C51.3634 39.3359 51.3873 39.4104 51.4396 39.4526L51.4845 39.4889C51.6868 39.6532 51.9071 39.832 52.1445 39.8808C52.4447 39.9416 52.6663 39.7876 52.7697 39.4148C53.0077 38.5593 53.281 37.7092 53.617 36.888C53.81 36.4157 53.6752 35.7786 53.199 35.5582C53.1136 35.692 53.0423 35.8118 52.9788 35.9184ZM46.3559 6.44737L47.5641 6.04315C46.7566 5.63511 46.5523 5.70925 46.3559 6.44737ZM52.9396 4.676L53.5067 4.52638C52.6093 4.01765 52.1184 4.16118 52.0874 4.90099C52.3767 4.82447 52.6491 4.75263 52.9396 4.676ZM55.0534 5.8797C55.4663 5.43809 55.9869 5.30734 56.6378 5.44435C56.5007 5.57738 56.3039 5.64097 56.1083 5.70416C55.7087 5.83327 55.3142 5.96072 55.4446 6.67526C55.1711 6.57965 54.9576 6.50554 54.744 6.43165C54.7758 6.37313 54.8044 6.31169 54.833 6.25029C54.8954 6.11626 54.9578 5.98245 55.0534 5.8797ZM73.5653 5.12868L75.3894 7.03116L77.1134 8.82925C76.5862 7.49277 75.5554 6.69669 74.5328 5.90683C74.2038 5.65273 73.8756 5.39927 73.5653 5.12868ZM80.3061 14.6657C80.3833 14.7618 80.4584 14.8553 80.5373 14.9535C79.9446 14.9322 79.8522 14.8269 79.8379 14.083C80.0229 14.3129 80.1678 14.4933 80.3061 14.6657Z" fill="url(#paint0_linear_15_4612)"/>
<path fill-rule="evenodd" clip-rule="evenodd" d="M16.1385 105.61C15.8587 105.835 15.5205 105.947 15.1238 105.947C14.8775 105.947 14.6635 105.908 14.4811 105.831C14.2987 105.753 14.1337 105.642 13.9869 105.5C13.8798 105.392 13.7977 105.282 13.7398 105.166C13.6828 105.051 13.6412 104.925 13.6148 104.787C13.5892 104.651 13.5736 104.501 13.5675 104.338C13.5616 104.175 13.5586 103.992 13.5586 103.789C13.5586 103.587 13.5616 103.404 13.5675 103.241C13.5736 103.079 13.5892 102.928 13.6148 102.791C13.6412 102.654 13.6828 102.528 13.7398 102.413C13.7977 102.298 13.8798 102.186 13.9869 102.079C14.1337 101.936 14.2987 101.826 14.4811 101.749C14.6635 101.671 14.8775 101.632 15.1238 101.632C15.5205 101.632 15.8587 101.745 16.1385 101.969C16.418 102.194 16.5973 102.528 16.6769 102.973H15.8318C15.7884 102.798 15.7107 102.654 15.5996 102.541C15.4886 102.427 15.3301 102.371 15.1238 102.371C15.0089 102.371 14.9068 102.391 14.8176 102.431C14.7282 102.471 14.6537 102.524 14.5938 102.591C14.5543 102.636 14.5215 102.685 14.4961 102.741C14.47 102.796 14.4492 102.868 14.4335 102.955C14.4173 103.043 14.4059 103.153 14.3978 103.286C14.3901 103.419 14.3859 103.587 14.3859 103.789C14.3859 103.992 14.3901 104.16 14.3978 104.293C14.4059 104.427 14.4173 104.536 14.4335 104.624C14.4492 104.711 14.47 104.783 14.4961 104.838C14.5215 104.894 14.5543 104.944 14.5938 104.987C14.6537 105.055 14.7282 105.108 14.8176 105.148C14.9068 105.188 15.0089 105.208 15.1238 105.208C15.3301 105.208 15.4899 105.151 15.6026 105.038C15.7157 104.925 15.7939 104.781 15.8378 104.606H16.6769C16.5973 105.051 16.418 105.386 16.1385 105.61Z" fill="#103F8C"/>
<path fill-rule="evenodd" clip-rule="evenodd" d="M19.5376 103.286C19.5294 103.153 19.5176 103.043 19.5018 102.955C19.4861 102.868 19.4648 102.797 19.4393 102.744C19.4133 102.69 19.3807 102.641 19.3411 102.598C19.2816 102.53 19.207 102.476 19.1182 102.434C19.0288 102.391 18.9264 102.371 18.8116 102.371C18.6964 102.371 18.5943 102.391 18.5049 102.434C18.4156 102.476 18.3395 102.53 18.2757 102.598C18.2362 102.641 18.2034 102.69 18.1779 102.744C18.1519 102.797 18.1307 102.868 18.1149 102.955C18.0993 103.043 18.0885 103.153 18.0821 103.286C18.0762 103.419 18.0737 103.587 18.0737 103.789C18.0737 103.992 18.0763 104.16 18.0821 104.293C18.0885 104.426 18.0993 104.535 18.1149 104.621C18.1307 104.706 18.1519 104.776 18.1779 104.829C18.2034 104.883 18.2362 104.932 18.2757 104.975C18.3395 105.043 18.4156 105.098 18.5049 105.142C18.5943 105.186 18.6964 105.208 18.8116 105.208C18.9264 105.208 19.0288 105.186 19.1182 105.142C19.207 105.098 19.2816 105.043 19.3411 104.975C19.3807 104.932 19.4133 104.883 19.4393 104.829C19.4648 104.776 19.4861 104.706 19.5018 104.621C19.5176 104.535 19.5294 104.426 19.5376 104.293C19.5457 104.16 19.5491 103.992 19.5491 103.789C19.5491 103.587 19.5457 103.419 19.5376 103.286ZM20.3673 104.338C20.3614 104.501 20.3448 104.65 20.3171 104.787C20.2895 104.925 20.2465 105.051 20.1891 105.166C20.1312 105.282 20.0491 105.392 19.942 105.5C19.7991 105.642 19.6362 105.753 19.4542 105.831C19.2718 105.908 19.0574 105.947 18.8116 105.947C18.5653 105.947 18.3501 105.908 18.1656 105.831C17.9813 105.753 17.8176 105.642 17.6748 105.5C17.5676 105.392 17.4855 105.282 17.4277 105.166C17.3702 105.051 17.329 104.925 17.3026 104.787C17.2771 104.65 17.2609 104.501 17.2554 104.338C17.2495 104.175 17.2461 103.992 17.2461 103.789C17.2461 103.587 17.2495 103.404 17.2554 103.241C17.2609 103.078 17.2771 102.928 17.3026 102.791C17.329 102.654 17.3702 102.528 17.4277 102.413C17.4855 102.298 17.5676 102.186 17.6748 102.079C17.8176 101.936 17.9813 101.826 18.1656 101.749C18.3501 101.671 18.5653 101.632 18.8116 101.632C19.0574 101.632 19.2718 101.671 19.4542 101.749C19.6362 101.826 19.7991 101.936 19.942 102.079C20.0491 102.186 20.1312 102.298 20.1891 102.413C20.2465 102.528 20.2895 102.654 20.3171 102.791C20.3448 102.928 20.3614 103.078 20.3673 103.241C20.3737 103.404 20.3767 103.587 20.3767 103.789C20.3767 103.992 20.3737 104.175 20.3673 104.338Z" fill="#103F8C"/>
<path fill-rule="evenodd" clip-rule="evenodd" d="M22.3265 102.407V103.021C22.3265 103.442 22.3006 103.831 22.2491 104.189C22.1976 104.546 22.0985 104.874 21.9514 105.172H23.2609V102.407H22.3265ZM23.7785 105.912H21.4283V106.853H20.6309V105.172H21.0294C21.2076 104.898 21.3368 104.55 21.4159 104.126C21.4955 103.703 21.535 103.245 21.535 102.753V101.668H24.088V105.172H24.5759V106.853H23.7785V105.912Z" fill="#103F8C"/>
<path fill-rule="evenodd" clip-rule="evenodd" d="M25.2344 101.668H28.0252V102.406H26.0617V103.402H27.7339V104.141H26.0617V105.172H28.0252V105.911H25.2344V101.668Z" fill="#103F8C"/>
<path fill-rule="evenodd" clip-rule="evenodd" d="M31.3135 100.995C31.2578 101.102 31.1855 101.189 31.0962 101.257C31.007 101.324 30.9061 101.372 30.7926 101.4C30.6799 101.428 30.5638 101.442 30.4447 101.442C30.326 101.442 30.2095 101.428 30.0968 101.4C29.9837 101.372 29.8824 101.324 29.7931 101.257C29.7038 101.189 29.6307 101.102 29.5729 100.995C29.5154 100.888 29.4848 100.752 29.4805 100.589H30.064C30.0717 100.721 30.1104 100.815 30.1802 100.873C30.2495 100.931 30.3375 100.959 30.4447 100.959C30.5519 100.959 30.6403 100.931 30.7097 100.873C30.779 100.815 30.8177 100.721 30.8258 100.589H31.4088C31.4007 100.752 31.3693 100.888 31.3135 100.995ZM31.2183 103.188L29.5698 105.911H28.832V101.668H29.6591V104.386L31.3076 101.668H32.0454V105.911H31.2183V103.188Z" fill="#103F8C"/>
<path fill-rule="evenodd" clip-rule="evenodd" d="M35.4686 105.61C35.1887 105.835 34.8506 105.947 34.4538 105.947C34.2076 105.947 33.9936 105.908 33.8112 105.831C33.6286 105.753 33.4637 105.642 33.317 105.5C33.2099 105.392 33.1277 105.282 33.0699 105.166C33.0129 105.051 32.9711 104.925 32.9449 104.787C32.9193 104.651 32.9036 104.501 32.8976 104.338C32.8917 104.175 32.8887 103.992 32.8887 103.789C32.8887 103.587 32.8916 103.404 32.8976 103.241C32.9036 103.079 32.9193 102.928 32.9449 102.791C32.9711 102.654 33.0129 102.528 33.0699 102.413C33.1277 102.298 33.2099 102.186 33.317 102.079C33.4637 101.936 33.6286 101.826 33.8112 101.749C33.9936 101.671 34.2076 101.632 34.4538 101.632C34.8506 101.632 35.1887 101.745 35.4686 101.969C35.7479 102.194 35.9274 102.528 36.007 102.973H35.1619C35.1185 102.798 35.0407 102.654 34.9297 102.541C34.8187 102.427 34.66 102.371 34.4538 102.371C34.339 102.371 34.2369 102.391 34.1475 102.431C34.0582 102.471 33.9838 102.524 33.9239 102.591C33.8844 102.636 33.8515 102.685 33.826 102.741C33.8001 102.796 33.7792 102.868 33.7635 102.955C33.7474 103.043 33.7358 103.153 33.7277 103.286C33.7202 103.419 33.716 103.587 33.716 103.789C33.716 103.992 33.7202 104.16 33.7277 104.293C33.7358 104.427 33.7474 104.536 33.7635 104.624C33.7792 104.711 33.8001 104.783 33.826 104.838C33.8515 104.894 33.8844 104.944 33.9239 104.987C33.9838 105.055 34.0582 105.108 34.1475 105.148C34.2369 105.188 34.339 105.208 34.4538 105.208C34.66 105.208 34.82 105.151 34.9327 105.038C35.0458 104.925 35.124 104.781 35.1678 104.606H36.007C35.9274 105.051 35.7479 105.386 35.4686 105.61Z" fill="#103F8C"/>
<path fill-rule="evenodd" clip-rule="evenodd" d="M38.2794 105.911H37.4527V102.406H36.3457V101.668H39.387V102.406H38.2794V105.911Z" fill="#103F8C"/>
<path fill-rule="evenodd" clip-rule="evenodd" d="M42.1516 105.032C42.2507 104.939 42.3004 104.811 42.3004 104.648C42.3004 104.485 42.2507 104.357 42.1516 104.266C42.0526 104.175 41.9173 104.13 41.7467 104.13H40.8843V105.172H41.7467C41.9173 105.172 42.0526 105.125 42.1516 105.032ZM42.095 103.253C42.1924 103.166 42.2409 103.047 42.2409 102.896C42.2409 102.745 42.1924 102.626 42.095 102.539C41.9981 102.451 41.8636 102.407 41.6932 102.407H40.8843V103.384H41.6932C41.8636 103.384 41.9981 103.341 42.095 103.253ZM42.7347 103.849C42.7785 103.881 42.8218 103.919 42.8657 103.962C42.9571 104.062 43.0235 104.171 43.0647 104.29C43.1063 104.409 43.1277 104.545 43.1277 104.695C43.1277 104.882 43.0979 105.05 43.0383 105.199C42.9784 105.348 42.8925 105.475 42.7794 105.58C42.6662 105.686 42.5297 105.767 42.3689 105.825C42.2082 105.882 42.0287 105.911 41.8301 105.911H40.0566V101.668H41.7586C41.9572 101.668 42.1376 101.696 42.3004 101.752C42.4629 101.807 42.6011 101.886 42.7138 101.987C42.827 102.088 42.9142 102.21 42.9754 102.354C43.037 102.497 43.0676 102.657 43.0676 102.836C43.0676 103.241 42.8933 103.541 42.5442 103.736C42.6275 103.78 42.6913 103.817 42.7347 103.849Z" fill="#103F8C"/>
<path fill-rule="evenodd" clip-rule="evenodd" d="M46.357 103.188L44.7086 105.912H43.9707V101.668H44.7978V104.386L46.4463 101.668H47.1838V105.912H46.357V103.188Z" fill="#103F8C"/>
<path fill-rule="evenodd" clip-rule="evenodd" d="M49.4486 102.395C49.2624 102.395 49.1135 102.447 49.0021 102.553C48.891 102.658 48.8357 102.8 48.8357 102.979C48.8357 103.154 48.891 103.297 49.0021 103.411C49.1135 103.524 49.2624 103.581 49.4486 103.581H50.2218V102.395H49.4486ZM47.8652 105.911L48.7405 104.147C48.5142 104.044 48.3368 103.893 48.2076 103.694C48.0787 103.496 48.0145 103.261 48.0145 102.99C48.0145 102.789 48.049 102.605 48.1183 102.442C48.1881 102.28 48.2842 102.14 48.407 102.026C48.53 101.91 48.6772 101.822 48.8477 101.76C49.0177 101.699 49.2045 101.668 49.4065 101.668H51.0495V105.911H50.2218V104.314H49.5439L48.8477 105.911H47.8652Z" fill="#103F8C"/>
<path fill-rule="evenodd" clip-rule="evenodd" d="M56.4252 103.438L55.6163 105.047H55.0565L54.2413 103.438V105.911H53.4141V101.668H54.2294L55.336 103.962L56.4371 101.668H57.2523V105.911H56.4252V103.438Z" fill="#103F8C"/>
<path fill-rule="evenodd" clip-rule="evenodd" d="M58.2383 101.668H61.029V102.406H59.0655V103.402H60.7378V104.141H59.0655V105.172H61.029V105.911H58.2383V101.668Z" fill="#103F8C"/>
<path fill-rule="evenodd" clip-rule="evenodd" d="M64.5618 103.688L65.859 101.668H66.835L65.4481 103.659L66.9779 105.911H65.978L64.5618 103.688ZM63.7287 101.668H64.5555V105.911H63.7287V101.668ZM62.8355 103.659L61.4495 101.668H62.4255L63.7223 103.688L62.306 105.911H61.3066L62.8355 103.659Z" fill="#103F8C"/>
<path fill-rule="evenodd" clip-rule="evenodd" d="M68.7191 102.407V103.021C68.7191 103.442 68.6931 103.831 68.6417 104.189C68.5902 104.546 68.4911 104.874 68.3439 105.172H69.6534V102.407H68.7191ZM70.171 105.912H67.8208V106.853H67.0234V105.172H67.4219C67.6001 104.898 67.7294 104.55 67.8085 104.126C67.8881 103.703 67.9276 103.245 67.9276 102.753V101.668H70.4807V105.172H70.9684V106.853H70.171V105.912Z" fill="#103F8C"/>
<path fill-rule="evenodd" clip-rule="evenodd" d="M72.8622 105.47C72.8044 105.558 72.7372 105.634 72.6593 105.7C72.5824 105.765 72.4943 105.816 72.3948 105.855C72.2957 105.892 72.1847 105.911 72.0614 105.911H71.5561V105.172H71.8891C72.004 105.172 72.0962 105.149 72.1655 105.104C72.235 105.058 72.2898 104.991 72.3294 104.904L72.4544 104.612L71.0977 101.668H71.9606L72.8474 103.712L73.6507 101.668H74.5072L73.0081 105.196C72.9681 105.292 72.9196 105.383 72.8622 105.47Z" fill="#103F8C"/>
<path fill-rule="evenodd" clip-rule="evenodd" d="M77.2847 104.135H75.8507V105.911H75.0234V101.668H75.8507V103.402H77.2847V101.668H78.112V105.911H77.2847V104.135Z" fill="#103F8C"/>
<path fill-rule="evenodd" clip-rule="evenodd" d="M79.9835 104.463H81.037L80.5194 102.92L79.9835 104.463ZM81.2568 105.16H79.7513L79.4958 105.911H78.6328L80.1741 101.668H80.8226L82.37 105.911H81.507L81.2568 105.16Z" fill="#103F8C"/>
<path fill-rule="evenodd" clip-rule="evenodd" d="M84.9425 102.568C84.8336 102.461 84.6839 102.407 84.493 102.407H83.7198V103.569H84.493C84.6839 103.569 84.8336 103.517 84.9425 103.411C85.0518 103.306 85.1062 103.166 85.1062 102.991C85.1062 102.816 85.0518 102.675 84.9425 102.568ZM85.8383 103.5C85.7748 103.661 85.6833 103.802 85.5647 103.924C85.4456 104.045 85.2989 104.14 85.1241 104.21C84.9497 104.279 84.7532 104.314 84.535 104.314H83.7198V105.911H82.8926V101.668H84.535C84.7532 101.668 84.9497 101.703 85.1241 101.772C85.2989 101.842 85.4456 101.937 85.5647 102.058C85.6833 102.18 85.7748 102.321 85.8383 102.482C85.9015 102.642 85.9335 102.812 85.9335 102.991C85.9335 103.17 85.9015 103.34 85.8383 103.5Z" fill="#103F8C"/>
<path fill-rule="evenodd" clip-rule="evenodd" d="M88.7759 103.286C88.7678 103.153 88.7559 103.043 88.7402 102.955C88.7244 102.868 88.7032 102.797 88.6777 102.744C88.6518 102.69 88.6189 102.641 88.5794 102.598C88.5198 102.53 88.4455 102.476 88.3566 102.434C88.2673 102.391 88.1648 102.371 88.0499 102.371C87.9347 102.371 87.8326 102.391 87.7433 102.434C87.654 102.476 87.5778 102.53 87.5141 102.598C87.4745 102.641 87.4417 102.69 87.4163 102.744C87.3904 102.797 87.369 102.868 87.3533 102.955C87.3376 103.043 87.327 103.153 87.3206 103.286C87.3146 103.419 87.312 103.587 87.312 103.789C87.312 103.992 87.3146 104.16 87.3206 104.293C87.327 104.426 87.3376 104.535 87.3533 104.621C87.369 104.706 87.3904 104.776 87.4163 104.829C87.4417 104.883 87.4745 104.932 87.5141 104.975C87.5778 105.043 87.654 105.098 87.7433 105.142C87.8326 105.186 87.9347 105.208 88.0499 105.208C88.1648 105.208 88.2673 105.186 88.3566 105.142C88.4455 105.098 88.5198 105.043 88.5794 104.975C88.6189 104.932 88.6518 104.883 88.6777 104.829C88.7032 104.776 88.7244 104.706 88.7402 104.621C88.7559 104.535 88.7678 104.426 88.7759 104.293C88.784 104.16 88.7874 103.992 88.7874 103.789C88.7874 103.587 88.7839 103.419 88.7759 103.286ZM89.6057 104.338C89.5997 104.501 89.5832 104.65 89.5554 104.787C89.5278 104.925 89.4849 105.051 89.4275 105.166C89.3697 105.282 89.2875 105.392 89.1804 105.5C89.0375 105.642 88.8745 105.753 88.6926 105.831C88.5101 105.908 88.2958 105.947 88.0499 105.947C87.8038 105.947 87.5884 105.908 87.4039 105.831C87.2198 105.753 87.0561 105.642 86.9131 105.5C86.8059 105.392 86.7239 105.282 86.6661 105.166C86.6086 105.051 86.5673 104.925 86.5411 104.787C86.5155 104.65 86.4993 104.501 86.4938 104.338C86.4879 104.175 86.4844 103.992 86.4844 103.789C86.4844 103.587 86.4878 103.404 86.4938 103.241C86.4993 103.078 86.5155 102.928 86.5411 102.791C86.5673 102.654 86.6086 102.528 86.6661 102.413C86.7239 102.298 86.8059 102.186 86.9131 102.079C87.0561 101.936 87.2198 101.826 87.4039 101.749C87.5884 101.671 87.8038 101.632 88.0499 101.632C88.2958 101.632 88.5101 101.671 88.6926 101.749C88.8745 101.826 89.0375 101.936 89.1804 102.079C89.2875 102.186 89.3697 102.298 89.4275 102.413C89.4849 102.528 89.5278 102.654 89.5554 102.791C89.5832 102.928 89.5997 103.078 89.6057 103.241C89.6121 103.404 89.615 103.587 89.615 103.789C89.615 103.992 89.612 104.175 89.6057 104.338Z" fill="#103F8C"/>
<path fill-rule="evenodd" clip-rule="evenodd" d="M91.5648 102.407V103.021C91.5648 103.442 91.5389 103.831 91.4874 104.189C91.4359 104.546 91.3368 104.874 91.1897 105.172H92.4992V102.407H91.5648ZM93.0167 105.912H90.6666V106.853H89.8691V105.172H90.2677C90.4459 104.898 90.5751 104.55 90.6542 104.126C90.7338 103.703 90.7733 103.245 90.7733 102.753V101.668H93.3263V105.172H93.8142V106.853H93.0167V105.912Z" fill="#103F8C"/>
<path fill-rule="evenodd" clip-rule="evenodd" d="M96.7339 104.135H95.2998V105.911H94.4727V101.668H95.2998V103.402H96.7339V101.668H97.5612V105.911H96.7339V104.135Z" fill="#103F8C"/>
<path fill-rule="evenodd" clip-rule="evenodd" d="M100.696 103.286C100.688 103.153 100.676 103.043 100.66 102.955C100.644 102.868 100.623 102.797 100.598 102.744C100.572 102.69 100.539 102.641 100.499 102.598C100.44 102.53 100.365 102.476 100.276 102.434C100.187 102.391 100.085 102.371 99.9699 102.371C99.8546 102.371 99.7525 102.391 99.6631 102.434C99.5738 102.476 99.4977 102.53 99.434 102.598C99.3943 102.641 99.3616 102.69 99.3361 102.744C99.3101 102.797 99.2889 102.868 99.2731 102.955C99.2575 103.043 99.2467 103.153 99.2403 103.286C99.2344 103.419 99.2319 103.587 99.2319 103.789C99.2319 103.992 99.2345 104.16 99.2403 104.293C99.2467 104.426 99.2575 104.535 99.2731 104.621C99.2889 104.706 99.3101 104.776 99.3361 104.829C99.3616 104.883 99.3943 104.932 99.434 104.975C99.4977 105.043 99.5738 105.098 99.6631 105.142C99.7525 105.186 99.8546 105.208 99.9699 105.208C100.085 105.208 100.187 105.186 100.276 105.142C100.365 105.098 100.44 105.043 100.499 104.975C100.539 104.932 100.572 104.883 100.598 104.829C100.623 104.776 100.644 104.706 100.66 104.621C100.676 104.535 100.688 104.426 100.696 104.293C100.704 104.16 100.707 103.992 100.707 103.789C100.707 103.587 100.704 103.419 100.696 103.286ZM101.525 104.338C101.52 104.501 101.503 104.65 101.475 104.787C101.448 104.925 101.405 105.051 101.347 105.166C101.289 105.282 101.207 105.392 101.1 105.5C100.957 105.642 100.794 105.753 100.612 105.831C100.43 105.908 100.216 105.947 99.9699 105.947C99.7235 105.947 99.5084 105.908 99.3238 105.831C99.1395 105.753 98.9758 105.642 98.833 105.5C98.7258 105.392 98.6437 105.282 98.5859 105.166C98.5285 105.051 98.4872 104.925 98.4608 104.787C98.4353 104.65 98.4191 104.501 98.4136 104.338C98.4077 104.175 98.4043 103.992 98.4043 103.789C98.4043 103.587 98.4077 103.404 98.4136 103.241C98.4191 103.078 98.4353 102.928 98.4608 102.791C98.4872 102.654 98.5285 102.528 98.5859 102.413C98.6437 102.298 98.7258 102.186 98.833 102.079C98.9758 101.936 99.1395 101.826 99.3238 101.749C99.5084 101.671 99.7235 101.632 99.9699 101.632C100.216 101.632 100.43 101.671 100.612 101.749C100.794 101.826 100.957 101.936 101.1 102.079C101.207 102.186 101.289 102.298 101.347 102.413C101.405 102.528 101.448 102.654 101.475 102.791C101.503 102.928 101.52 103.078 101.525 103.241C101.532 103.404 101.535 103.587 101.535 103.789C101.535 103.992 101.532 104.175 101.525 104.338Z" fill="#103F8C"/>
<path fill-rule="evenodd" clip-rule="evenodd" d="M104.858 100.995C104.803 101.102 104.731 101.189 104.641 101.257C104.552 101.324 104.451 101.372 104.338 101.4C104.225 101.428 104.109 101.442 103.99 101.442C103.871 101.442 103.754 101.428 103.642 101.4C103.529 101.372 103.427 101.324 103.338 101.257C103.249 101.189 103.176 101.102 103.118 100.995C103.06 100.888 103.03 100.752 103.026 100.589H103.609C103.617 100.721 103.655 100.815 103.725 100.873C103.794 100.931 103.882 100.959 103.99 100.959C104.097 100.959 104.185 100.931 104.255 100.873C104.324 100.815 104.363 100.721 104.371 100.589H104.954C104.946 100.752 104.914 100.888 104.858 100.995ZM104.763 103.188L103.115 105.911H102.377V101.668H103.204V104.386L104.853 101.668H105.59V105.911H104.763V103.188Z" fill="#103F8C"/>
<path fill-rule="evenodd" clip-rule="evenodd" d="M29.9007 113.058H29.0739V109.554H27.9668V108.815H31.0081V109.554H29.9007V113.058Z" fill="#103F8C"/>
<path fill-rule="evenodd" clip-rule="evenodd" d="M33.7296 109.715C33.6207 109.608 33.471 109.554 33.2801 109.554H32.5069V110.717H33.2801C33.471 110.717 33.6207 110.664 33.7296 110.558C33.839 110.453 33.8933 110.313 33.8933 110.138C33.8933 109.964 33.839 109.822 33.7296 109.715ZM34.6253 110.648C34.5619 110.809 34.4704 110.949 34.3518 111.071C34.2327 111.192 34.086 111.287 33.9112 111.357C33.7368 111.427 33.5404 111.461 33.3221 111.461H32.5069V113.058H31.6797V108.815H33.3221C33.5404 108.815 33.7368 108.85 33.9112 108.92C34.086 108.989 34.2327 109.085 34.3518 109.206C34.4704 109.326 34.5619 109.468 34.6253 109.629C34.6887 109.79 34.7206 109.959 34.7206 110.138C34.7206 110.317 34.6887 110.487 34.6253 110.648Z" fill="#103F8C"/>
<path fill-rule="evenodd" clip-rule="evenodd" d="M36.7079 112.617C36.6501 112.705 36.5829 112.781 36.505 112.847C36.4281 112.913 36.34 112.964 36.2405 113.002C36.1414 113.039 36.0304 113.058 35.9071 113.058H35.4018V112.32H35.7348C35.8497 112.32 35.9419 112.297 36.0114 112.251C36.0807 112.205 36.1355 112.139 36.1751 112.051L36.3001 111.759L34.9434 108.815H35.8063L36.6931 110.86L37.4965 108.815H38.3529L36.8538 112.343C36.8138 112.438 36.7653 112.53 36.7079 112.617Z" fill="#103F8C"/>
<path fill-rule="evenodd" clip-rule="evenodd" d="M39.7992 109.554V110.168C39.7992 110.589 39.7732 110.979 39.7218 111.336C39.6703 111.694 39.5712 112.022 39.4241 112.319H40.7336V109.554H39.7992ZM41.2511 113.058H38.901V114H38.1035V112.319H38.5021C38.6803 112.045 38.8095 111.696 38.8886 111.273C38.9681 110.85 39.0077 110.393 39.0077 109.9V108.815H41.5607V112.319H42.0486V114H41.2511V113.058Z" fill="#103F8C"/>
<path fill-rule="evenodd" clip-rule="evenodd" d="M44.7954 110.433C44.7874 110.3 44.7754 110.19 44.7598 110.103C44.744 110.016 44.7228 109.945 44.6972 109.891C44.6713 109.837 44.6385 109.789 44.5989 109.745C44.5394 109.678 44.465 109.623 44.3761 109.581C44.2868 109.539 44.1843 109.519 44.0695 109.519C43.9542 109.519 43.8522 109.539 43.7629 109.581C43.6736 109.623 43.5973 109.678 43.5336 109.745C43.494 109.789 43.4612 109.837 43.4358 109.891C43.4099 109.945 43.3886 110.016 43.3729 110.103C43.3571 110.19 43.3465 110.3 43.3401 110.433C43.3342 110.566 43.3317 110.734 43.3317 110.937C43.3317 111.139 43.3342 111.307 43.3401 111.44C43.3465 111.573 43.3571 111.683 43.3729 111.768C43.3886 111.854 43.4099 111.923 43.4358 111.977C43.4612 112.03 43.494 112.079 43.5336 112.123C43.5973 112.191 43.6736 112.246 43.7629 112.289C43.8522 112.334 43.9542 112.355 44.0695 112.355C44.1843 112.355 44.2868 112.334 44.3761 112.289C44.465 112.246 44.5394 112.191 44.5989 112.123C44.6385 112.079 44.6713 112.03 44.6972 111.977C44.7228 111.923 44.744 111.854 44.7598 111.768C44.7754 111.683 44.7874 111.573 44.7954 111.44C44.8035 111.307 44.8069 111.139 44.8069 110.937C44.8069 110.734 44.8035 110.566 44.7954 110.433ZM45.6252 111.485C45.6192 111.648 45.6027 111.798 45.5751 111.935C45.5474 112.072 45.5044 112.198 45.447 112.314C45.3892 112.429 45.3071 112.54 45.1999 112.647C45.057 112.79 44.8942 112.9 44.7121 112.978C44.5296 113.055 44.3153 113.094 44.0695 113.094C43.8233 113.094 43.6081 113.055 43.4235 112.978C43.2393 112.9 43.0756 112.79 42.9326 112.647C42.8254 112.54 42.7434 112.429 42.6856 112.314C42.6282 112.198 42.5868 112.072 42.5606 111.935C42.535 111.798 42.5188 111.648 42.5133 111.485C42.5074 111.322 42.5039 111.139 42.5039 110.937C42.5039 110.734 42.5073 110.551 42.5133 110.389C42.5188 110.226 42.535 110.076 42.5606 109.939C42.5868 109.802 42.6282 109.676 42.6856 109.56C42.7434 109.445 42.8254 109.334 42.9326 109.227C43.0756 109.084 43.2393 108.973 43.4235 108.896C43.6081 108.818 43.8233 108.78 44.0695 108.78C44.3153 108.78 44.5296 108.818 44.7121 108.896C44.8942 108.973 45.057 109.084 45.1999 109.227C45.3071 109.334 45.3892 109.445 45.447 109.56C45.5044 109.676 45.5474 109.802 45.5751 109.939C45.6027 110.076 45.6192 110.226 45.6252 110.389C45.6316 110.551 45.6345 110.734 45.6345 110.937C45.6345 111.139 45.6315 111.322 45.6252 111.485Z" fill="#103F8C"/>
<path fill-rule="evenodd" clip-rule="evenodd" d="M48.5716 112.179C48.6707 112.086 48.7205 111.957 48.7205 111.795C48.7205 111.633 48.6707 111.505 48.5716 111.414C48.4725 111.322 48.3372 111.276 48.1668 111.276H47.3042V112.319H48.1668C48.3372 112.319 48.4725 112.273 48.5716 112.179ZM48.515 110.4C48.6124 110.313 48.6609 110.194 48.6609 110.043C48.6609 109.892 48.6124 109.773 48.515 109.686C48.418 109.598 48.2837 109.555 48.1131 109.555H47.3042V110.532H48.1131C48.2837 110.532 48.418 110.488 48.515 110.4ZM49.1547 110.997C49.1985 111.029 49.2419 111.066 49.2856 111.109C49.3771 111.209 49.4435 111.318 49.4847 111.438C49.5264 111.557 49.5476 111.691 49.5476 111.843C49.5476 112.029 49.5178 112.197 49.4583 112.346C49.3983 112.495 49.3124 112.622 49.1993 112.728C49.0862 112.833 48.9497 112.914 48.7889 112.972C48.6281 113.03 48.4486 113.058 48.25 113.058H46.4766V108.816H48.1785C48.3772 108.816 48.5576 108.843 48.7205 108.899C48.8828 108.955 49.0211 109.033 49.1338 109.135C49.2469 109.236 49.3341 109.357 49.3954 109.501C49.4571 109.644 49.4877 109.805 49.4877 109.983C49.4877 110.389 49.3132 110.688 48.9641 110.883C49.0476 110.927 49.1113 110.964 49.1547 110.997Z" fill="#103F8C"/>
<path fill-rule="evenodd" clip-rule="evenodd" d="M52.5102 110.433C52.5021 110.3 52.4902 110.19 52.4745 110.103C52.4588 110.016 52.4375 109.945 52.412 109.891C52.386 109.837 52.3533 109.789 52.3138 109.745C52.2542 109.678 52.1797 109.623 52.0909 109.581C52.0015 109.539 51.899 109.519 51.7843 109.519C51.6689 109.519 51.5669 109.539 51.4776 109.581C51.3883 109.623 51.3122 109.678 51.2484 109.745C51.2088 109.789 51.1761 109.837 51.1505 109.891C51.1246 109.945 51.1034 110.016 51.0876 110.103C51.0718 110.19 51.0612 110.3 51.0548 110.433C51.0489 110.566 51.0464 110.734 51.0464 110.937C51.0464 111.139 51.0489 111.307 51.0548 111.44C51.0612 111.573 51.0718 111.683 51.0876 111.768C51.1034 111.854 51.1246 111.923 51.1505 111.977C51.1761 112.03 51.2088 112.079 51.2484 112.123C51.3122 112.191 51.3883 112.246 51.4776 112.289C51.5669 112.334 51.6689 112.355 51.7843 112.355C51.899 112.355 52.0015 112.334 52.0909 112.289C52.1797 112.246 52.2542 112.191 52.3138 112.123C52.3533 112.079 52.386 112.03 52.412 111.977C52.4375 111.923 52.4588 111.854 52.4745 111.768C52.4902 111.683 52.5021 111.573 52.5102 111.44C52.5182 111.307 52.5217 111.139 52.5217 110.937C52.5217 110.734 52.5183 110.566 52.5102 110.433ZM53.3399 111.485C53.334 111.648 53.3174 111.798 53.2898 111.935C53.2622 112.072 53.2192 112.198 53.1617 112.314C53.1039 112.429 53.0218 112.54 52.9146 112.647C52.7718 112.79 52.6089 112.9 52.4268 112.978C52.2445 113.055 52.0301 113.094 51.7843 113.094C51.538 113.094 51.3228 113.055 51.1382 112.978C50.954 112.9 50.7903 112.79 50.6474 112.647C50.5403 112.54 50.4582 112.429 50.4003 112.314C50.3429 112.198 50.3017 112.072 50.2753 111.935C50.2497 111.798 50.2336 111.648 50.228 111.485C50.2221 111.322 50.2188 111.139 50.2188 110.937C50.2188 110.734 50.2222 110.551 50.228 110.389C50.2336 110.226 50.2497 110.076 50.2753 109.939C50.3017 109.802 50.3429 109.676 50.4003 109.56C50.4582 109.445 50.5403 109.334 50.6474 109.227C50.7903 109.084 50.954 108.973 51.1382 108.896C51.3228 108.818 51.538 108.78 51.7843 108.78C52.0301 108.78 52.2445 108.818 52.4268 108.896C52.6089 108.973 52.7718 109.084 52.9146 109.227C53.0218 109.334 53.1039 109.445 53.1617 109.56C53.2192 109.676 53.2622 109.802 53.2898 109.939C53.3174 110.076 53.334 110.226 53.3399 110.389C53.3463 110.551 53.3493 110.734 53.3493 110.937C53.3493 111.139 53.3464 111.322 53.3399 111.485Z" fill="#103F8C"/>
<path fill-rule="evenodd" clip-rule="evenodd" d="M56.6729 108.142C56.6172 108.249 56.545 108.337 56.4557 108.404C56.3664 108.471 56.2656 108.52 56.152 108.547C56.0393 108.575 55.9232 108.589 55.8041 108.589C55.6855 108.589 55.5689 108.575 55.4562 108.547C55.3431 108.52 55.2418 108.471 55.1526 108.404C55.0633 108.337 54.9901 108.249 54.9322 108.142C54.8748 108.035 54.8442 107.9 54.84 107.737H55.4235C55.4311 107.867 55.4698 107.962 55.5396 108.02C55.6089 108.077 55.6969 108.106 55.8041 108.106C55.9113 108.106 55.9998 108.077 56.069 108.02C56.1384 107.962 56.1771 107.867 56.1851 107.737H56.7683C56.7602 107.9 56.7288 108.035 56.6729 108.142ZM56.5777 110.335L54.9292 113.058H54.1914V108.815H55.0185V111.533L56.667 108.815H57.4049V113.058H56.5777V110.335Z" fill="#103F8C"/>
<path fill-rule="evenodd" clip-rule="evenodd" d="M62.7805 110.585L61.9718 112.194H61.412L60.5967 110.585V113.058H59.7695V108.815H60.5847L61.6914 111.109L62.7925 108.815H63.6078V113.058H62.7805V110.585Z" fill="#103F8C"/>
<path fill-rule="evenodd" clip-rule="evenodd" d="M66.98 110.335L65.3317 113.058H64.5938V108.815H65.421V111.533L67.0694 108.815H67.8068V113.058H66.98V110.335Z" fill="#103F8C"/>
<path fill-rule="evenodd" clip-rule="evenodd" d="M69.6378 113.058H68.8105V108.815H71.4763V109.554H69.6378V113.058Z" fill="#103F8C"/>
<path fill-rule="evenodd" clip-rule="evenodd" d="M74.1788 109.715C74.07 109.608 73.9202 109.554 73.7293 109.554H72.956V110.717H73.7293C73.9202 110.717 74.07 110.664 74.1788 110.558C74.288 110.453 74.3426 110.313 74.3426 110.138C74.3426 109.964 74.288 109.822 74.1788 109.715ZM75.0745 110.648C75.011 110.809 74.9196 110.949 74.801 111.071C74.6819 111.192 74.5352 111.287 74.3604 111.357C74.1861 111.427 73.9896 111.461 73.7713 111.461H72.956V113.058H72.1289V108.815H73.7713C73.9896 108.815 74.1861 108.85 74.3604 108.92C74.5352 108.989 74.6819 109.085 74.801 109.206C74.9196 109.326 75.011 109.468 75.0745 109.629C75.1379 109.79 75.1697 109.959 75.1697 110.138C75.1697 110.317 75.1379 110.487 75.0745 110.648Z" fill="#103F8C"/>
<path fill-rule="evenodd" clip-rule="evenodd" d="M76.4542 111.61H77.5076L76.9901 110.067L76.4542 111.61ZM77.7275 112.308H76.222L75.9664 113.058H75.1035L76.6448 108.816H77.2933L78.8405 113.058H77.9777L77.7275 112.308Z" fill="#103F8C"/>
<path fill-rule="evenodd" clip-rule="evenodd" d="M82.1465 113.058H79.3613V108.815H80.1886V112.32H81.6231V108.815H82.4502V112.32H82.944V114H82.1465V113.058Z" fill="#103F8C"/>
<path fill-rule="evenodd" clip-rule="evenodd" d="M85.9839 110.335L84.3356 113.058H83.5977V108.815H84.4248V111.533L86.0733 108.815H86.8107V113.058H85.9839V110.335Z" fill="#103F8C"/>
<path fill-rule="evenodd" clip-rule="evenodd" d="M90.1812 110.335L88.5329 113.058H87.7949V108.815H88.6221V111.533L90.2706 108.815H91.008V113.058H90.1812V110.335Z" fill="#103F8C"/>
<path fill-rule="evenodd" clip-rule="evenodd" d="M49.0738 57.7019C50.3263 58.8764 51.7068 59.5409 53.4449 59.0425C53.5195 59.1286 53.5232 59.1329 53.5972 59.2193C53.2481 59.9062 52.9163 60.603 52.5561 61.284C52.261 61.8419 51.9083 62.3684 51.5311 62.8744C50.7826 63.8782 50.6495 64.0477 51.33 64.6814C52.3579 65.6396 53.5198 66.0276 54.9237 65.557C56.4063 65.0599 57.6834 64.3479 58.3992 62.8632C58.4707 62.715 58.7845 62.5834 58.967 62.6051C60.5777 62.7968 61.9746 63.4019 63.2969 64.4157C65.5957 66.1775 68.0565 67.7261 70.4155 69.4118C71.2717 70.0237 72.0606 70.7409 72.827 71.4662C73.4584 72.0645 73.8582 72.93 73.4105 73.6966C73.1076 74.2146 72.6577 74.3244 72.1957 74.3844C71.5242 74.4717 70.843 74.3291 70.2484 74.0041C68.9933 73.3189 67.8186 72.5523 66.5811 71.8513C66.1511 71.6051 66.0651 72.0595 66.3301 72.2375C67.2879 72.8252 68.2822 73.4765 69.2451 74.0761C70.3573 74.838 70.2585 76.1545 69.2165 76.7137C68.2789 77.2161 67.5872 77.1029 66.3684 76.4623C65.5004 76.0063 64.6239 75.3994 63.6677 75.0012C63.5036 74.933 63.3624 74.7942 63.1922 74.7278C62.8857 74.568 62.5935 75.0663 62.824 75.1336C63.8375 75.7741 64.9356 76.3836 65.9771 77.0131C66.3718 77.2511 66.4892 77.8001 66.1902 78.1514C65.5445 78.9096 64.5073 79.0509 63.5283 78.4934C62.394 77.8486 61.2555 77.2111 60.1047 76.5953C59.8282 76.4121 59.4352 76.6702 59.8392 77.0092C60.8408 77.6357 61.8565 78.2388 62.867 78.8499C63.3765 79.166 63.1761 79.4372 63.0316 79.5259C62.3936 79.9159 61.725 80.0062 60.9918 79.7729C60.6579 79.6667 60.3335 79.5262 60.0137 79.3815C59.2928 79.0556 58.6795 78.7856 58.9445 77.6855C59.1933 76.651 58.4868 75.8841 57.4262 75.6072C57.2675 75.5655 57.1046 75.5387 56.8962 75.4947C56.8996 74.5701 56.5878 73.7844 55.779 73.2877C54.962 72.7861 54.1331 72.7835 53.3553 73.3427C53.0783 72.8657 52.8564 72.3759 52.5369 71.9608C52.1006 71.3938 51.4963 71.1042 50.755 71.1008C50.5798 71.0999 50.3238 70.9697 50.2425 70.8232C49.3345 69.1865 48.3682 69.2967 46.6355 70.1264C45.4566 68.801 43.9081 67.5906 42.5098 66.224C44.4487 63.6307 47.0523 60.4059 49.0738 57.7019Z" fill="#1DABDD"/>
<path fill-rule="evenodd" clip-rule="evenodd" d="M68.4653 67.2063C68.701 66.8153 68.8881 66.5043 69.076 66.1926C69.0424 66.1679 69.0097 66.1436 68.9766 66.119C68.8523 66.2543 68.7507 66.4298 68.5984 66.515C68.3964 66.6295 68.114 66.7864 67.9392 66.7229C67.6301 66.6117 67.3374 66.4226 67.5088 65.9273C67.6589 65.4958 67.6346 65.004 67.6875 64.5385C67.6355 64.5262 67.5833 64.5137 67.531 64.501C67.377 64.9959 67.223 65.4907 67.0465 66.058C65.3836 64.9546 63.773 63.8859 62.1164 62.7867C62.6286 61.9758 63.0981 61.2326 63.5676 60.4895C63.528 60.4542 63.4881 60.4188 63.4485 60.3835C62.8502 61.0296 62.2522 61.6756 61.6788 62.2949C60.9584 62.1096 60.2299 61.9226 59.583 61.7566C59.6553 60.955 59.7234 60.2011 59.7914 59.4465C59.7527 59.4401 59.7131 59.4329 59.674 59.4261C59.4014 60.1646 59.1288 60.9031 58.8557 61.6416C58.7856 61.6574 58.7154 61.673 58.6456 61.6889C58.2178 61.0397 57.7904 60.3907 57.3634 59.7417C57.3311 59.7553 57.2988 59.7689 57.2668 59.7825C57.3706 60.173 57.4251 60.5861 57.5909 60.9482C57.8069 61.4197 57.7024 61.7868 57.465 62.2135C56.5137 63.9218 55.0442 64.7748 53.1334 64.8779C52.8178 64.8949 52.4414 64.7275 52.1756 64.5325C51.6015 64.11 51.5879 63.8507 52.0016 63.2689C52.8927 62.0154 53.7003 60.7289 54.1044 59.2126C54.3383 58.3367 55.1004 57.9214 55.908 57.8017C57.0929 57.6253 58.3021 57.6084 59.5001 57.5189C59.7888 57.4976 60.107 57.5261 60.3584 57.4133C61.2429 57.0159 62.0557 57.3226 62.8799 57.5905C64.3548 58.07 65.8319 58.5431 67.3017 59.0381C67.7526 59.1901 68.0876 59.061 68.433 58.7714C68.8889 58.3894 69.3797 58.0491 69.9033 57.6557C70.1622 58.0253 70.3741 58.3524 70.6105 58.6607C72.2241 60.7654 73.8482 62.8622 75.4559 64.9711C75.9705 65.6462 76.477 66.331 76.929 67.0482C77.3284 67.6807 77.2153 68.0947 76.5373 68.4089C75.5193 68.8813 74.6933 69.5785 73.9239 70.3744C73.3941 70.923 73.0543 70.8723 72.4861 70.3903C71.5912 69.63 70.6547 68.9187 69.7335 68.19C69.3129 67.8569 68.8859 67.5324 68.4653 67.2063Z" fill="#053182"/>
<path fill-rule="evenodd" clip-rule="evenodd" d="M56.2852 74.9926C56.3273 75.1774 56.3064 75.3703 56.2282 75.5423C56.0875 75.8532 55.9556 76.1696 55.7672 76.4486C55.5146 76.8233 55.4159 76.8979 55.1105 77.2356C54.4981 77.9129 53.2053 78.2335 52.5486 77.7165C51.7149 77.0597 52.2198 75.5555 52.8114 74.7863C53.164 74.3277 53.0074 74.4538 53.3873 74.0206C53.944 73.3847 54.4981 73.2442 55.0888 73.4972C55.7093 73.7633 56.1326 74.3222 56.2852 74.9926Z" fill="#053182"/>
<path fill-rule="evenodd" clip-rule="evenodd" d="M52.5483 73.763C52.5427 74.8265 51.7802 75.6169 50.7774 75.599C49.9353 75.5842 49.1251 74.7123 49.1192 73.8154C49.114 72.9521 50.1305 71.8362 50.9092 71.8512C51.8176 71.8686 52.5538 72.7263 52.5483 73.763Z" fill="#053182"/>
<path fill-rule="evenodd" clip-rule="evenodd" d="M58.2026 77.5296C58.2077 77.6534 58.1869 77.7779 58.1511 77.8962C58.0614 78.1944 57.9414 78.6215 57.7602 79.0215C57.4868 79.6232 56.9351 79.9439 56.3057 79.9158C55.6308 79.8847 54.2354 79.326 54.9656 78.0002C55.3135 77.3681 55.5334 77.2782 55.9681 76.7016C56.2832 76.2838 56.6099 75.9345 57.2099 76.1492C57.842 76.375 58.1702 76.7544 58.2026 77.5296Z" fill="#053182"/>
<path fill-rule="evenodd" clip-rule="evenodd" d="M48.5443 70.1262C49.1542 70.1224 49.8483 70.9048 49.873 71.6224C49.8921 72.1885 48.7847 73.114 48.0927 73.1096C47.5117 73.1062 47.0035 72.5871 47.0588 71.9508C47.1392 71.0241 47.5747 70.1348 48.5443 70.1262Z" fill="#053182"/>
<path fill-rule="evenodd" clip-rule="evenodd" d="M0.429051 34.2684C-0.0174657 33.2432 -0.172273 32.181 0.240773 31.1304C2.431 32.8953 4.56981 34.6687 6.76259 36.3726C8.74829 37.9152 10.9118 39.1571 13.1722 40.1533C13.464 41.0021 13.7383 41.7006 13.9603 42.0923C16.4061 46.4079 18.8741 48.0924 19.8825 48.6396C19.7443 48.7852 19.6112 48.9845 19.5427 49.2478C19.3811 49.8756 19.643 50.6251 20.3219 51.4756C21.0202 52.35 22.9038 53.195 24.0811 53.6613C23.5388 53.8252 22.9804 54.1073 22.8728 54.5812C22.7592 55.0825 23.153 55.6012 24.0772 56.1668C24.7108 56.5543 27.7858 57.4219 29.1994 57.8091C28.8592 58.0557 28.5177 58.3849 28.4986 58.7243C28.4914 58.8466 28.5195 59.0783 28.786 59.2579C29.8407 59.9687 30.9415 60.1864 31.8937 60.1864C33.3452 60.1864 34.4528 59.6809 34.5275 59.6459C34.676 59.5761 34.7401 59.3994 34.6713 59.2503C34.602 59.1012 34.4264 59.0369 34.2763 59.1059C34.249 59.1187 31.496 60.367 29.1183 58.7639C29.1055 58.608 29.5852 58.223 30.079 57.9663C30.1883 57.9096 30.2508 57.7912 30.2376 57.6689C30.2244 57.5471 30.1372 57.4458 30.0186 57.4143C28.6551 57.0501 24.9864 56.025 24.3873 55.6587C23.4269 55.071 23.4401 54.7678 23.4533 54.7128C23.5201 54.4181 24.428 54.1243 25.2008 54.045C25.3403 54.0301 25.4509 53.9211 25.4663 53.7814C25.4819 53.6426 25.3986 53.5113 25.2659 53.4662C25.2302 53.4547 21.7027 52.2508 20.7863 51.1034C20.2381 50.4173 20.0076 49.8274 20.1185 49.3968C20.2176 49.014 20.5652 48.8619 20.5686 48.8602C20.6821 48.8138 20.7543 48.7035 20.7527 48.5808C20.7514 48.4587 20.6749 48.3495 20.5613 48.3062C20.5307 48.2946 17.4703 47.0788 14.4775 41.7985C14.2938 41.474 14.0675 40.9114 13.8233 40.2181C13.5035 39.0818 13.1884 37.9629 12.8745 36.8459C12.9693 36.8002 13.065 36.7547 13.1603 36.7087C13.452 36.9638 13.7609 37.2027 14.0338 37.4765C16.3811 39.8331 19.0681 41.6703 22.1646 42.9066C24.2665 43.7457 26.3755 44.5753 28.431 45.5186C30.3112 46.3816 31.3965 47.9054 31.7167 49.985C31.8389 50.7767 32.046 51.5761 32.3522 52.3146C33.2155 54.3955 36.5218 56.0041 38.5355 53.2052C39.1743 52.3163 39.8574 51.459 40.5208 50.588C41.3229 49.5344 41.8401 49.399 42.7966 50.3675C44.5913 52.1839 46.3066 54.0842 47.9826 56.0127C48.1485 56.2039 48.3089 56.3985 48.464 56.597L41.4514 65.9986C41.1115 65.74 40.7752 65.4764 40.4328 65.2217C40.2614 65.9427 40.1448 66.6629 39.9187 67.346C39.1824 69.5701 36.6698 70.1424 35.0694 68.4453C34.7398 68.0956 34.5127 68.0641 34.0767 68.234C32.7954 68.7341 31.6006 68.4253 30.8926 67.3524C30.4567 66.6923 30.0398 66.5245 29.2394 66.6579C26.5703 67.1025 25.5041 66.2442 25.2451 63.7498C24.0964 63.5075 22.9446 63.4027 21.9006 63.01C20.5919 62.5182 20.6192 61.2596 20.6685 60.0662C19.1408 59.9372 17.7339 59.5156 16.4665 58.6885C15.3919 57.9871 15.3591 57.5876 16.3717 56.7673C16.8314 56.3946 17.3686 56.1178 17.9814 55.7269C17.5354 55.6584 17.2287 55.6157 16.9233 55.5638C14.961 55.2294 13.0238 54.8274 11.417 53.5267C10.7484 52.9854 10.7025 52.7341 11.3472 52.1655C11.7778 51.7866 12.3042 51.5161 12.8061 51.1851C10.5554 50.3521 8.32729 49.4581 6.78683 47.1848C7.81311 46.8368 8.78227 46.508 9.79796 46.1639C9.42025 45.9676 9.07283 45.7981 8.73515 45.6106C6.42877 44.3304 4.18185 42.988 2.67044 40.7048C2.33314 40.1959 2.37992 39.9034 2.85672 39.6409C3.30192 39.3956 3.77451 39.1998 4.27674 38.962C4.12278 38.8207 3.99136 38.7002 3.85948 38.5804C2.48199 37.3296 1.18616 36.0072 0.429051 34.2684Z" fill="#1DABDD"/>
</g>
<defs>
<linearGradient id="paint0_linear_15_4612" x1="35.2246" y1="-7.17557e-07" x2="35.2246" y2="48.2902" gradientUnits="userSpaceOnUse">
<stop stop-color="#053182"/>
<stop offset="0.76" stop-color="#1DABDD"/>
<stop offset="1" stop-color="#1DABDD"/>
</linearGradient>
<clipPath id="clip0_15_4612">
<rect width="120" height="114" fill="white"/>
</clipPath>
</defs>
</svg>
