<svg width="100" height="95" viewBox="0 0 100 95" fill="none" xmlns="http://www.w3.org/2000/svg">
<g clip-path="url(#clip0_15_4612)">
<path fill-rule="evenodd" clip-rule="evenodd" d="M5.53114 75.7143H7.47994L6.5057 72.9488L5.53114 75.7143ZM1.84961 79.6841V78.0694H2.71554L5.17003 72.184H4.29771V70.5693H7.16714L10.313 78.0754V78.0694H11.1797V79.6841H7.59417V78.0694H8.46053L8.1534 77.3286H4.91726L4.59882 78.0694H5.46479V79.6841H1.84961Z" fill="#053182"/>
<path fill-rule="evenodd" clip-rule="evenodd" d="M17.9052 73.1841C17.5967 72.7828 17.2535 72.4902 16.8767 72.3075C16.4996 72.1249 16.0464 72.0337 15.5171 72.0337C14.5665 72.0337 13.8102 72.3668 13.2492 73.0337C13.0166 73.3025 12.8331 73.6221 12.6989 73.9912C12.5641 74.3611 12.4974 74.7324 12.4974 75.1057C12.4974 75.6638 12.6334 76.1821 12.9061 76.6603C13.1792 77.1378 13.5499 77.5166 14.0193 77.7957C14.4886 78.0747 14.9995 78.2139 15.5531 78.2139C15.9902 78.2139 16.3823 78.1318 16.7291 77.9671C17.076 77.8024 17.4359 77.5275 17.809 77.1419H19.7941C19.4372 77.9735 18.8806 78.6317 18.1248 79.1178C17.3685 79.6036 16.5239 79.847 15.5891 79.847C15.1519 79.847 14.7261 79.7903 14.3106 79.6778C13.896 79.5656 13.5136 79.407 13.1649 79.2023C12.8158 78.997 12.4944 78.7495 12.1997 78.4581C11.9046 78.167 11.6551 77.8478 11.4506 77.5005C11.2461 77.1532 11.0865 76.7736 10.9722 76.3622C10.858 75.9503 10.8008 75.5276 10.8008 75.094C10.8008 74.4593 10.9251 73.8529 11.1738 73.2745C11.4221 72.6961 11.7551 72.198 12.1723 71.7806C12.5896 71.363 13.087 71.0296 13.6642 70.7806C14.2417 70.5315 14.8475 70.407 15.4808 70.407C16.0546 70.407 16.6078 70.5015 17.1412 70.6906C17.5142 70.8268 17.8611 71.0435 18.1817 71.3409V70.5695H19.7941V73.1841H17.9052Z" fill="#053182"/>
<path fill-rule="evenodd" clip-rule="evenodd" d="M27.7822 73.1841C27.4736 72.7828 27.1306 72.4902 26.7537 72.3075C26.3766 72.1249 25.9234 72.0337 25.3941 72.0337C24.4435 72.0337 23.6873 72.3668 23.1263 73.0337C22.8937 73.3025 22.7101 73.6221 22.576 73.9912C22.4411 74.3611 22.3744 74.7324 22.3744 75.1057C22.3744 75.6638 22.5105 76.1821 22.7831 76.6603C23.0562 77.1378 23.4269 77.5166 23.8963 77.7957C24.3656 78.0747 24.8765 78.2139 25.4301 78.2139C25.8672 78.2139 26.2593 78.1318 26.6062 77.9671C26.953 77.8024 27.313 77.5275 27.6861 77.1419H29.6712C29.3142 77.9735 28.7577 78.6317 28.0018 79.1178C27.2456 79.6036 26.401 79.847 25.4661 79.847C25.029 79.847 24.6031 79.7903 24.1877 79.6778C23.7731 79.5656 23.3907 79.407 23.042 79.2023C22.6929 78.997 22.3715 78.7495 22.0767 78.4581C21.7816 78.167 21.5321 77.8478 21.3276 77.5005C21.1231 77.1532 20.9635 76.7736 20.8493 76.3622C20.735 75.9503 20.6777 75.5276 20.6777 75.094C20.6777 74.4593 20.8022 73.8529 21.0508 73.2745C21.2992 72.6961 21.6321 72.198 22.0493 71.7806C22.4666 71.363 22.964 71.0296 23.5412 70.7806C24.1188 70.5315 24.7245 70.407 25.3578 70.407C25.9316 70.407 26.4848 70.5015 27.0182 70.6906C27.3912 70.8268 27.7381 71.0435 28.0587 71.3409V70.5695H29.6712V73.1841H27.7822Z" fill="#053182"/>
<path fill-rule="evenodd" clip-rule="evenodd" d="M35.2591 72.0337C34.4287 72.0337 33.7201 72.3338 33.1323 72.9343C32.5451 73.5348 32.2514 74.2624 32.2514 75.1183C32.2514 75.5474 32.3316 75.9533 32.4919 76.3351C32.6522 76.7161 32.8687 77.0448 33.1418 77.3197C33.414 77.595 33.741 77.8125 34.1223 77.9734C34.5029 78.1343 34.9063 78.2142 35.331 78.2142C36.1932 78.2142 36.9102 77.9232 37.4821 77.3406C38.0532 76.7586 38.339 76.026 38.339 75.1419C38.339 74.2463 38.0473 73.5044 37.4637 72.9162C36.8801 72.3277 36.1453 72.0337 35.2591 72.0337ZM35.3674 70.407C36.0007 70.407 36.6067 70.5315 37.1843 70.7805C37.7619 71.0296 38.2589 71.3642 38.6758 71.7835C39.093 72.2032 39.4249 72.7043 39.6713 73.2868C39.9178 73.8694 40.0417 74.4795 40.0417 75.1183C40.0417 75.9938 39.835 76.7927 39.4219 77.5154C39.0088 78.2382 38.4432 78.8076 37.7256 79.2236C37.0075 79.6388 36.2134 79.847 35.3434 79.847C34.6856 79.847 34.0609 79.7243 33.4694 79.4794C32.878 79.2344 32.3694 78.9021 31.9443 78.482C31.5196 78.0627 31.1813 77.5604 30.9308 76.9765C30.6802 76.392 30.5547 75.7766 30.5547 75.1299C30.5547 74.4754 30.679 73.8559 30.9281 73.2714C31.1764 72.6875 31.5132 72.1863 31.9386 71.7689C32.3638 71.351 32.8739 71.0194 33.4694 70.7749C34.0651 70.5296 34.6976 70.407 35.3674 70.407Z" fill="#053182"/>
<path fill-rule="evenodd" clip-rule="evenodd" d="M41.9425 72.184H41.0762V70.5693H44.4992V72.184H43.6332V78.0694H46.5926V72.184H45.7266V70.5693H49.1433V72.184H48.2769V78.0694H49.6306V81.4732H48.4515L48.1024 79.6841H41.0762V78.0694H41.9425V72.184Z" fill="#053182"/>
<path fill-rule="evenodd" clip-rule="evenodd" d="M51.5792 72.184H50.7129V70.5693H54.1239V72.184H53.2572V76.8826L57.2095 70.5693H59.7906V72.184H58.9242V78.0694H59.7906V79.6841H56.3795V78.0694H57.2458V73.3647L53.2935 79.6841H50.7129V78.0694H51.5792V72.184Z" fill="#053182"/>
<path fill-rule="evenodd" clip-rule="evenodd" d="M63.9431 75.7143H65.892L64.9178 72.9488L63.9431 75.7143ZM60.2617 79.6841V78.0694H61.1277L63.5821 72.184H62.7098V70.5693H65.5792L68.7255 78.0754V78.0694H69.5918V79.6841H66.0066V78.0694H66.8725L66.5658 77.3286H63.3292L63.0109 78.0694H63.8769V79.6841H60.2617Z" fill="#053182"/>
<path fill-rule="evenodd" clip-rule="evenodd" d="M70.8957 72.184H70.0293V70.5693H73.4524V72.184H72.5864V78.0694H75.5457V72.184H74.6798V70.5693H78.0965V72.184H77.2301V78.0694H78.5838V81.4732H77.4047L77.0556 79.6841H70.0293V78.0694H70.8957V72.184Z" fill="#053182"/>
<path fill-rule="evenodd" clip-rule="evenodd" d="M80.5324 72.184H79.666V70.5693H83.0771V72.184H82.2104V76.8826L86.1627 70.5693H88.7438V72.184H87.8774V78.0694H88.7438V79.6841H85.3327V78.0694H86.199V73.3647L82.2468 79.6841H79.666V78.0694H80.5324V72.184Z" fill="#053182"/>
<path fill-rule="evenodd" clip-rule="evenodd" d="M94.4109 72.184H93.6588C92.9332 72.184 92.4438 72.2826 92.1909 72.4792C91.8823 72.7163 91.728 73.0696 91.728 73.5392C91.728 74.0212 91.8744 74.3718 92.1673 74.5905C92.4598 74.8095 92.9332 74.9187 93.5868 74.9187H94.4109V72.184ZM96.1012 78.0694H96.9676V79.6841H93.5446V78.0694H94.4109V76.1898L92.0227 79.6841H89.9414V78.0694H91.1204L92.4018 76.3166C92.0609 76.2281 91.7912 76.1389 91.5928 76.0484C91.3938 75.9585 91.2006 75.8365 91.0123 75.6843C90.3545 75.1539 90.0256 74.4228 90.0256 73.4912C90.0256 72.5636 90.3246 71.831 90.9219 71.2924C91.2227 71.0236 91.5617 70.8356 91.9385 70.729C92.3153 70.6229 92.827 70.5693 93.4726 70.5693H96.9676V72.184H96.1012V78.0694Z" fill="#053182"/>
<path fill-rule="evenodd" clip-rule="evenodd" d="M99.6424 28.5569C100.014 27.7026 100.144 26.8175 99.799 25.9419C97.9741 27.4126 96.1918 28.8905 94.3644 30.3104C92.7097 31.596 90.9068 32.6309 89.0231 33.461C88.78 34.1683 88.5513 34.7504 88.3664 35.0769C86.3282 38.6732 84.2715 40.0769 83.4312 40.5329C83.5463 40.6543 83.6573 40.8204 83.7143 41.0398C83.8491 41.5629 83.6311 42.1875 83.0654 42.8963C82.4835 43.6249 80.9134 44.3291 79.9324 44.7177C80.3847 44.8543 80.85 45.0893 80.9393 45.4843C81.034 45.902 80.7058 46.3343 79.9356 46.8056C79.4076 47.1286 76.8454 47.8515 75.6674 48.1742C75.9506 48.3797 76.2352 48.654 76.2515 48.9368C76.2572 49.0387 76.2337 49.2318 76.0115 49.3815C75.133 49.9739 74.2154 50.1553 73.4219 50.1553C72.2123 50.1553 71.2893 49.734 71.2269 49.7048C71.1033 49.6467 71.0498 49.4994 71.1072 49.3752C71.165 49.2509 71.3117 49.1974 71.4364 49.2549C71.4591 49.2655 73.7532 50.3057 75.7347 48.9698C75.7454 48.84 75.3456 48.5191 74.9341 48.3052C74.843 48.2579 74.791 48.1592 74.8019 48.0574C74.8133 47.9558 74.8856 47.8714 74.9849 47.8452C76.1207 47.5417 79.1779 46.6874 79.6772 46.3822C80.4775 45.8924 80.4665 45.6397 80.4555 45.594C80.3998 45.3484 79.6432 45.1035 78.9993 45.0374C78.8831 45.025 78.7912 44.9342 78.778 44.8178C78.765 44.7021 78.8344 44.5927 78.9451 44.5551C78.9748 44.5456 81.9143 43.5422 82.678 42.5861C83.1348 42.0143 83.3269 41.5228 83.2345 41.1639C83.1519 40.8449 82.8623 40.7182 82.8595 40.7168C82.7653 40.6781 82.7047 40.5862 82.7061 40.484C82.7071 40.3821 82.7709 40.2912 82.8655 40.2551C82.8914 40.2454 85.4414 39.2322 87.9358 34.832C88.0889 34.5616 88.2771 34.0928 88.4805 33.515C88.7473 32.5681 89.0096 31.6357 89.2712 30.7048C89.1922 30.6668 89.1124 30.6289 89.0331 30.5905C88.7899 30.8031 88.5325 31.0022 88.3051 31.2304C86.3491 33.1942 84.1103 34.7252 81.5294 35.7554C79.7779 36.4546 78.0204 37.146 76.3075 37.9321C74.7409 38.6512 73.8362 39.9211 73.5694 41.6541C73.4676 42.3138 73.295 42.98 73.0398 43.5955C72.3204 45.3295 69.5652 46.67 67.8874 44.3376C67.3547 43.5968 66.7854 42.8824 66.2326 42.1566C65.5645 41.2786 65.1333 41.1657 64.3362 41.9728C62.8406 43.4865 61.4112 45.0701 60.0144 46.6771C59.8762 46.8365 59.7426 46.9987 59.6133 47.1641L65.4575 54.9987C65.7403 54.7832 66.0206 54.5636 66.3059 54.3514C66.4488 54.9522 66.5459 55.5524 66.7344 56.1216C67.3479 57.975 69.4418 58.452 70.7755 57.0377C71.0505 56.7463 71.2394 56.72 71.6027 56.8616C72.6705 57.2783 73.6664 57.021 74.2561 56.1269C74.6194 55.5768 74.9668 55.437 75.6338 55.5482C77.858 55.9187 78.7465 55.2035 78.9624 53.1248C79.9196 52.9229 80.8795 52.8355 81.7495 52.5083C82.84 52.0984 82.8173 51.0496 82.7762 50.0551C84.0493 49.9476 85.222 49.5963 86.2782 48.907C87.1734 48.3225 87.2007 47.9896 86.3572 47.306C85.9738 46.9955 85.5261 46.7648 85.0154 46.439C85.3871 46.3819 85.6427 46.3464 85.8972 46.3031C87.5324 46.0244 89.1468 45.6894 90.4857 44.6055C91.0429 44.1544 91.0812 43.945 90.5438 43.4712C90.1852 43.1554 89.7464 42.93 89.3282 42.6542C91.2038 41.96 93.0609 41.215 94.3445 39.3206C93.489 39.0306 92.681 38.7566 91.835 38.4699C92.1497 38.3063 92.4397 38.165 92.7207 38.0088C94.6426 36.942 96.515 35.8233 97.7746 33.9206C98.0557 33.4965 98.0167 33.2527 97.6193 33.034C97.2482 32.8296 96.8545 32.6664 96.436 32.4683C96.5643 32.3505 96.6734 32.2501 96.7837 32.1503C97.932 31.1079 99.0115 30.0059 99.6424 28.5569Z" fill="#053182"/>
<path d="M29.3535 20.1209C29.3535 31.2336 38.3491 40.2418 49.4464 40.2418C55.3054 40.2418 60.5781 37.7299 64.2509 33.7234L64.2985 33.6316C64.2182 33.5719 64.133 33.5079 64.0444 33.4415C64.0998 33.2988 64.1558 33.1556 64.2252 32.977C63.3778 33.3933 63.0508 34.1863 62.6801 34.9429C62.6107 34.9125 62.5408 34.8825 62.4711 34.8521C62.5562 34.4341 62.641 34.016 62.7352 33.5548C62.2393 33.8175 61.7486 34.0752 61.2611 34.3379C61.1596 34.3925 61.0751 34.5033 60.9707 34.5222C60.8294 34.5481 60.6762 34.5096 60.5282 34.499C60.5722 34.3705 60.6059 34.237 60.663 34.1139C60.7358 33.9553 60.8457 33.8123 60.9079 33.6505C61.1507 33.02 61.3739 32.3823 61.6213 31.7539C61.69 31.5797 61.8066 31.4212 61.9214 31.2709C61.9996 31.167 62.1001 31.0685 62.2118 31.0035C63.3359 30.3464 64.2506 29.4657 65.0124 28.4151C65.1151 28.2736 65.2522 28.1573 65.3933 28.0084C65.4847 28.0664 65.5755 28.1244 65.6612 28.1789C65.6996 28.1516 65.7371 28.1398 65.745 28.117C66.1506 26.9711 66.5562 25.825 66.9544 24.676C67.022 24.4803 66.8074 23.9902 66.6833 23.8333C66.5903 23.7152 66.582 23.53 66.5355 23.3748C66.5813 23.3978 66.6266 23.4209 66.672 23.444C66.7874 23.336 66.9837 23.243 67.0061 23.1182C67.3177 21.3656 67.5664 19.6045 67.486 17.8162C67.4531 17.0975 67.3812 16.3801 67.3267 15.6619C67.2912 15.196 67.2545 14.7301 67.2178 14.2618C68.1075 14.8909 68.4669 15.7835 68.8365 16.7222C69.2307 17.7231 69.4379 18.7387 69.5346 19.7665C69.3455 8.81777 60.4248 0 49.4464 0C46.5992 0 43.8908 0.593977 41.437 1.6636C41.6891 1.65154 41.9642 1.72649 42.2044 1.81281C42.2965 1.8456 42.3006 2.12449 42.368 2.37719C42.6044 2.50023 43.2147 2.38003 43.0206 2.98596C42.4075 3.22155 41.7855 3.4581 41.1655 3.69965C41.0154 3.75768 40.8475 3.80375 40.7299 3.90415C40.4094 4.1764 40.0619 4.22328 39.6629 4.14421C39.5164 4.11553 39.343 4.1572 39.196 4.20749C38.5078 4.44542 37.8248 4.69773 37.1397 4.9435C37.0895 4.96171 37.0353 4.96867 36.8741 5.00607C37.4747 4.25214 38.2107 3.88144 38.951 3.52276C39.4993 3.25676 40.0709 3.03664 40.6097 2.75396C40.869 2.61835 41.0775 2.38453 41.3186 2.12871C40.9487 2.26149 40.5661 2.36803 40.2106 2.53274C39.4591 2.87981 38.7231 3.26041 37.9749 3.61543C37.9664 3.61944 37.9568 3.62107 37.9463 3.62086C32.7517 7.25833 29.3535 13.2918 29.3535 20.1209ZM37.0025 10.9749C36.7784 11.3129 36.5547 11.6505 36.3307 11.9878C36.3931 12.0329 36.4559 12.078 36.5181 12.1226C36.7177 11.7658 36.9173 11.4083 37.1165 11.0515C37.0788 11.0259 37.0405 11.0005 37.0025 10.9749ZM60.9339 19.0884C61.0774 18.8877 61.1842 18.7384 61.2903 18.5892C61.2484 18.5602 61.2062 18.5311 61.1643 18.5023C60.7319 18.5892 60.7287 18.5949 60.9339 19.0884ZM64.8238 19.8873C64.8231 19.8844 64.8227 19.882 64.822 19.8796C64.822 19.8796 64.8195 19.8821 64.8175 19.8846C64.8193 19.8824 64.8217 19.88 64.8217 19.88C64.8182 19.8793 64.8144 19.8786 64.811 19.8779C64.8099 19.8834 64.8102 19.8884 64.8092 19.8943C64.8147 19.8905 64.8182 19.8907 64.8238 19.8873C64.8544 20.0316 64.8845 20.1764 64.9149 20.3211H64.4015C64.5471 20.5916 64.686 20.8495 64.8251 21.1074C64.8848 21.0983 64.9446 21.0886 65.0043 21.0795V20.412L65.2688 20.4856L65.272 20.5064L65.2723 20.5061C65.2796 20.5122 65.2831 20.5185 65.2901 20.5248C65.288 20.5129 65.2908 20.5031 65.288 20.4906L65.2688 20.4856C65.2451 20.3432 65.2272 20.1997 65.1945 20.06C65.1438 19.843 65.0254 19.7622 64.8238 19.8873ZM63.9789 20.6654L63.6107 21.5993C63.6529 21.6165 63.6952 21.6339 63.7373 21.6507C63.8818 21.3449 64.026 21.0391 64.1704 20.7329C64.1066 20.7106 64.0431 20.6878 63.9789 20.6654ZM67.114 12.4613C66.9304 12.2327 66.7714 12.0342 66.5312 11.7358C66.5431 12.3557 66.6202 12.4435 67.114 12.4613ZM64.2644 26.6955C63.8701 26.8249 63.558 26.9272 63.2178 27.0387C63.6163 27.2436 63.9863 27.1422 64.2644 26.6955ZM66.0916 22.7139C66.0407 23.0749 65.9893 23.4363 65.9328 23.8369C66.3016 23.6638 66.3568 23.373 66.0916 22.7139ZM63.2504 17.234C63.1319 16.8556 63.025 16.5155 62.8862 16.0719C62.5887 16.743 62.6927 17.03 63.2504 17.234ZM38.6296 5.3728C39.0075 5.24631 39.322 5.14108 39.6364 5.03596C38.9635 4.69592 38.7932 4.75771 38.6296 5.3728ZM43.4058 4.08416C43.7957 3.98102 44.1488 3.88807 44.5886 3.77198C43.8407 3.34804 43.4316 3.46765 43.4058 4.08416ZM64.3629 26.8772C64.6478 26.7866 64.9329 26.6961 65.2975 26.5804C65.1782 26.7999 65.0927 26.9578 65.0068 27.1162C65.0386 27.1392 65.07 27.1627 65.1018 27.1864C65.3593 26.8925 65.6168 26.5989 65.8744 26.3053C65.8496 26.2761 65.8245 26.247 65.7998 26.2177C65.308 26.4001 64.8163 26.5819 64.3242 26.764C64.3371 26.8017 64.35 26.8395 64.3629 26.8772ZM47.1978 4.53695C46.6554 4.42278 46.2216 4.53174 45.8775 4.89974C45.7613 5.0246 45.7041 5.20447 45.6196 5.35971C45.7976 5.42128 45.9755 5.48304 46.2035 5.56271C46.0416 4.67579 46.8502 4.8743 47.1978 4.53695ZM64.643 21.6846C64.7957 21.5888 64.9081 21.5182 64.9981 21.4616C65.1272 21.6507 65.2364 21.8111 65.3673 22.0033C65.5773 21.4351 65.758 20.9456 65.2901 20.5248C65.3772 21.0523 64.7474 21.21 64.643 21.6846ZM61.5907 9.89464C61.8273 10.2314 62.0611 10.5637 62.3588 10.9872C62.689 10.0583 62.4252 9.75281 61.5907 9.89464ZM53.7003 22.772C53.7625 23.1547 53.8245 23.5391 53.8917 23.9526C54.4329 23.7115 54.5066 23.6013 54.4004 23.2997C54.2878 22.9788 53.9589 22.7126 53.7003 22.772ZM63.1806 27.171C63.1363 27.0599 63.1157 26.8858 63.0497 26.8662C62.8139 26.796 62.5629 26.7579 62.3164 26.7488C62.1706 26.7433 62.0219 26.8477 61.8754 26.8453C61.6646 26.8417 61.4551 26.7862 61.2451 26.7529C61.1665 26.8485 61.088 26.9439 61.0057 27.0445C61.4429 27.2259 62.4868 27.2892 63.1806 27.171ZM61.2451 26.7529C61.2479 26.7494 61.2511 26.7455 61.2538 26.7421L61.2549 26.7414C61.2511 26.7421 61.246 26.7412 61.2417 26.7421C61.2305 26.5275 61.1876 26.3066 61.2253 26.1008C61.2452 25.9921 61.4027 25.8943 61.5171 25.8225C61.5942 25.7744 61.7066 25.7851 61.7991 25.7561C61.8085 25.7529 61.7868 25.6129 61.7834 25.6129C61.6676 25.6177 61.5519 25.6324 61.4732 25.6416C61.3699 25.5468 61.2689 25.4541 61.1677 25.3616C61.1147 25.4416 61.0612 25.5216 61.0309 25.5674L60.5825 24.7273C60.5862 24.7294 60.5889 24.7315 60.5924 24.7336C60.5924 24.7333 60.5899 24.7311 60.5885 24.7294C60.5896 24.7308 60.591 24.7319 60.5921 24.7333L60.5862 24.7267C60.5819 24.7225 60.5773 24.7175 60.5773 24.7175C60.6601 24.735 60.7421 24.7525 60.9375 24.7941C60.8441 24.545 60.7815 24.3673 60.7107 24.1933C60.6632 24.0763 60.5546 23.9619 60.5593 23.8494C60.5805 23.3168 60.2106 23.1179 59.8476 22.8457C59.5648 22.6339 59.3209 22.2837 59.2155 21.9465C59.1237 21.6535 59.2512 21.2925 59.2916 20.8578C59.7659 21.3872 60.5797 21.4044 60.7111 22.3365C60.9672 21.9863 61.1413 21.7207 61.3445 21.4784C61.639 21.1261 61.6795 20.7428 61.4288 20.3832C61.089 19.8959 60.6971 19.4451 60.323 18.9824C60.1956 18.8244 60.2804 18.1024 60.5027 18.0139C60.6469 17.957 60.8737 18.1076 61.0345 18.1562C61.155 18.0175 61.3253 17.8186 61.4984 17.6219C61.7252 17.3649 62.0795 17.1433 62.1576 16.8477C62.3479 16.1271 62.7649 15.3263 61.9046 14.7123C61.8614 14.2094 61.3839 14.08 61.1041 13.7812C60.9661 13.6341 60.7481 13.5222 60.6894 13.3517C60.6312 13.1833 60.7267 12.961 60.7693 12.664C60.5446 12.7181 60.3421 12.7674 60.0483 12.8383C59.5021 12.5242 59.4923 12.4952 59.8598 11.7968C59.9813 12.0502 60.0769 12.2484 60.1729 12.4487C60.4096 12.3428 60.4601 11.802 60.7487 12.2253C60.9016 12.4487 61.0332 12.5171 61.2669 12.5119C61.3305 12.5105 61.417 12.5451 61.4558 12.5927C61.6589 12.8477 61.8501 13.112 62.0456 13.373C62.4427 13.0456 62.4253 12.7804 61.9929 12.4689C61.5992 12.1851 61.1451 12.0358 61.0028 11.425C60.9166 11.0556 60.8053 10.8644 61.2425 10.7274C60.9393 10.134 60.657 9.58217 60.3191 8.9219C60.5801 9.12814 60.754 9.27383 60.9368 9.40742C61.0904 9.51992 61.2548 9.61781 61.4143 9.72222C60.7951 8.87967 60.0116 8.29747 59.0606 7.89415C59.1089 7.98639 59.1392 8.04332 59.1886 8.13691C58.7671 8.08882 58.3051 8.16498 58.0429 7.97028C57.7675 7.76585 57.6841 7.3028 57.4845 6.88436C57.91 6.82037 58.2586 6.76799 58.6826 6.70478C58.521 6.53488 58.3399 6.34483 58.1592 6.1547C58.4199 6.31094 58.7008 5.87752 58.936 6.21163C59.3373 6.78094 59.8385 7.24151 60.4974 7.51699C60.8176 7.65047 61.1155 7.8368 61.4236 7.99938C60.985 7.06899 60.1917 6.61676 59.3224 6.29333C59.4327 6.11765 59.5066 5.99957 59.5527 5.92643C59.4902 5.69996 59.4393 5.51576 59.3837 5.31584C59.1481 5.23868 58.8833 5.15155 58.6181 5.06424L58.6446 4.95067C58.8125 4.93385 58.98 4.91777 59.1478 4.90106C58.967 4.72449 58.773 4.57188 58.5759 4.56797C57.9473 4.55466 57.2834 4.47783 56.6965 4.64694C55.9032 4.8755 55.1308 4.91092 54.3295 4.85669C54.0876 4.84019 53.7722 4.7938 53.6127 4.91848C53.3122 5.15226 53.0599 5.20621 52.7262 5.04401C52.5601 4.96324 52.3664 4.88285 52.189 4.89059C51.7099 4.91153 51.2328 4.97974 50.7261 5.03244C50.8817 4.66795 50.6692 4.62813 50.4545 4.58547C50.2267 4.54008 49.9873 4.52049 49.7754 4.43446C49.4802 4.31492 49.2118 4.13044 48.9183 4.00526C48.8377 3.97137 48.7088 4.05005 48.6028 4.07692L48.6076 4.18556C48.9448 4.28696 49.2823 4.38867 49.671 4.50608C49.5674 4.58749 49.5188 4.64211 49.4579 4.67139C49.173 4.80839 48.8903 4.95167 48.5972 5.06737C48.363 5.15961 48.1146 5.21565 47.7624 5.32077C47.7763 5.3931 47.8102 5.59441 47.8517 5.79433C47.8759 5.91074 47.9111 6.02541 47.941 6.14072C47.901 6.14988 47.8608 6.1585 47.8204 6.16798C47.731 5.85026 47.6413 5.53226 47.5515 5.21384C47.1168 5.19705 46.9779 5.46866 47.2055 5.90971C46.9157 5.76877 46.6312 5.63086 46.4687 5.55146C46.2366 5.68569 46.1071 5.8049 45.9591 5.83738C45.6032 5.91596 45.2384 5.9534 44.8695 6.00923C44.8754 5.96909 44.8898 5.87088 44.9037 5.77268C44.8695 5.75621 44.8357 5.73981 44.8014 5.7237C44.7422 5.81456 44.688 5.90861 44.6224 5.99492C44.5855 6.04394 44.5316 6.11034 44.4832 6.11233C44.4357 6.11375 44.38 6.04947 44.3369 6.00511C44.0385 5.69754 43.7873 5.21565 43.4334 5.12188C42.9741 5.00036 42.3354 5.03315 41.9504 5.27811C41.3984 5.62905 40.8986 6.00759 40.239 6.16205C39.7846 6.26856 39.4646 6.82289 39.5619 7.16084C39.6987 7.13358 39.8366 7.10632 40.0718 7.05983C39.9197 7.33034 39.8112 7.52292 39.7029 7.71475C39.6663 7.69586 39.63 7.67634 39.5933 7.65672C39.6254 7.56032 39.6572 7.46386 39.6889 7.36708C39.6568 7.33769 39.6247 7.30802 39.5923 7.27863C39.4192 7.44643 39.2387 7.60753 39.0758 7.7847C38.9895 7.87836 38.9557 8.06525 38.8597 8.09886C38.4744 8.23249 38.0745 8.3226 37.692 8.42535C37.9823 7.85007 38.2835 7.25319 38.5799 6.66595C38.2667 6.59224 38.0702 6.73519 37.9045 7.00109C37.8403 7.1049 37.6596 7.13216 37.538 7.20449C37.1483 7.43458 36.7615 7.66928 36.3738 7.90239C36.4003 7.95914 36.4264 8.01606 36.453 8.0726C36.69 8.01677 36.9274 7.96116 37.2324 7.88922C37.0393 8.11104 36.884 8.29041 36.7367 8.45963C36.9559 8.51226 37.1796 8.56578 37.4037 8.6193C37.1426 8.76003 36.8832 8.88038 36.6275 8.8726C36.2992 8.86256 36.3312 8.97925 36.2882 9.24767C36.235 9.57866 36.0045 9.89836 35.7888 10.1737C35.7379 10.2388 35.4402 10.0879 35.2531 10.0742C35.0974 10.0634 34.8676 10.0501 34.7921 10.1399C34.4358 10.566 34.1182 11.0245 33.795 11.4775C33.7517 11.5382 33.7304 11.6983 33.7441 11.7039C34.078 11.8411 33.8429 12.0561 33.8264 12.2385C33.6468 12.384 33.4593 12.5175 33.2934 12.6745C33.0269 12.9275 32.7752 13.1966 32.5162 13.458C32.3215 13.6547 32.1558 13.9025 31.9244 14.0353C31.2662 14.4138 30.8222 14.9873 30.5161 15.6395C30.2446 16.2186 30.118 16.8655 29.9197 17.4799C29.7451 18.0199 29.7026 18.5498 29.8004 19.1243C29.9434 19.9704 29.9421 20.8452 30.3915 21.4515C30.7008 21.5438 30.941 21.547 31.0679 21.6682C31.2996 21.8905 31.484 21.8863 31.7551 21.7562C32.2211 21.533 32.4589 21.6682 32.68 22.1459C32.7543 22.3068 32.9553 22.4039 33.0771 22.5479C33.2355 22.7346 33.4743 22.9286 33.4962 23.1381C33.5312 23.4758 33.4041 23.8278 33.3717 24.1761C33.3535 24.3673 33.3466 24.5781 33.4069 24.7556C33.7451 25.7496 34.1203 26.7317 34.4472 27.7291C34.5192 27.9486 34.521 28.246 34.4305 28.4533C34.1611 29.0726 34.2442 29.6471 34.597 30.172C35.3659 31.3166 35.7871 32.6723 36.7532 33.6978C36.8903 33.8434 36.9171 34.0888 37.04 34.2551C37.3628 34.6934 37.8521 34.5543 38.2964 34.5972C39.0705 34.6725 39.3612 34.0032 39.8219 33.6166C39.9692 33.4926 39.9392 33.1567 40.0063 32.8473C40.1029 32.7935 40.2797 32.6956 40.5112 32.5674C40.068 31.7814 40.5541 31.3589 41.1352 30.9706C41.3059 30.8567 41.4765 30.733 41.6147 30.5837C41.7159 30.4747 41.8514 30.2943 41.8227 30.1842C41.6928 29.6865 42.0396 29.0593 41.4339 28.6903C41.4413 28.1391 41.3307 27.5497 41.4908 27.0476C41.6375 26.5891 42.0433 26.1924 42.3955 25.8261C42.8732 25.3292 43.4073 24.886 43.9189 24.4219C44.4856 23.9081 44.7054 23.1969 44.9839 22.5234C45.0388 22.3906 44.9921 22.2156 44.9921 22.0236C44.4231 22.1288 43.8895 22.219 43.3601 22.3301C43.1423 22.3759 43.0233 22.3256 42.8953 22.1295C42.6638 21.7754 42.3591 21.47 42.1282 21.1157C41.902 20.7693 41.7285 20.388 41.5327 20.0218C41.4719 19.9082 41.4084 19.7959 41.3541 19.6795C41.2699 19.499 41.1635 19.3221 41.1181 19.1312C41.0623 18.8946 41.146 18.576 41.0172 18.4127C40.4818 17.7336 40.5659 16.8883 40.351 16.1176C41.4486 17.841 42.2045 19.716 42.8495 21.6505C44.0549 21.3299 45.2185 20.9371 46.2935 20.2583C46.774 19.955 47.1677 19.6729 47.3841 19.1383C47.5683 18.6843 47.5415 18.5437 47.1335 18.2869C46.8623 18.1163 46.6146 17.9084 46.3196 17.69C46.224 17.7774 46.0728 17.9776 45.8718 18.0796C45.7092 18.1624 45.4761 18.1698 45.2953 18.1244C45.2226 18.1062 45.2011 17.8602 45.1683 17.7151C45.147 17.6222 45.148 17.5247 45.1337 17.3709C45.0042 17.4621 44.9208 17.5212 44.8363 17.5809C44.3296 16.7771 44.3018 16.6664 44.539 16.0894C44.6943 16.2927 44.837 16.4311 44.9215 16.5981C45.2476 17.2451 45.9025 17.5316 46.5419 17.3069C46.6676 17.408 46.7699 17.5544 46.8979 17.5823C47.3841 17.6893 47.8793 17.8314 48.3689 17.8225C49.0192 17.8102 49.5841 17.8717 49.9921 18.4502C50.0694 18.5595 50.2357 18.6053 50.3635 18.6811C50.2916 18.7087 50.213 18.7382 50.1137 18.7762C50.3342 18.9779 50.5386 19.1648 50.7855 19.3906C50.9079 19.204 51.0154 19.0415 51.1341 18.8611C51.1757 19.0349 51.206 19.204 51.2565 19.3669C51.4168 19.8819 51.549 20.4097 51.7588 20.9043C52.0526 21.5991 52.3985 22.2732 52.7426 22.9456C52.8054 23.0679 52.9552 23.1624 53.0861 23.2259C53.1387 23.2514 53.2895 23.1812 53.3255 23.1162C53.6127 22.5902 53.8221 22.0554 53.7136 21.4208C53.6556 21.0825 53.4644 20.5904 54.1138 20.5278C54.1341 20.5261 54.1529 20.4866 54.1687 20.4625C54.5086 19.927 54.8447 19.3895 55.1909 18.858C55.2345 18.7908 55.3207 18.7364 55.3988 18.7091C55.6899 18.6098 55.9862 18.5242 56.3151 18.4228C56.5666 19.0935 57.4632 19.4448 57.4678 20.4894C57.7732 20.2912 57.985 20.1539 58.2227 19.9993C58.5391 20.5907 58.9514 21.1778 58.913 21.9257C58.8892 22.384 58.9887 22.7558 59.3886 23.0361C59.515 23.1248 59.5642 23.3279 59.6413 23.4824C59.7175 23.6355 59.7558 23.8173 59.8608 23.9448C60.0831 24.216 60.3362 24.462 60.5773 24.7179L60.5825 24.7273C60.1232 24.4352 59.6325 24.1803 59.2169 23.835C58.937 23.6022 58.5953 23.4453 58.2051 23.6159C58.3981 23.7895 58.5861 23.9507 58.7642 24.1223C58.9533 24.304 59.2799 24.4899 59.288 24.6846C59.308 25.1645 59.6611 25.442 59.8252 25.8247C60.0803 26.417 60.78 26.8251 61.2417 26.7421C61.242 26.7456 61.2423 26.7488 61.2423 26.7522C61.2434 26.7526 61.244 26.7526 61.2451 26.7529ZM61.3041 4.27389C62.2757 5.28706 63.247 6.30057 64.2608 7.35771C63.6801 5.88568 62.3664 5.20035 61.3041 4.27389ZM64.093 18.8681C64.1903 18.4477 63.9003 18.1696 63.5126 18.2915C63.5095 18.9877 63.768 19.5857 64.2221 20.2256V19.7803C64.4231 19.8139 64.6169 19.8461 64.811 19.8779C64.8605 19.5872 64.6717 19.4026 64.443 19.414C63.9405 19.4388 64.0194 19.1849 64.093 18.8681ZM64.4087 24.2668C64.3834 24.4248 64.3353 24.5821 64.3305 24.7407C64.3189 25.1207 64.3269 25.5012 64.3269 25.8819L64.5199 25.891C64.5604 25.5824 64.6005 25.2737 64.6407 24.9648C64.6714 24.9686 64.7024 24.9725 64.7333 24.976C64.7746 25.1546 64.8162 25.3328 64.8665 25.5488C64.9904 25.4513 65.0874 25.3747 65.1852 25.2979C65.1443 25.2925 65.1038 25.2873 65.0637 25.2821C65.0343 24.9347 65.0054 24.5877 64.9786 24.262C64.9237 24.2952 64.812 24.3627 64.6755 24.4458C64.4864 24.0592 64.5911 23.8841 64.9709 23.8401C65.3062 23.8017 65.6091 23.7045 65.6164 23.3114C65.4633 23.3973 65.3206 23.5375 65.1653 23.5539C64.5151 23.621 64.514 23.6073 64.4087 24.2668ZM63.6889 13.1508C63.9593 12.6517 64.014 12.2389 63.6375 11.7682C63.3238 11.3767 63.06 10.977 62.5144 10.8186C62.7908 11.3438 63.3596 11.7643 63.0415 12.5199C62.6132 12.6205 62.7413 13.0567 62.8372 13.3755C62.9088 13.6141 63.1897 13.7899 63.3775 13.9938C63.4308 13.9514 63.4839 13.9088 63.537 13.8665C63.4047 13.6477 63.2721 13.429 63.1154 13.1707C63.1583 13.1095 63.2372 12.9973 63.3181 12.8813C63.4665 12.9892 63.5798 13.071 63.6889 13.1508ZM45.5737 13.3426C45.6928 13.4456 45.5988 13.7941 45.6027 14.03C45.4017 14.0289 45.1647 14.0964 45.0056 14.0143C44.3851 13.6928 44.3885 13.6469 44.7481 13.0469C44.569 12.6258 44.4084 12.2466 44.2458 11.868C44.235 11.8421 44.199 11.8247 44.1928 11.7992C44.1503 11.6157 44.6681 11.1994 45.0576 11.1268C45.2845 11.0841 45.5158 11.0855 45.4984 11.4176C45.2409 11.5189 45.0276 11.6027 44.7543 11.7101C45.1333 12.1386 45.4457 12.4908 45.7754 12.8634C45.4583 12.9406 45.1465 12.972 45.5737 13.3426ZM42.4265 12.5989C42.2021 12.5747 41.92 12.5188 41.7829 12.3681C41.4929 12.0512 41.1931 12.1438 40.8546 12.1826C40.6529 12.2052 40.4379 12.1092 40.2291 12.0666C40.3045 11.889 40.3513 11.6894 40.4626 11.5384C40.6588 11.2732 40.8946 11.0372 41.1135 10.7892C41.1662 10.7874 41.2189 10.7856 41.2723 10.7835C41.2852 10.8943 41.2807 11.0114 41.3163 11.1149C41.3613 11.2477 41.4381 11.3693 41.5103 11.5137C41.6814 11.4424 41.8544 11.3696 42.1204 11.2586C41.9794 11.204 41.8768 11.1646 41.7742 11.1246C41.7931 11.075 41.8116 11.0246 41.83 10.9752C42.0085 10.9265 42.1867 10.8779 42.4862 10.7965C42.3762 11.0457 42.3176 11.1789 42.2632 11.3019C42.44 11.5423 42.6387 11.7705 42.7891 12.0264C42.9876 12.364 42.8156 12.6415 42.4265 12.5989ZM40.6954 15.3646C40.6522 15.4311 40.4054 15.3829 40.2589 15.3567C40.151 15.3371 40.0292 15.2018 39.9535 15.2291C39.1741 15.5076 38.7493 14.939 38.2587 14.5368C38.0744 14.3854 37.6065 14.4672 37.4937 14.6842C37.4201 14.8255 37.3321 14.9593 37.2501 15.0967C37.0553 14.946 36.7015 14.8013 36.6962 14.6447C36.682 14.2302 36.3755 14.1383 36.1514 13.9399C36.0648 13.863 35.999 13.7623 35.948 13.7015C36.1033 13.4142 36.2674 13.1541 36.38 12.8734C36.4098 12.8002 36.2914 12.5765 36.224 12.5684C35.6097 12.4971 35.0057 12.2647 34.3659 12.4904C34.2389 12.5349 34.0264 12.3353 33.8484 12.2407C34.0285 12.1956 34.2179 12.1707 34.382 12.0928C34.6235 11.9771 34.851 11.8282 35.0716 11.6748C35.3539 11.4776 35.6244 11.2637 35.8974 11.0541C35.9874 10.9848 36.0673 10.9027 36.1573 10.8329C36.2341 10.7734 36.3804 10.6662 36.3915 10.6781C36.6826 10.9887 36.9542 10.7147 37.1432 10.6606C37.2978 11.1568 37.4501 11.6227 37.5873 12.0928C37.6595 12.3405 37.5642 12.494 37.2916 12.5024C37.1488 12.5065 37.0058 12.5031 36.7548 12.5031C36.9 12.7457 36.9915 12.8978 37.1 13.0788C37.4081 12.7779 37.6891 12.5031 38.0252 12.175C37.9882 12.1617 38.0737 12.1925 38.2782 12.2666C38.0933 11.8887 37.8937 11.6179 37.8347 11.3198C37.7794 11.0412 37.8741 10.7333 37.9066 10.3968C38.1059 10.8098 38.2807 11.1196 38.4021 11.4484C38.4559 11.5939 38.398 11.7787 38.3989 11.9457C38.4021 12.3822 38.4011 12.8191 38.4247 13.2546C38.4286 13.328 38.5483 13.3947 38.5828 13.4314C38.7591 13.2762 38.9112 13.1421 39.1081 12.9691C39.1081 12.8062 39.056 12.5255 39.1391 12.2932C39.1642 12.2219 39.5584 12.2822 39.8211 12.2822C39.4519 12.6713 39.4448 12.8712 39.6071 13.6061C39.7614 13.6645 39.8686 13.7341 39.9792 13.7393C40.1031 13.7446 40.2297 13.6921 40.4064 13.6536C40.5809 14.0595 40.9742 13.9172 41.3713 13.8194C41.3695 14.481 40.9921 14.9103 40.6954 15.3646ZM39.417 26.1196C38.9756 26.0381 39.2974 25.6569 39.2066 25.4185C39.246 25.3713 39.2855 25.3244 39.3249 25.2774L39.8728 25.5967C39.7193 25.7816 39.5329 26.141 39.417 26.1196ZM39.381 7.82129C39.8436 8.12463 40.1444 7.84372 40.4526 7.55461C40.7223 7.30227 41.0137 7.09954 41.1708 6.71344C41.2622 6.48789 41.6451 6.38064 41.9354 6.27442C41.7753 6.53446 41.615 6.79443 41.4054 7.13557C41.7606 7.1548 41.9808 7.16637 42.2011 7.17823C42.2043 7.2073 42.2073 7.23587 42.2101 7.26497C41.8729 7.30511 41.5361 7.34493 41.2029 7.38408C41.2569 7.54414 41.2892 7.6378 41.3205 7.73114C41.2315 7.7216 41.1296 7.68014 41.0557 7.70942C40.9307 7.75872 40.7768 7.82793 40.7185 7.93419C40.5677 8.21063 40.44 8.37491 40.0766 8.20683C39.8351 8.09464 39.5322 8.11597 39.2569 8.07743C39.2077 8.02007 39.158 7.96215 39.1089 7.9048C39.2014 7.87442 39.3301 7.78768 39.381 7.82129ZM44.3322 29.6318C43.8593 30.3723 43.9071 30.5956 42.9236 30.5348C42.9236 30.8602 42.9421 31.1622 42.9169 31.4607C42.9009 31.6515 42.8782 31.8967 42.7575 32.0118C42.5424 32.2158 42.5432 32.3595 42.7149 32.5685C42.7857 32.6553 42.7855 32.8121 42.866 32.8771C43.0447 33.0215 43.2408 33.1903 43.4534 33.234C43.7036 33.2846 43.8882 33.1563 43.9744 32.8456C44.1728 32.1328 44.4005 31.4243 44.6805 30.74C44.8413 30.3464 44.729 29.8155 44.3322 29.6318ZM63.7785 21.906C63.524 22.313 63.3129 22.6746 63.0779 23.0203C62.8399 23.3705 62.5782 23.7052 62.2871 24.1005C62.2292 24.1201 61.9862 24.1289 61.9308 24.2354C61.8485 24.3938 61.8442 24.6394 61.9046 24.8146C61.9971 25.0843 62.1719 25.3252 62.3576 25.6604C62.5796 25.6235 62.9065 25.5695 63.2528 25.5125C63.2692 25.5705 63.295 25.6645 63.3212 25.7579C63.3746 25.7761 63.4277 25.7937 63.4811 25.8116C63.5617 25.5992 63.6482 25.389 63.7212 25.1745C63.8848 24.6933 64.0416 24.21 64.2308 23.6374C63.7456 23.3085 64.0314 22.8578 64.3459 22.4083C64.1281 22.2158 63.94 22.0494 63.7785 21.906Z" fill="url(#paint0_linear_15_4612)"/>
<path fill-rule="evenodd" clip-rule="evenodd" d="M13.4488 88.0084C13.2156 88.1954 12.9338 88.2891 12.6032 88.2891C12.3979 88.2891 12.2196 88.2565 12.0676 88.1922C11.9156 88.1276 11.7781 88.0354 11.6558 87.9165C11.5665 87.827 11.4981 87.7348 11.4498 87.6382C11.4023 87.5428 11.3677 87.4374 11.3456 87.3227C11.3243 87.2088 11.3113 87.0839 11.3063 86.9482C11.3013 86.8123 11.2988 86.6601 11.2988 86.4912C11.2988 86.3226 11.3013 86.17 11.3063 86.0343C11.3113 85.8988 11.3243 85.7736 11.3456 85.6593C11.3677 85.5453 11.4023 85.4403 11.4498 85.3441C11.4981 85.2483 11.5665 85.1553 11.6558 85.0658C11.7781 84.9466 11.9156 84.8551 12.0676 84.7908C12.2196 84.7259 12.3979 84.6936 12.6032 84.6936C12.9338 84.6936 13.2156 84.7873 13.4488 84.9743C13.6816 85.1613 13.8311 85.4403 13.8974 85.8111H13.1932C13.157 85.6654 13.0922 85.5453 12.9997 85.4509C12.9071 85.3562 12.7751 85.3093 12.6032 85.3093C12.5074 85.3093 12.4223 85.3256 12.348 85.359C12.2735 85.3924 12.2114 85.4368 12.1615 85.4928C12.1286 85.5297 12.1013 85.5709 12.0801 85.6174C12.0583 85.6635 12.041 85.7232 12.0279 85.7959C12.0145 85.8691 12.0049 85.9606 11.9982 86.0717C11.9917 86.1825 11.9882 86.3226 11.9882 86.4912C11.9882 86.6601 11.9918 86.8003 11.9982 86.911C12.0049 87.0221 12.0145 87.1137 12.0279 87.1865C12.041 87.2595 12.0583 87.3188 12.0801 87.3654C12.1013 87.4114 12.1286 87.4534 12.1615 87.4892C12.2114 87.5457 12.2735 87.5903 12.348 87.6237C12.4223 87.6567 12.5074 87.6734 12.6032 87.6734C12.7751 87.6734 12.9082 87.6258 13.0022 87.5315C13.0964 87.4374 13.1616 87.3174 13.1982 87.1719H13.8974C13.8311 87.5428 13.6816 87.8214 13.4488 88.0084Z" fill="#103F8C"/>
<path fill-rule="evenodd" clip-rule="evenodd" d="M16.2807 86.0715C16.2739 85.9608 16.264 85.8688 16.2509 85.7957C16.2378 85.723 16.22 85.6644 16.1988 85.6197C16.1771 85.575 16.1499 85.5341 16.1169 85.498C16.0673 85.4416 16.0052 85.3965 15.9312 85.3613C15.8567 85.3262 15.7713 85.3092 15.6757 85.3092C15.5797 85.3092 15.4946 85.3262 15.4201 85.3613C15.3457 85.3965 15.2823 85.4416 15.2291 85.498C15.1962 85.5341 15.1689 85.575 15.1476 85.6197C15.126 85.6644 15.1083 85.723 15.0951 85.7957C15.0821 85.8688 15.0731 85.9608 15.0678 86.0715C15.0629 86.1822 15.0608 86.3225 15.0608 86.491C15.0608 86.66 15.0629 86.8001 15.0678 86.9109C15.0731 87.022 15.0821 87.1128 15.0951 87.1841C15.1083 87.2552 15.126 87.313 15.1476 87.3577C15.1689 87.4025 15.1962 87.4429 15.2291 87.4794C15.2823 87.5355 15.3457 87.582 15.4201 87.6182C15.4946 87.6548 15.5797 87.6732 15.6757 87.6732C15.7713 87.6732 15.8567 87.6548 15.9312 87.6182C16.0052 87.582 16.0673 87.5355 16.1169 87.4794C16.1499 87.4429 16.1771 87.4025 16.1988 87.3577C16.22 87.313 16.2378 87.2552 16.2509 87.1841C16.264 87.1128 16.2739 87.022 16.2807 86.9109C16.2874 86.8001 16.2902 86.66 16.2902 86.491C16.2902 86.3225 16.2874 86.1822 16.2807 86.0715ZM16.9721 86.9481C16.9672 87.0837 16.9533 87.2087 16.9303 87.3226C16.9073 87.4372 16.8714 87.5426 16.8236 87.638C16.7754 87.7347 16.707 87.8269 16.6176 87.9163C16.4986 88.0353 16.3629 88.1275 16.2112 88.1921C16.0592 88.2564 15.8805 88.289 15.6757 88.289C15.4704 88.289 15.2911 88.2564 15.1373 88.1921C14.9838 88.1275 14.8474 88.0353 14.7283 87.9163C14.639 87.8269 14.5706 87.7347 14.5224 87.638C14.4745 87.5426 14.4402 87.4372 14.4182 87.3226C14.3969 87.2087 14.3834 87.0837 14.3788 86.9481C14.3739 86.8122 14.3711 86.66 14.3711 86.491C14.3711 86.3225 14.3739 86.1699 14.3788 86.0342C14.3834 85.8987 14.3969 85.7733 14.4182 85.6591C14.4402 85.5452 14.4745 85.4402 14.5224 85.344C14.5706 85.2481 14.639 85.1551 14.7283 85.0657C14.8474 84.9464 14.9838 84.8548 15.1373 84.7906C15.2911 84.7257 15.4704 84.6934 15.6757 84.6934C15.8805 84.6934 16.0592 84.7257 16.2112 84.7906C16.3629 84.8548 16.4986 84.9464 16.6176 85.0657C16.707 85.1551 16.7754 85.2481 16.8236 85.344C16.8714 85.4402 16.9073 85.5452 16.9303 85.6591C16.9533 85.7733 16.9672 85.8987 16.9721 86.0342C16.9774 86.1699 16.9799 86.3225 16.9799 86.491C16.9799 86.66 16.9774 86.8122 16.9721 86.9481Z" fill="#103F8C"/>
<path fill-rule="evenodd" clip-rule="evenodd" d="M18.6064 85.339V85.8504C18.6064 86.2018 18.5848 86.5262 18.5419 86.824C18.499 87.1217 18.4164 87.395 18.2938 87.6435H19.3851V85.339H18.6064ZM19.8164 88.2596H17.8579V89.0439H17.1934V87.6435H17.5255C17.674 87.4152 17.7817 87.1246 17.8476 86.7717C17.9139 86.4193 17.9468 86.0378 17.9468 85.6272V84.7236H20.0743V87.6435H20.4809V89.0439H19.8164V88.2596Z" fill="#103F8C"/>
<path fill-rule="evenodd" clip-rule="evenodd" d="M21.0293 84.7234H23.355V85.3388H21.7187V86.1686H23.1122V86.7844H21.7187V87.6436H23.355V88.2593H21.0293V84.7234Z" fill="#103F8C"/>
<path fill-rule="evenodd" clip-rule="evenodd" d="M26.0953 84.1624C26.0488 84.2514 25.9886 84.3246 25.9141 84.3806C25.8398 84.437 25.7557 84.4768 25.6612 84.4999C25.5672 84.5234 25.4705 84.535 25.3712 84.535C25.2724 84.535 25.1752 84.5234 25.0813 84.4999C24.9871 84.4768 24.9027 84.437 24.8282 84.3806C24.7538 84.3246 24.6929 84.2514 24.6447 84.1624C24.5968 84.0729 24.5713 83.9604 24.5677 83.8245H25.054C25.0604 83.9338 25.0926 84.0123 25.1508 84.0605C25.2086 84.1088 25.2819 84.1325 25.3712 84.1325C25.4606 84.1325 25.5343 84.1088 25.592 84.0605C25.6498 84.0123 25.6821 83.9338 25.6888 83.8245H26.1746C26.1679 83.9604 26.1417 84.0729 26.0953 84.1624ZM26.0159 85.9898L24.6422 88.2594H24.0273V84.7235H24.7166V86.9882L26.0903 84.7235H26.7052V88.2594H26.0159V85.9898Z" fill="#103F8C"/>
<path fill-rule="evenodd" clip-rule="evenodd" d="M29.5581 88.0084C29.3249 88.1954 29.0431 88.2891 28.7124 88.2891C28.5073 88.2891 28.329 88.2565 28.177 88.1922C28.0248 88.1276 27.8874 88.0354 27.7652 87.9165C27.6759 87.827 27.6074 87.7348 27.5592 87.6382C27.5117 87.5428 27.4769 87.4374 27.455 87.3227C27.4337 87.2088 27.4207 87.0839 27.4156 86.9482C27.4107 86.8123 27.4082 86.6601 27.4082 86.4912C27.4082 86.3226 27.4107 86.17 27.4156 86.0343C27.4207 85.8988 27.4337 85.7736 27.455 85.6593C27.4769 85.5453 27.5117 85.4403 27.5592 85.3441C27.6074 85.2483 27.6759 85.1553 27.7652 85.0658C27.8874 84.9466 28.0248 84.8551 28.177 84.7908C28.329 84.7259 28.5073 84.6936 28.7124 84.6936C29.0431 84.6936 29.3249 84.7873 29.5581 84.9743C29.7909 85.1613 29.9405 85.4403 30.0068 85.8111H29.3025C29.2664 85.6654 29.2016 85.5453 29.1091 85.4509C29.0165 85.3562 28.8843 85.3093 28.7124 85.3093C28.6168 85.3093 28.5317 85.3256 28.4573 85.359C28.3828 85.3924 28.3208 85.4368 28.2709 85.4928C28.238 85.5297 28.2106 85.5709 28.1893 85.6174C28.1677 85.6635 28.1503 85.7232 28.1373 85.7959C28.1238 85.8691 28.1142 85.9606 28.1074 86.0717C28.1011 86.1825 28.0976 86.3226 28.0976 86.4912C28.0976 86.6601 28.1011 86.8003 28.1074 86.911C28.1142 87.0221 28.1238 87.1137 28.1373 87.1865C28.1503 87.2595 28.1677 87.3188 28.1893 87.3654C28.2106 87.4114 28.238 87.4534 28.2709 87.4892C28.3208 87.5457 28.3828 87.5903 28.4573 87.6237C28.5317 87.6567 28.6168 87.6734 28.7124 87.6734C28.8843 87.6734 29.0176 87.6258 29.1116 87.5315C29.2058 87.4374 29.271 87.3174 29.3075 87.1719H30.0068C29.9405 87.5428 29.7909 87.8214 29.5581 88.0084Z" fill="#103F8C"/>
<path fill-rule="evenodd" clip-rule="evenodd" d="M31.8985 88.2593H31.2096V85.3388H30.2871V84.7234H32.8215V85.3388H31.8985V88.2593Z" fill="#103F8C"/>
<path fill-rule="evenodd" clip-rule="evenodd" d="M35.1267 87.5267C35.2093 87.4489 35.2507 87.3422 35.2507 87.2065C35.2507 87.0706 35.2093 86.9645 35.1267 86.8885C35.0441 86.8123 34.9314 86.7747 34.7893 86.7747H34.0705V87.6435H34.7893C34.9314 87.6435 35.0441 87.6044 35.1267 87.5267ZM35.0795 86.0441C35.1606 85.9714 35.2011 85.8721 35.2011 85.7465C35.2011 85.6204 35.1606 85.5214 35.0795 85.4487C34.9987 85.3755 34.8867 85.339 34.7446 85.339H34.0705V86.1535H34.7446C34.8867 86.1535 34.9987 86.1173 35.0795 86.0441ZM35.6126 86.5411C35.6491 86.5673 35.6852 86.5989 35.7217 86.6351C35.7979 86.7182 35.8532 86.8094 35.8876 86.9085C35.9223 87.0078 35.9401 87.1203 35.9401 87.246C35.9401 87.4017 35.9152 87.5415 35.8656 87.6661C35.8157 87.7901 35.744 87.8958 35.6498 87.9834C35.5555 88.0714 35.4418 88.1393 35.3077 88.1871C35.1738 88.235 35.0242 88.2592 34.8588 88.2592H33.3809V84.7236H34.7992C34.9647 84.7236 35.115 84.7463 35.2507 84.7928C35.3861 84.8393 35.5012 84.9046 35.5952 84.989C35.6895 85.0735 35.7621 85.1753 35.8132 85.2946C35.8645 85.4139 35.89 85.5477 35.89 85.6968C35.89 86.0343 35.7448 86.2845 35.4538 86.4467C35.5232 86.4832 35.5764 86.5145 35.6126 86.5411Z" fill="#103F8C"/>
<path fill-rule="evenodd" clip-rule="evenodd" d="M38.6311 85.99L37.2575 88.2596H36.6426V84.7236H37.3318V86.9882L38.7056 84.7236H39.3201V88.2596H38.6311V85.99Z" fill="#103F8C"/>
<path fill-rule="evenodd" clip-rule="evenodd" d="M41.2062 85.3292C41.051 85.3292 40.9269 85.3729 40.8341 85.4609C40.7416 85.5482 40.6955 85.6668 40.6955 85.8159C40.6955 85.9614 40.7416 86.0812 40.8341 86.176C40.9269 86.2701 41.051 86.3173 41.2062 86.3173H41.8505V85.3292H41.2062ZM39.8867 88.2593L40.6161 86.789C40.4275 86.7031 40.2797 86.5774 40.1721 86.412C40.0646 86.2463 40.0111 86.0508 40.0111 85.8254C40.0111 85.6572 40.0398 85.5046 40.0976 85.3687C40.1558 85.2331 40.2358 85.1171 40.3382 85.0216C40.4407 84.925 40.5634 84.8516 40.7054 84.8005C40.8471 84.7489 41.0028 84.7234 41.1711 84.7234H42.5403V88.2593H41.8505V86.9284H41.2856L40.7054 88.2593H39.8867Z" fill="#103F8C"/>
<path fill-rule="evenodd" clip-rule="evenodd" d="M47.021 86.1985L46.3469 87.5389H45.8804L45.2011 86.1985V88.2594H44.5117V84.7234H45.1912L46.1133 86.635L47.0309 84.7234H47.7103V88.2594H47.021V86.1985Z" fill="#103F8C"/>
<path fill-rule="evenodd" clip-rule="evenodd" d="M48.5312 84.7234H50.8569V85.3388H49.2206V86.1686H50.6142V86.7844H49.2206V87.6436H50.8569V88.2593H48.5312V84.7234Z" fill="#103F8C"/>
<path fill-rule="evenodd" clip-rule="evenodd" d="M53.8024 86.4067L54.8834 84.7234H55.6968L54.541 86.3822L55.8159 88.2593H54.9827L53.8024 86.4067ZM53.1083 84.7234H53.7972V88.2593H53.1083V84.7234ZM52.3639 86.3822L51.2089 84.7234H52.0222L53.1029 86.4067L51.9227 88.2593H51.0898L52.3639 86.3822Z" fill="#103F8C"/>
<path fill-rule="evenodd" clip-rule="evenodd" d="M57.2666 85.339V85.8504C57.2666 86.2018 57.2449 86.5262 57.2021 86.824C57.1591 87.1217 57.0766 87.395 56.9539 87.6435H58.0451V85.339H57.2666ZM58.4765 88.2596H56.518V89.0439H55.8535V87.6435H56.1856C56.3341 87.4152 56.4418 87.1246 56.5078 86.7717C56.574 86.4193 56.607 86.0378 56.607 85.6272V84.7236H58.7345V87.6435H59.141V89.0439H58.4765V88.2596Z" fill="#103F8C"/>
<path fill-rule="evenodd" clip-rule="evenodd" d="M60.7185 87.8915C60.6703 87.9646 60.6143 88.0281 60.5495 88.0828C60.4853 88.1371 60.4119 88.18 60.329 88.212C60.2464 88.2432 60.1539 88.2592 60.0511 88.2592H59.6301V87.6434H59.9076C60.0033 87.6434 60.0802 87.6243 60.1379 87.5863C60.1958 87.5479 60.2415 87.4926 60.2745 87.4199L60.3787 87.1763L59.248 84.7231H59.9672L60.7062 86.4264L61.3755 84.7231H62.0893L60.8401 87.6629C60.8067 87.7428 60.7663 87.8187 60.7185 87.8915Z" fill="#103F8C"/>
<path fill-rule="evenodd" clip-rule="evenodd" d="M64.4039 86.7795H63.2089V88.2593H62.5195V84.7234H63.2089V86.1686H64.4039V84.7234H65.0933V88.2593H64.4039V86.7795Z" fill="#103F8C"/>
<path fill-rule="evenodd" clip-rule="evenodd" d="M66.653 87.0525H67.5308L67.0995 85.7664L66.653 87.0525ZM67.714 87.6335H66.4594L66.2465 88.2593H65.5273L66.8118 84.7236H67.3522L68.6416 88.2593H67.9225L67.714 87.6335Z" fill="#103F8C"/>
<path fill-rule="evenodd" clip-rule="evenodd" d="M70.7844 85.4733C70.6937 85.3838 70.569 85.3388 70.4098 85.3388H69.7655V86.3074H70.4098C70.569 86.3074 70.6937 86.2637 70.7844 86.1757C70.8756 86.0881 70.9209 85.9713 70.9209 85.8254C70.9209 85.6799 70.8756 85.5627 70.7844 85.4733ZM71.5309 86.2502C71.4781 86.3841 71.4018 86.5019 71.3029 86.603C71.2037 86.7038 71.0814 86.7832 70.9357 86.8412C70.7905 86.8994 70.6267 86.9284 70.4449 86.9284H69.7655V88.2594H69.0762V84.7234H70.4449C70.6267 84.7234 70.7905 84.7526 70.9357 84.81C71.0814 84.8683 71.2037 84.9477 71.3029 85.0486C71.4018 85.1496 71.4781 85.2671 71.5309 85.4013C71.5836 85.5351 71.6103 85.6767 71.6103 85.8254C71.6103 85.9745 71.5836 86.1164 71.5309 86.2502Z" fill="#103F8C"/>
<path fill-rule="evenodd" clip-rule="evenodd" d="M73.9799 86.0715C73.9732 85.9608 73.9633 85.8688 73.9502 85.7957C73.937 85.723 73.9194 85.6644 73.8981 85.6197C73.8765 85.575 73.8491 85.5341 73.8162 85.498C73.7665 85.4416 73.7045 85.3965 73.6305 85.3613C73.5561 85.3262 73.4707 85.3092 73.3749 85.3092C73.2789 85.3092 73.1938 85.3262 73.1194 85.3613C73.045 85.3965 72.9815 85.4416 72.9284 85.498C72.8954 85.5341 72.8681 85.575 72.8469 85.6197C72.8253 85.6644 72.8075 85.723 72.7944 85.7957C72.7813 85.8688 72.7725 85.9608 72.7671 86.0715C72.7622 86.1822 72.76 86.3225 72.76 86.491C72.76 86.66 72.7621 86.8001 72.7671 86.9109C72.7725 87.022 72.7813 87.1128 72.7944 87.1841C72.8075 87.2552 72.8253 87.313 72.8469 87.3577C72.8681 87.4025 72.8954 87.4429 72.9284 87.4794C72.9815 87.5355 73.045 87.582 73.1194 87.6182C73.1938 87.6548 73.2789 87.6732 73.3749 87.6732C73.4707 87.6732 73.5561 87.6548 73.6305 87.6182C73.7045 87.582 73.7665 87.5355 73.8162 87.4794C73.8491 87.4429 73.8765 87.4025 73.8981 87.3577C73.9194 87.313 73.937 87.2552 73.9502 87.1841C73.9633 87.1128 73.9732 87.022 73.9799 86.9109C73.9867 86.8001 73.9895 86.66 73.9895 86.491C73.9895 86.3225 73.9866 86.1822 73.9799 86.0715ZM74.6714 86.9481C74.6664 87.0837 74.6526 87.2087 74.6295 87.3226C74.6065 87.4372 74.5708 87.5426 74.5229 87.638C74.4747 87.7347 74.4063 87.8269 74.317 87.9163C74.1979 88.0353 74.0621 88.1275 73.9105 88.1921C73.7584 88.2564 73.5798 88.289 73.3749 88.289C73.1698 88.289 72.9904 88.2564 72.8366 88.1921C72.6832 88.1275 72.5467 88.0353 72.4276 87.9163C72.3382 87.8269 72.27 87.7347 72.2217 87.638C72.1738 87.5426 72.1394 87.4372 72.1176 87.3226C72.0963 87.2087 72.0828 87.0837 72.0781 86.9481C72.0732 86.8122 72.0703 86.66 72.0703 86.491C72.0703 86.3225 72.0732 86.1699 72.0781 86.0342C72.0828 85.8987 72.0963 85.7733 72.1176 85.6591C72.1394 85.5452 72.1738 85.4402 72.2217 85.344C72.27 85.2481 72.3382 85.1551 72.4276 85.0657C72.5467 84.9464 72.6832 84.8548 72.8366 84.7906C72.9904 84.7257 73.1698 84.6934 73.3749 84.6934C73.5798 84.6934 73.7584 84.7257 73.9105 84.7906C74.0621 84.8548 74.1979 84.9464 74.317 85.0657C74.4063 85.1551 74.4747 85.2481 74.5229 85.344C74.5708 85.4402 74.6065 85.5452 74.6295 85.6591C74.6526 85.7733 74.6664 85.8987 74.6714 86.0342C74.6767 86.1699 74.6791 86.3225 74.6791 86.491C74.6791 86.66 74.6767 86.8122 74.6714 86.9481Z" fill="#103F8C"/>
<path fill-rule="evenodd" clip-rule="evenodd" d="M76.3036 85.339V85.8504C76.3036 86.2018 76.2821 86.5262 76.2392 86.824C76.1962 87.1217 76.1137 87.395 75.9911 87.6435H77.0823V85.339H76.3036ZM77.5136 88.2596H75.5552V89.0439H74.8906V87.6435H75.2227C75.3712 87.4152 75.4789 87.1246 75.5448 86.7717C75.6111 86.4193 75.6441 86.0378 75.6441 85.6272V84.7236H77.7716V87.6435H78.1782V89.0439H77.5136V88.2596Z" fill="#103F8C"/>
<path fill-rule="evenodd" clip-rule="evenodd" d="M80.6109 86.7795H79.4158V88.2593H78.7266V84.7234H79.4158V86.1686H80.6109V84.7234H81.3003V88.2593H80.6109V86.7795Z" fill="#103F8C"/>
<path fill-rule="evenodd" clip-rule="evenodd" d="M83.9134 86.0715C83.9067 85.9608 83.8968 85.8688 83.8837 85.7957C83.8706 85.723 83.8528 85.6644 83.8316 85.6197C83.8099 85.575 83.7827 85.5341 83.7497 85.498C83.7001 85.4416 83.638 85.3965 83.564 85.3613C83.4896 85.3262 83.4042 85.3092 83.3085 85.3092C83.2125 85.3092 83.1274 85.3262 83.0529 85.3613C82.9785 85.3965 82.9151 85.4416 82.862 85.498C82.8289 85.5341 82.8017 85.575 82.7804 85.6197C82.7588 85.6644 82.7411 85.723 82.7279 85.7957C82.7149 85.8688 82.7059 85.9608 82.7006 86.0715C82.6957 86.1822 82.6936 86.3225 82.6936 86.491C82.6936 86.66 82.6957 86.8001 82.7006 86.9109C82.7059 87.022 82.7149 87.1128 82.7279 87.1841C82.7411 87.2552 82.7588 87.313 82.7804 87.3577C82.8017 87.4025 82.8289 87.4429 82.862 87.4794C82.9151 87.5355 82.9785 87.582 83.0529 87.6182C83.1274 87.6548 83.2125 87.6732 83.3085 87.6732C83.4042 87.6732 83.4896 87.6548 83.564 87.6182C83.638 87.582 83.7001 87.5355 83.7497 87.4794C83.7827 87.4429 83.8099 87.4025 83.8316 87.3577C83.8528 87.313 83.8706 87.2552 83.8837 87.1841C83.8968 87.1128 83.9067 87.022 83.9134 86.9109C83.9201 86.8001 83.923 86.66 83.923 86.491C83.923 86.3225 83.9202 86.1822 83.9134 86.0715ZM84.6049 86.9481C84.6 87.0837 84.5861 87.2087 84.5631 87.3226C84.5401 87.4372 84.5043 87.5426 84.4564 87.638C84.4082 87.7347 84.3398 87.8269 84.2505 87.9163C84.1314 88.0353 83.9957 88.1275 83.844 88.1921C83.692 88.2564 83.5133 88.289 83.3085 88.289C83.1033 88.289 82.924 88.2564 82.7701 88.1921C82.6166 88.1275 82.4802 88.0353 82.3612 87.9163C82.2718 87.8269 82.2034 87.7347 82.1552 87.638C82.1074 87.5426 82.073 87.4372 82.051 87.3226C82.0297 87.2087 82.0163 87.0837 82.0116 86.9481C82.0067 86.8122 82.0039 86.66 82.0039 86.491C82.0039 86.3225 82.0067 86.1699 82.0116 86.0342C82.0163 85.8987 82.0297 85.7733 82.051 85.6591C82.073 85.5452 82.1074 85.4402 82.1552 85.344C82.2034 85.2481 82.2718 85.1551 82.3612 85.0657C82.4802 84.9464 82.6166 84.8548 82.7701 84.7906C82.924 84.7257 83.1033 84.6934 83.3085 84.6934C83.5133 84.6934 83.692 84.7257 83.844 84.7906C83.9957 84.8548 84.1314 84.9464 84.2505 85.0657C84.3398 85.1551 84.4082 85.2481 84.4564 85.344C84.5043 85.4402 84.5401 85.5452 84.5631 85.6591C84.5861 85.7733 84.6 85.8987 84.6049 86.0342C84.6102 86.1699 84.6127 86.3225 84.6127 86.491C84.6127 86.66 84.6103 86.8122 84.6049 86.9481Z" fill="#103F8C"/>
<path fill-rule="evenodd" clip-rule="evenodd" d="M87.3824 84.1624C87.336 84.2514 87.2758 84.3246 87.2013 84.3806C87.1269 84.437 87.0429 84.4768 86.9483 84.4999C86.8543 84.5234 86.7576 84.535 86.6583 84.535C86.5595 84.535 86.4623 84.5234 86.3684 84.4999C86.2742 84.4768 86.1898 84.437 86.1154 84.3806C86.041 84.3246 85.98 84.2514 85.9318 84.1624C85.884 84.0729 85.8584 83.9604 85.8549 83.8245H86.3412C86.3475 83.9338 86.3797 84.0123 86.4379 84.0605C86.4957 84.1088 86.569 84.1325 86.6583 84.1325C86.7477 84.1325 86.8214 84.1088 86.8791 84.0605C86.9369 84.0123 86.9692 83.9338 86.9759 83.8245H87.4618C87.4551 83.9604 87.4289 84.0729 87.3824 84.1624ZM87.303 85.9898L85.9294 88.2594H85.3145V84.7235H86.0037V86.9882L87.3774 84.7235H87.9924V88.2594H87.303V85.9898Z" fill="#103F8C"/>
<path fill-rule="evenodd" clip-rule="evenodd" d="M24.9182 94.2152H24.2292V91.2954H23.3066V90.6797H25.841V91.2954H24.9182V94.2152Z" fill="#103F8C"/>
<path fill-rule="evenodd" clip-rule="evenodd" d="M28.1067 91.4293C28.016 91.3399 27.8912 91.2955 27.7321 91.2955H27.0878V92.264H27.7321C27.8912 92.264 28.016 92.2201 28.1067 92.132C28.1978 92.044 28.2431 91.9276 28.2431 91.782C28.2431 91.6366 28.1978 91.5187 28.1067 91.4293ZM28.8531 92.2066C28.8003 92.3407 28.7241 92.4578 28.6252 92.5593C28.5259 92.6605 28.4037 92.7393 28.258 92.7974C28.1127 92.8557 27.949 92.8845 27.7671 92.8845H27.0878V94.2153H26.3984V90.6797H27.7671C27.949 90.6797 28.1127 90.7085 28.258 90.7666C28.4037 90.8245 28.5259 90.9041 28.6252 91.0051C28.7241 91.1055 28.8003 91.2235 28.8531 91.3573C28.9059 91.4918 28.9325 91.633 28.9325 91.782C28.9325 91.9311 28.9059 92.0724 28.8531 92.2066Z" fill="#103F8C"/>
<path fill-rule="evenodd" clip-rule="evenodd" d="M30.5896 93.8478C30.5414 93.9205 30.4854 93.9844 30.4205 94.039C30.3564 94.0937 30.283 94.1366 30.2001 94.1679C30.1175 94.1995 30.025 94.2151 29.9222 94.2151H29.5012V93.5997H29.7787C29.8744 93.5997 29.9513 93.5805 30.0091 93.5425C30.0669 93.5042 30.1126 93.4489 30.1456 93.376L30.2497 93.1326L29.1191 90.6794H29.8382L30.5773 92.3831L31.2467 90.6794H31.9604L30.7112 93.6192C30.6778 93.6987 30.6374 93.775 30.5896 93.8478Z" fill="#103F8C"/>
<path fill-rule="evenodd" clip-rule="evenodd" d="M33.165 91.2955V91.807C33.165 92.158 33.1434 92.4823 33.1005 92.7804C33.0576 93.0782 32.975 93.3516 32.8524 93.5996H33.9437V91.2955H33.165ZM34.375 94.2153H32.4165V95H31.752V93.5996H32.0841C32.2326 93.3711 32.3403 93.0803 32.4062 92.7279C32.4725 92.3755 32.5054 91.994 32.5054 91.5833V90.6797H34.6329V93.5996H35.0395V95H34.375V94.2153Z" fill="#103F8C"/>
<path fill-rule="evenodd" clip-rule="evenodd" d="M37.3295 92.0278C37.3228 91.9171 37.3128 91.8251 37.2998 91.7524C37.2866 91.6796 37.269 91.6207 37.2477 91.576C37.226 91.5313 37.1987 91.4905 37.1658 91.4543C37.1161 91.3981 37.0542 91.3524 36.9801 91.3177C36.9057 91.2829 36.8203 91.2659 36.7245 91.2659C36.6285 91.2659 36.5435 91.2829 36.4691 91.3177C36.3946 91.3524 36.3311 91.3981 36.278 91.4543C36.245 91.4905 36.2177 91.5313 36.1965 91.576C36.1749 91.6207 36.1571 91.6796 36.1441 91.7524C36.1309 91.8251 36.122 91.9171 36.1167 92.0278C36.1118 92.1385 36.1097 92.2783 36.1097 92.4476C36.1097 92.6162 36.1118 92.7561 36.1167 92.8668C36.122 92.9779 36.1309 93.0691 36.1441 93.1401C36.1571 93.2114 36.1749 93.2693 36.1965 93.314C36.2177 93.3587 36.245 93.3992 36.278 93.4357C36.3311 93.4921 36.3946 93.5383 36.4691 93.5745C36.5435 93.6114 36.6285 93.6295 36.7245 93.6295C36.8203 93.6295 36.9057 93.6114 36.9801 93.5745C37.0542 93.5383 37.1161 93.4921 37.1658 93.4357C37.1987 93.3992 37.226 93.3587 37.2477 93.314C37.269 93.2693 37.2866 93.2114 37.2998 93.1401C37.3128 93.0691 37.3228 92.9779 37.3295 92.8668C37.3363 92.7561 37.3391 92.6162 37.3391 92.4476C37.3391 92.2783 37.3362 92.1385 37.3295 92.0278ZM38.021 92.9044C38.016 93.0404 38.0022 93.1649 37.9792 93.2792C37.9561 93.3935 37.9203 93.4986 37.8725 93.5947C37.8243 93.6905 37.7559 93.7832 37.6666 93.8726C37.5475 93.9918 37.4118 94.0838 37.2601 94.1484C37.108 94.213 36.9294 94.2449 36.7245 94.2449C36.5194 94.2449 36.3401 94.213 36.1863 94.1484C36.0327 94.0838 35.8963 93.9918 35.7772 93.8726C35.6879 93.7832 35.6195 93.6905 35.5713 93.5947C35.5235 93.4986 35.489 93.3935 35.4671 93.2792C35.4458 93.1649 35.4324 93.0404 35.4278 92.9044C35.4228 92.7685 35.4199 92.6162 35.4199 92.4476C35.4199 92.2783 35.4228 92.1261 35.4278 91.9909C35.4324 91.855 35.4458 91.73 35.4671 91.6158C35.489 91.5015 35.5235 91.3964 35.5713 91.3002C35.6195 91.2044 35.6879 91.1118 35.7772 91.0224C35.8963 90.9031 36.0327 90.8108 36.1863 90.7465C36.3401 90.682 36.5194 90.6497 36.7245 90.6497C36.9294 90.6497 37.108 90.682 37.2601 90.7465C37.4118 90.8108 37.5475 90.9031 37.6666 91.0224C37.7559 91.1118 37.8243 91.2044 37.8725 91.3002C37.9203 91.3964 37.9561 91.5015 37.9792 91.6158C38.0022 91.73 38.016 91.855 38.021 91.9909C38.0263 92.1261 38.0287 92.2783 38.0287 92.4476C38.0287 92.6162 38.0263 92.7685 38.021 92.9044Z" fill="#103F8C"/>
<path fill-rule="evenodd" clip-rule="evenodd" d="M40.4763 93.4827C40.5589 93.4047 40.6004 93.2978 40.6004 93.1626C40.6004 93.0271 40.5589 92.9209 40.4763 92.8446C40.3937 92.7683 40.281 92.7303 40.139 92.7303H39.4202V93.5995H40.139C40.281 93.5995 40.3937 93.5608 40.4763 93.4827ZM40.4292 92.0003C40.5104 91.9276 40.5508 91.8285 40.5508 91.7022C40.5508 91.5769 40.5104 91.4775 40.4292 91.4048C40.3483 91.3313 40.2364 91.2955 40.0942 91.2955H39.4202V92.11H40.0942C40.2364 92.11 40.3483 92.0731 40.4292 92.0003ZM40.9623 92.4972C40.9987 92.5238 41.0349 92.5551 41.0714 92.5912C41.1476 92.6743 41.2029 92.7651 41.2372 92.8648C41.272 92.9639 41.2897 93.076 41.2897 93.2024C41.2897 93.3575 41.2649 93.4976 41.2152 93.6219C41.1653 93.7457 41.0937 93.8518 40.9994 93.9399C40.9052 94.0272 40.7914 94.0953 40.6574 94.1429C40.5234 94.1915 40.3738 94.2149 40.2084 94.2149H38.7305V90.6797H40.1488C40.3144 90.6797 40.4647 90.7027 40.6004 90.7492C40.7357 90.7954 40.851 90.8607 40.9449 90.9455C41.0391 91.0296 41.1118 91.1311 41.1628 91.2504C41.2142 91.3696 41.2397 91.5041 41.2397 91.6529C41.2397 91.9907 41.0944 92.2402 40.8034 92.4025C40.873 92.4394 40.9261 92.4701 40.9623 92.4972Z" fill="#103F8C"/>
<path fill-rule="evenodd" clip-rule="evenodd" d="M43.7572 92.0278C43.7504 91.9171 43.7406 91.8251 43.7274 91.7524C43.7144 91.6796 43.6966 91.6207 43.6754 91.576C43.6537 91.5313 43.6264 91.4905 43.5935 91.4543C43.5439 91.3981 43.4818 91.3524 43.4077 91.3177C43.3333 91.2829 43.2479 91.2659 43.1523 91.2659C43.0561 91.2659 42.9711 91.2829 42.8967 91.3177C42.8223 91.3524 42.7588 91.3981 42.7057 91.4543C42.6727 91.4905 42.6454 91.5313 42.6241 91.576C42.6025 91.6207 42.5849 91.6796 42.5717 91.7524C42.5585 91.8251 42.5497 91.9171 42.5444 92.0278C42.5394 92.1385 42.5373 92.2783 42.5373 92.4476C42.5373 92.6162 42.5395 92.7561 42.5444 92.8668C42.5497 92.9779 42.5585 93.0691 42.5717 93.1401C42.5849 93.2114 42.6025 93.2693 42.6241 93.314C42.6454 93.3587 42.6727 93.3992 42.7057 93.4357C42.7588 93.4921 42.8223 93.5383 42.8967 93.5745C42.9711 93.6114 43.0561 93.6295 43.1523 93.6295C43.2479 93.6295 43.3333 93.6114 43.4077 93.5745C43.4818 93.5383 43.5439 93.4921 43.5935 93.4357C43.6264 93.3992 43.6537 93.3587 43.6754 93.314C43.6966 93.2693 43.7144 93.2114 43.7274 93.1401C43.7406 93.0691 43.7504 92.9779 43.7572 92.8668C43.7639 92.7561 43.7668 92.6162 43.7668 92.4476C43.7668 92.2783 43.764 92.1385 43.7572 92.0278ZM44.4487 92.9044C44.4437 93.0404 44.4299 93.1649 44.4069 93.2792C44.3839 93.3935 44.348 93.4986 44.3002 93.5947C44.252 93.6905 44.1835 93.7832 44.0942 93.8726C43.9752 93.9918 43.8395 94.0838 43.6877 94.1484C43.5358 94.213 43.3571 94.2449 43.1523 94.2449C42.947 94.2449 42.7677 94.213 42.6139 94.1484C42.4604 94.0838 42.3239 93.9918 42.2049 93.8726C42.1156 93.7832 42.0472 93.6905 41.999 93.5947C41.9511 93.4986 41.9168 93.3935 41.8948 93.2792C41.8735 93.1649 41.86 93.0404 41.8554 92.9044C41.8505 92.7685 41.8477 92.6162 41.8477 92.4476C41.8477 92.2783 41.8505 92.1261 41.8554 91.9909C41.86 91.855 41.8735 91.73 41.8948 91.6158C41.9168 91.5015 41.9511 91.3964 41.999 91.3002C42.0472 91.2044 42.1156 91.1118 42.2049 91.0224C42.3239 90.9031 42.4604 90.8108 42.6139 90.7465C42.7677 90.682 42.947 90.6497 43.1523 90.6497C43.3571 90.6497 43.5358 90.682 43.6877 90.7465C43.8395 90.8108 43.9752 90.9031 44.0942 91.0224C44.1835 91.1118 44.252 91.2044 44.3002 91.3002C44.348 91.3964 44.3839 91.5015 44.4069 91.6158C44.4299 91.73 44.4437 91.855 44.4487 91.9909C44.454 92.1261 44.4565 92.2783 44.4565 92.4476C44.4565 92.6162 44.454 92.7685 44.4487 92.9044Z" fill="#103F8C"/>
<path fill-rule="evenodd" clip-rule="evenodd" d="M47.2281 90.1186C47.1817 90.208 47.1215 90.2807 47.047 90.3368C46.9726 90.3929 46.8886 90.4333 46.794 90.4561C46.7 90.4794 46.6033 90.4908 46.5041 90.4908C46.4052 90.4908 46.3081 90.4794 46.2141 90.4561C46.1199 90.4333 46.0355 90.3929 45.9612 90.3368C45.8867 90.2807 45.8257 90.208 45.7775 90.1186C45.7297 90.0291 45.7041 89.9165 45.7006 89.781H46.1869C46.1932 89.8896 46.2255 89.9688 46.2836 90.0166C46.3414 90.0645 46.4147 90.0887 46.5041 90.0887C46.5934 90.0887 46.6671 90.0645 46.7249 90.0166C46.7826 89.9688 46.8149 89.8896 46.8216 89.781H47.3075C47.3008 89.9165 47.2746 90.0291 47.2281 90.1186ZM47.1487 91.9456L45.775 94.2153H45.1602V90.6796H45.8494V92.9439L47.2232 90.6796H47.8381V94.2153H47.1487V91.9456Z" fill="#103F8C"/>
<path fill-rule="evenodd" clip-rule="evenodd" d="M52.3178 92.1544L51.6438 93.4952H51.1773L50.4979 92.1544V94.2153H49.8086V90.6797H50.4879L51.4102 92.5913L52.3277 90.6797H53.0072V94.2153H52.3178V92.1544Z" fill="#103F8C"/>
<path fill-rule="evenodd" clip-rule="evenodd" d="M55.8167 91.9457L54.4431 94.2153H53.8281V90.6797H54.5175V92.9441L55.8911 90.6797H56.5057V94.2153H55.8167V91.9457Z" fill="#103F8C"/>
<path fill-rule="evenodd" clip-rule="evenodd" d="M58.0312 94.2152H57.3418V90.6797H59.5632V91.2954H58.0312V94.2152Z" fill="#103F8C"/>
<path fill-rule="evenodd" clip-rule="evenodd" d="M61.8157 91.4293C61.725 91.3399 61.6002 91.2955 61.4411 91.2955H60.7967V92.264H61.4411C61.6002 92.264 61.725 92.2201 61.8157 92.132C61.9067 92.044 61.9521 91.9276 61.9521 91.782C61.9521 91.6366 61.9067 91.5187 61.8157 91.4293ZM62.562 92.2066C62.5092 92.3407 62.433 92.4578 62.3342 92.5593C62.2349 92.6605 62.1127 92.7393 61.967 92.7974C61.8217 92.8557 61.658 92.8845 61.4761 92.8845H60.7967V94.2153H60.1074V90.6797H61.4761C61.658 90.6797 61.8217 90.7085 61.967 90.7666C62.1127 90.8245 62.2349 90.9041 62.3342 91.0051C62.433 91.1055 62.5092 91.2235 62.562 91.3573C62.6149 91.4918 62.6414 91.633 62.6414 91.782C62.6414 91.9311 62.6149 92.0724 62.562 92.2066Z" fill="#103F8C"/>
<path fill-rule="evenodd" clip-rule="evenodd" d="M63.7115 93.0086H64.5894L64.1581 91.7223L63.7115 93.0086ZM64.7726 93.5896H63.518L63.305 94.2149H62.5859L63.8703 90.6797H64.4107L65.7001 94.2149H64.9811L64.7726 93.5896Z" fill="#103F8C"/>
<path fill-rule="evenodd" clip-rule="evenodd" d="M68.4558 94.2152H66.1348V90.6797H66.8242V93.5998H68.0196V90.6797H68.7089V93.5998H69.1203V94.9999H68.4558V94.2152Z" fill="#103F8C"/>
<path fill-rule="evenodd" clip-rule="evenodd" d="M71.6526 91.9457L70.279 94.2153H69.6641V90.6797H70.3533V92.9441L71.7271 90.6797H72.3416V94.2153H71.6526V91.9457Z" fill="#103F8C"/>
<path fill-rule="evenodd" clip-rule="evenodd" d="M75.1526 91.9457L73.779 94.2153H73.1641V90.6797H73.8534V92.9441L75.2271 90.6797H75.8416V94.2153H75.1526V91.9457Z" fill="#103F8C"/>
<path fill-rule="evenodd" clip-rule="evenodd" d="M40.8958 48.085C41.9395 49.0637 43.0899 49.6175 44.5384 49.2021C44.6005 49.2739 44.6036 49.2774 44.6653 49.3494C44.3744 49.9219 44.0979 50.5026 43.7977 51.0701C43.5518 51.535 43.2579 51.9737 42.9436 52.3953C42.3198 53.2319 42.2089 53.3731 42.776 53.9012C43.6325 54.6997 44.6008 55.023 45.7707 54.6309C47.0062 54.2167 48.0705 53.6233 48.667 52.3861C48.7265 52.2625 48.988 52.1529 49.1401 52.171C50.4823 52.3307 51.6465 52.835 52.7484 53.6798C54.664 55.148 56.7147 56.4384 58.6805 57.8432C59.394 58.3531 60.0515 58.9508 60.6901 59.5553C61.2163 60.0538 61.5495 60.7751 61.1763 61.4139C60.924 61.8455 60.5491 61.9371 60.1641 61.9871C59.6045 62.0598 59.0368 61.941 58.5413 61.6702C57.4954 61.0991 56.5165 60.4603 55.4852 59.8761C55.1268 59.671 55.0552 60.0496 55.276 60.198C56.0742 60.6877 56.9028 61.2304 57.7052 61.7301C58.632 62.365 58.5497 63.4621 57.6814 63.9281C56.9 64.3468 56.3237 64.2525 55.308 63.7187C54.5846 63.3386 53.8542 62.8329 53.0574 62.501C52.9207 62.4442 52.8029 62.3285 52.6612 62.2732C52.4057 62.1401 52.1622 62.5553 52.3543 62.6114C53.1988 63.1451 54.114 63.6531 54.9819 64.1776C55.3108 64.376 55.4086 64.8335 55.1595 65.1262C54.6214 65.758 53.757 65.8758 52.9412 65.4112C51.996 64.8739 51.0472 64.3426 50.0882 63.8294C49.8578 63.6768 49.5303 63.8919 49.867 64.1744C50.7016 64.6964 51.548 65.1991 52.3901 65.7083C52.8147 65.9717 52.6477 66.1978 52.5273 66.2716C51.9956 66.5967 51.4384 66.6719 50.8275 66.4775C50.5492 66.389 50.2789 66.2719 50.0124 66.1513C49.4116 65.8797 48.9005 65.6547 49.1214 64.738C49.3287 63.8759 48.74 63.2368 47.8561 63.0061C47.7239 62.9713 47.5882 62.9489 47.4145 62.9123C47.4173 62.1418 47.1575 61.4871 46.4835 61.0732C45.8026 60.6552 45.1119 60.653 44.4637 61.119C44.2329 60.7215 44.048 60.3133 43.7817 59.9673C43.4182 59.4949 42.9145 59.2535 42.2968 59.2507C42.1508 59.25 41.9374 59.1415 41.8697 59.0193C41.113 57.6554 40.3078 57.7473 38.8639 58.4387C37.8815 57.3342 36.5911 56.3255 35.4258 55.1867C37.0415 53.0256 39.2113 50.3383 40.8958 48.085Z" fill="#1DABDD"/>
<path fill-rule="evenodd" clip-rule="evenodd" d="M57.0544 56.0052C57.2508 55.6795 57.4067 55.4203 57.5633 55.1606C57.5353 55.1399 57.5081 55.1197 57.4805 55.0992C57.3769 55.212 57.2922 55.3582 57.1653 55.4292C56.997 55.5247 56.7616 55.6553 56.616 55.6024C56.3584 55.5098 56.1144 55.3522 56.2573 54.9395C56.3824 54.5799 56.3622 54.17 56.4062 53.7821C56.3629 53.7718 56.3194 53.7615 56.2758 53.7509C56.1475 54.1633 56.0191 54.5756 55.872 55.0484C54.4864 54.1289 53.1442 53.2383 51.7637 52.3223C52.1905 51.6466 52.5818 51.0272 52.973 50.4079C52.94 50.3785 52.9068 50.3491 52.8737 50.3196C52.3751 50.858 51.8768 51.3964 51.399 51.9125C50.7986 51.758 50.1916 51.6022 49.6525 51.4639C49.7127 50.7958 49.7695 50.1677 49.8262 49.5388C49.7939 49.5335 49.7609 49.5274 49.7283 49.5218C49.5012 50.1372 49.274 50.7526 49.0464 51.368C48.988 51.3812 48.9295 51.3942 48.8714 51.4074C48.5148 50.8665 48.1587 50.3256 47.8028 49.7848C47.7759 49.7961 47.749 49.8074 47.7224 49.8188C47.8088 50.1442 47.8543 50.4885 47.9924 50.7902C48.1724 51.1831 48.0853 51.489 47.8875 51.8446C47.0948 53.2682 45.8702 53.9791 44.2779 54.065C44.0149 54.0792 43.7012 53.9396 43.4797 53.7772C43.0013 53.4251 42.9899 53.2089 43.3347 52.7241C44.0772 51.6795 44.7503 50.6074 45.087 49.3439C45.2819 48.6139 45.917 48.2679 46.59 48.1682C47.5774 48.0212 48.585 48.007 49.5834 47.9324C49.824 47.9147 50.0892 47.9385 50.2986 47.8444C51.0357 47.5133 51.713 47.7689 52.3999 47.9921C53.629 48.3917 54.8599 48.786 56.0847 49.1984C56.4605 49.3251 56.7396 49.2176 57.0275 48.9762C57.4074 48.6579 57.8164 48.3743 58.2527 48.0464C58.4685 48.3545 58.645 48.627 58.842 48.8839C60.1867 50.6379 61.5402 52.3852 62.8799 54.1426C63.3087 54.7052 63.7308 55.2759 64.1075 55.8735C64.4403 56.4006 64.3461 56.7456 63.7811 57.0074C62.9327 57.4011 62.2444 57.9821 61.6033 58.6454C61.1617 59.1025 60.8785 59.0603 60.405 58.6586C59.6593 58.0251 58.8789 57.4323 58.1112 56.8251C57.7607 56.5475 57.4049 56.2771 57.0544 56.0052Z" fill="#053182"/>
<path fill-rule="evenodd" clip-rule="evenodd" d="M46.9037 62.4938C46.9388 62.6478 46.9214 62.8086 46.8562 62.9519C46.739 63.211 46.629 63.4747 46.472 63.7072C46.2615 64.0194 46.1793 64.0816 45.9248 64.363C45.4144 64.9274 44.3371 65.1946 43.7898 64.7637C43.0951 64.2165 43.5159 62.9629 44.0088 62.3219C44.3027 61.9398 44.1722 62.0448 44.4888 61.6838C44.9527 61.1539 45.4144 61.0369 45.9067 61.2477C46.4238 61.4695 46.7765 61.9351 46.9037 62.4938Z" fill="#053182"/>
<path fill-rule="evenodd" clip-rule="evenodd" d="M43.7892 61.4693C43.7846 62.3555 43.1492 63.0141 42.3135 62.9992C41.6118 62.9869 40.9366 62.2603 40.9317 61.5129C40.9273 60.7935 41.7744 59.8636 42.4233 59.8761C43.1803 59.8906 43.7939 60.6054 43.7892 61.4693Z" fill="#053182"/>
<path fill-rule="evenodd" clip-rule="evenodd" d="M48.5018 64.608C48.5061 64.7112 48.4887 64.8149 48.4589 64.9135C48.3841 65.162 48.2842 65.5179 48.1332 65.8512C47.9053 66.3527 47.4456 66.6199 46.9211 66.5965C46.3587 66.5705 45.1958 66.105 45.8043 65.0001C46.0943 64.4735 46.2775 64.3985 46.6397 63.918C46.9023 63.5698 47.1746 63.2788 47.6746 63.4577C48.2013 63.6458 48.4749 63.962 48.5018 64.608Z" fill="#053182"/>
<path fill-rule="evenodd" clip-rule="evenodd" d="M40.4542 58.4385C40.9625 58.4353 41.5409 59.0873 41.5615 59.6853C41.5774 60.157 40.6545 60.9283 40.0779 60.9246C39.5938 60.9218 39.1702 60.4892 39.2163 59.9589C39.2833 59.1867 39.6462 58.4456 40.4542 58.4385Z" fill="#053182"/>
<path fill-rule="evenodd" clip-rule="evenodd" d="M0.357543 28.5569C-0.0145548 27.7026 -0.143561 26.8175 0.200644 25.9419C2.02583 27.4126 3.80817 28.8905 5.63548 30.3104C7.29023 31.596 9.09313 32.6309 10.9768 33.461C11.22 34.1683 11.4486 34.7504 11.6336 35.0769C13.6717 38.6732 15.7284 40.0769 16.5687 40.5329C16.4536 40.6543 16.3427 40.8204 16.2856 41.0398C16.1509 41.5629 16.3692 42.1875 16.9349 42.8963C17.5168 43.6249 19.0865 44.3291 20.0675 44.7177C19.6157 44.8543 19.1503 45.0893 19.0606 45.4843C18.966 45.902 19.2942 46.3343 20.0643 46.8056C20.5924 47.1286 23.1548 47.8515 24.3328 48.1742C24.0493 48.3797 23.7647 48.654 23.7488 48.9368C23.7428 49.0387 23.7662 49.2318 23.9883 49.3815C24.8673 49.9739 25.7845 50.1553 26.5781 50.1553C27.7877 50.1553 28.7106 49.734 28.7729 49.7048C28.8967 49.6467 28.9501 49.4994 28.8928 49.3752C28.835 49.2509 28.6886 49.1974 28.5635 49.2549C28.5408 49.2655 26.2466 50.3057 24.2652 48.9698C24.2546 48.84 24.6543 48.5191 25.0658 48.3052C25.1569 48.2579 25.209 48.1592 25.198 48.0574C25.1869 47.9558 25.1143 47.8714 25.0154 47.8452C23.8792 47.5417 20.822 46.6874 20.3227 46.3822C19.5224 45.8924 19.5334 45.6397 19.5444 45.594C19.6001 45.3484 20.3567 45.1035 21.0006 45.0374C21.1169 45.025 21.2091 44.9342 21.2219 44.8178C21.2349 44.7021 21.1655 44.5927 21.0549 44.5551C21.0252 44.5456 18.0856 43.5422 17.3219 42.5861C16.8651 42.0143 16.673 41.5228 16.7654 41.1639C16.848 40.8449 17.1376 40.7182 17.1404 40.7168C17.2351 40.6781 17.2953 40.5862 17.2939 40.484C17.2928 40.3821 17.229 40.2912 17.1344 40.2551C17.1089 40.2454 14.5586 39.2322 12.0646 34.832C11.9114 34.5616 11.7229 34.0928 11.5194 33.515C11.2529 32.5681 10.9903 31.6357 10.7288 30.7048C10.8077 30.6668 10.8875 30.6289 10.9669 30.5905C11.21 30.8031 11.4674 31.0022 11.6948 31.2304C13.6509 33.1942 15.8901 34.7252 18.4705 35.7554C20.2221 36.4546 21.9796 37.146 23.6925 37.9321C25.2593 38.6512 26.1637 39.9211 26.4306 41.6541C26.5324 42.3138 26.705 42.98 26.9601 43.5955C27.6796 45.3295 30.4348 46.67 32.1129 44.3376C32.6452 43.5968 33.2145 42.8824 33.7673 42.1566C34.4357 41.2786 34.8667 41.1657 35.6638 41.9728C37.1594 43.4865 38.5888 45.0701 39.9855 46.6771C40.1237 46.8365 40.2574 46.9987 40.3867 47.1641L34.5428 54.9987C34.2596 54.7832 33.9793 54.5636 33.694 54.3514C33.5511 54.9522 33.454 55.5524 33.2655 56.1216C32.652 57.975 30.5581 58.452 29.2245 57.0377C28.9498 56.7463 28.7605 56.72 28.3972 56.8616C27.3294 57.2783 26.3338 57.021 25.7438 56.1269C25.3806 55.5768 25.0331 55.437 24.3662 55.5482C22.1419 55.9187 21.2534 55.2035 21.0375 53.1248C20.0803 52.9229 19.1205 52.8355 18.2505 52.5083C17.1599 52.0984 17.1827 51.0496 17.2237 50.0551C15.9506 49.9476 14.7783 49.5963 13.7221 48.907C12.8265 48.3225 12.7992 47.9896 13.6431 47.306C14.0262 46.9955 14.4738 46.7648 14.9845 46.439C14.6128 46.3819 14.3572 46.3464 14.1027 46.3031C12.4675 46.0244 10.8531 45.6894 9.51417 44.6055C8.957 44.1544 8.91872 43.945 9.45601 43.4712C9.81478 43.1554 10.2535 42.93 10.6717 42.6542C8.79617 41.96 6.9394 41.215 5.65569 39.3206C6.51092 39.0306 7.31855 38.7566 8.16496 38.4699C7.8502 38.3063 7.56069 38.165 7.27928 38.0088C5.35731 36.942 3.48488 35.8233 2.22537 33.9206C1.94428 33.4965 1.98327 33.2527 2.3806 33.034C2.7516 32.8296 3.14542 32.6664 3.56394 32.4683C3.43565 32.3505 3.32613 32.2501 3.21623 32.1503C2.06833 31.1079 0.988467 30.0059 0.357543 28.5569Z" fill="#1DABDD"/>
</g>
<defs>
<linearGradient id="paint0_linear_15_4612" x1="29.3535" y1="-5.97963e-07" x2="29.3535" y2="40.2418" gradientUnits="userSpaceOnUse">
<stop stop-color="#053182"/>
<stop offset="0.76" stop-color="#1DABDD"/>
<stop offset="1" stop-color="#1DABDD"/>
</linearGradient>
<clipPath id="clip0_15_4612">
<rect width="100" height="95" fill="white"/>
</clipPath>
</defs>
</svg>
